<?xml version="1.0" encoding="UTF-8" standalone="no"?>
<!-- Created with Inkscape (http://www.inkscape.org/) -->

<svg
   width="268.81668mm"
   height="89.958336mm"
   viewBox="0 0 268.81668 89.958336"
   version="1.1"
   id="svg1"
   xml:space="preserve"
   inkscape:version="1.3.2 (091e20e, 2023-11-25, custom)"
   sodipodi:docname="consultorio.svg"
   xmlns:inkscape="http://www.inkscape.org/namespaces/inkscape"
   xmlns:sodipodi="http://sodipodi.sourceforge.net/DTD/sodipodi-0.dtd"
   xmlns="http://www.w3.org/2000/svg"
   xmlns:svg="http://www.w3.org/2000/svg"><sodipodi:namedview
     id="namedview1"
     pagecolor="#ffffff"
     bordercolor="#000000"
     borderopacity="0.25"
     inkscape:showpageshadow="2"
     inkscape:pageopacity="0.0"
     inkscape:pagecheckerboard="0"
     inkscape:deskcolor="#d1d1d1"
     inkscape:document-units="mm"
     showguides="true"
     inkscape:zoom="0.34609638"
     inkscape:cx="403.06691"
     inkscape:cy="582.20776"
     inkscape:window-width="1920"
     inkscape:window-height="991"
     inkscape:window-x="-9"
     inkscape:window-y="-9"
     inkscape:window-maximized="1"
     inkscape:current-layer="layer1" /><defs
     id="defs1" /><g
     inkscape:label="Camada 1"
     inkscape:groupmode="layer"
     id="layer1"
     transform="translate(53.323124,136.98776)"><rect
       style="fill:#eaeaea;stroke:none;stroke-width:0.600001;stroke-linecap:round;fill-opacity:1"
       id="rect1"
       width="268.81668"
       height="89.958336"
       x="-53.323124"
       y="-136.98776"
       ry="8.7000799e-06" /><path
       id="rect2"
       style="color:#000000;fill:#c8c8c8;fill-opacity:1;stroke-linecap:round;-inkscape-stroke:none"
       d="m 82.377015,-123.64155 c -1.440639,0 -2.623096,1.18478 -2.623096,2.62516 v 24.622788 a 0.74849999,0.74849999 0 0 0 0.748275,0.74828 0.74849999,0.74849999 0 0 0 0.747758,-0.74828 v -24.622788 c 0,-0.6372 0.490083,-1.12706 1.127063,-1.12706 h 23.076105 c 0.63698,0 1.125,0.48985 1.125,1.12706 v 24.622788 a 0.74849999,0.74849999 0 0 0 0.74828,0.74828 0.74849999,0.74849999 0 0 0 0.74982,-0.74828 v -24.622788 c 0,-1.44038 -1.18246,-2.62516 -2.6231,-2.62516 z m -39.935547,0.84181 c -1.193217,0 -2.177645,0.98443 -2.177645,2.17765 v 9.7286 c 0,1.19322 0.984428,2.17765 2.177645,2.17765 h 9.728605 c 1.193217,0 2.177645,-0.98443 2.177645,-2.17765 v -9.7286 c 0,-1.19322 -0.984428,-2.17765 -2.177645,-2.17765 z m 0,1.51774 h 9.728605 c 0.37904,0 0.659908,0.28087 0.659908,0.65991 v 9.7286 c 0,0.37904 -0.280868,0.66043 -0.659908,0.66043 h -9.728605 c -0.379041,0 -0.659908,-0.28139 -0.659908,-0.66043 v -9.7286 c 0,-0.37904 0.280867,-0.65991 0.659908,-0.65991 z m 47.669958,0.74621 a 0.74849999,0.74849999 0 0 0 -0.753959,0.74207 c -0.0217,2.48364 -0.10773,4.3033 -0.894519,6.20892 -0.786799,1.90562 -2.309173,3.96572 -5.32784,6.81612 a 0.74857484,0.74857484 0 0 0 -0.15658,0.8754 c 0,0 0.763732,1.55252 1.558562,3.54087 0.794839,1.98835 1.604326,4.436208 1.711006,6.009968 a 0.74849999,0.74849999 0 0 0 0.796851,0.69505 0.74849999,0.74849999 0 0 0 0.695565,-0.79685 c -0.13222,-1.95043 -0.99482,-4.418458 -1.81281,-6.464718 -0.710649,-1.77775 -1.227857,-2.82059 -1.396297,-3.16829 2.808207,-2.71239 4.458525,-4.86253 5.314404,-6.93549 0.9012,-2.18273 0.985721,-4.25677 1.007691,-6.76754 a 0.74849999,0.74849999 0 0 0 -0.742074,-0.75551 z m 7.607288,0 a 0.74849999,0.74849999 0 0 0 -0.742074,0.75551 c 0.022,2.51077 0.106492,4.58481 1.007691,6.76754 0.855979,2.0732 2.505589,4.22264 5.314399,6.93549 -0.16843,0.3477 -0.68565,1.39054 -1.39629,3.16829 -0.81799,2.04626 -1.68215,4.514288 -1.81436,6.464718 a 0.74849999,0.74849999 0 0 0 0.69711,0.79685 0.74849999,0.74849999 0 0 0 0.79685,-0.69505 c 0.10668,-1.57376 0.91618,-4.021618 1.71101,-6.009968 0.79484,-1.98835 1.55856,-3.54087 1.55856,-3.54087 a 0.74857484,0.74857484 0 0 0 -0.15606,-0.8754 c -3.01868,-2.8504 -4.54157,-4.9105 -5.328358,-6.81612 -0.786789,-1.90562 -0.872789,-3.72528 -0.894519,-6.20892 a 0.74849999,0.74849999 0 0 0 -0.753959,-0.74207 z m -51.181372,19.10116 c -1.188443,0 -2.167827,0.97989 -2.167827,2.168338 v 12.386323 a 0.74849999,0.74849999 0 0 0 0.747758,0.748274 0.74849999,0.74849999 0 0 0 0.749825,-0.748274 v -12.386323 c 0,-0.38492 0.285335,-0.67024 0.670244,-0.67024 h 23.890531 c 0.38491,0 0.671794,0.28532 0.671794,0.67024 v 12.386323 a 0.74849999,0.74849999 0 0 0 0.748275,0.748274 0.74849999,0.74849999 0 0 0 0.747758,-0.748274 v -12.386323 c 0,-1.188448 -0.979384,-2.168338 -2.167827,-2.168338 z m 34.089909,7.398508 c -1.335872,0 -2.435511,1.097855 -2.435511,2.433443 v 2.34611 c 0,1.335599 1.099644,2.433444 2.435511,2.433444 h 5.673555 a 0.74849999,0.74849999 0 0 0 0.748275,-0.748275 0.74849999,0.74849999 0 0 0 -0.748275,-0.747758 h -5.673555 c -0.532049,0 -0.93741,-0.405081 -0.937411,-0.937411 v -2.34611 c 0,-0.532329 0.405367,-0.93741 0.937411,-0.93741 h 26.576159 c 0.53203,0 0.93741,0.405091 0.93741,0.93741 v 2.34611 c 0,0.53232 -0.40537,0.937411 -0.93741,0.937411 H 96.613355 a 0.74849999,0.74849999 0 0 0 -0.749825,0.747758 0.74849999,0.74849999 0 0 0 0.749825,0.748275 h 10.590055 c 1.33586,0 2.43344,-1.097845 2.43344,-2.433444 v -2.34611 c 0,-1.335598 -1.09758,-2.433443 -2.43344,-2.433443 z m 13.185758,2.859257 a 0.74857484,0.74857484 0 0 0 -0.252181,0.02946 c -3.552366,1.039099 -5.819639,4.530729 -6.693648,6.021338 a 0.74849999,0.74849999 0 0 0 0.265617,1.02371 0.74849999,0.74849999 0 0 0 1.025777,-0.267684 c 0.703639,-1.200059 2.54404,-3.716776 4.892208,-4.876705 0.0995,1.251859 0.209037,4.206912 -1.628841,7.579899 a 0.74849999,0.74849999 0 0 0 0.298689,1.015442 0.74849999,0.74849999 0 0 0 1.015959,-0.29869 c 2.551917,-4.683425 1.775085,-9.593729 1.775085,-9.593729 a 0.74857484,0.74857484 0 0 0 -0.698665,-0.633037 z m 23.462651,1.406633 v 0.02325 c -0.23489,0.007 -0.46492,0.006 -0.70332,0.01757 -2.74413,0.13327 -5.00845,2.297486 -6.0818,4.025594 l -7.11739,11.406022 -0.002,0.0021 c -0.91662,1.486669 -1.92485,1.689274 -3.27525,1.820044 H 67.316435 c -3.188974,0 -5.800739,2.471643 -6.027022,5.60586 v 0.0098 l -0.0217,0.415996 v 2.788977 c 0,1.802738 1.474599,3.279386 3.277319,3.279386 h 2.771407 32.861561 1.90996 2.77347 3.02359 c 0.71302,0 1.43681,-0.0111 2.14457,-0.22841 0.70776,-0.21737 1.39463,-0.696876 1.82004,-1.474845 l 1.34411,-2.455148 8.70489,-18.894453 c 0.58785,-1.148669 0.90937,-2.100948 0.97824,-2.947107 0.0689,-0.84616 -0.15782,-1.615098 -0.64027,-2.156458 -0.96489,-1.082719 -2.53011,-1.226423 -4.19923,-1.234033 z m 0.75344,1.521354 h 5.2e-4 c 1.53818,0.007 2.68732,0.290671 3.07578,0.726571 0.19423,0.217939 0.30415,0.479833 0.25993,1.023193 -0.0442,0.543369 -0.28603,1.338614 -0.81855,2.379183 l -0.006,0.01344 -8.70489,18.890836 -1.31672,2.408122 c -0.24414,0.44647 -0.50962,0.621152 -0.93534,0.751892 -0.42572,0.13075 -1.01653,0.162264 -1.69912,0.162264 h -3.02359 -2.77347 -1.90996 -32.861565 -2.771407 c -0.988494,0 -1.760099,-0.77314 -1.760099,-1.761649 v -2.752287 l 0.01757,-0.353467 c 0.170456,-2.360978 2.103153,-4.19716 4.513936,-4.19716 h 32.869315 l 0.0367,-0.0041 c 1.50095,-0.14422 3.25558,-0.613208 4.44159,-2.536796 l 7.11532,-11.404472 c 0.83979,-1.352079 2.94579,-3.217162 4.86534,-3.310392 0.4797,-0.0233 0.94509,-0.03704 1.38441,-0.03514 z m -36.220526,1.773535 a 0.74857484,0.74857484 0 0 0 -0.745691,0.569991 c -0.45725,1.881268 -0.216329,3.93013 1.661914,5.546948 a 0.74849999,0.74849999 0 0 0 1.054716,-0.0801 0.74849999,0.74849999 0 0 0 -0.07803,-1.054716 c -1.225039,-1.054519 -1.379869,-2.085181 -1.226799,-3.277319 0.29962,0.0547 0.417933,0.01092 0.910022,0.269751 0.873329,0.459339 1.826751,1.297448 2.224671,3.157946 a 0.74849999,0.74849999 0 0 0 0.888834,0.576193 0.74849999,0.74849999 0 0 0 0.576192,-0.888318 c -0.486009,-2.272398 -1.810056,-3.548589 -2.992065,-4.170288 -1.182019,-0.62169 -2.273763,-0.65009 -2.273763,-0.65009 z m -40.263692,1.943034 c -1.24104,0 -2.263428,1.022916 -2.263428,2.263944 v 14.337627 c 0,1.241038 1.022388,2.263944 2.263428,2.263944 h 5.553149 c 1.241039,0 2.265495,-1.022596 2.265495,-2.263944 v -14.337627 c 0,-1.241348 -1.024456,-2.263944 -2.265495,-2.263944 z m 28.322302,0 c -1.241039,0 -2.263428,1.022596 -2.263428,2.263944 v 7.447091 a 0.75849998,0.75849998 0 0 0 0.757577,0.758093 0.75849998,0.75849998 0 0 0 0.758093,-0.758093 v -7.447091 c 0,-0.426689 0.32076,-0.748274 0.747758,-0.748274 h 5.552633 c 0.426999,0 0.748274,0.321275 0.748274,0.748274 v 7.447091 a 0.75849998,0.75849998 0 0 0 0.758094,0.758093 0.75849998,0.75849998 0 0 0 0.757576,-0.758093 v -7.447091 c 0,-1.241028 -1.022905,-2.263944 -2.263944,-2.263944 z m -28.322302,1.51567 h 5.553149 c 0.426998,0 0.747758,0.321585 0.747758,0.748274 v 14.337627 c 0,0.426689 -0.32076,0.746207 -0.747758,0.746207 h -5.553149 c -0.426999,0 -0.745691,-0.319198 -0.745691,-0.746207 v -14.337627 c 0,-0.426999 0.318692,-0.748274 0.745691,-0.748274 z m 41.961263,3.332096 c -1.412059,0 -2.739598,1.15317 -2.560568,2.656169 v 0.0041 l 0.304375,2.300635 a 0.75849998,0.75849998 0 0 0 0.851627,0.654223 0.75849998,0.75849998 0 0 0 0.652674,-0.851111 l -0.302824,-2.287199 c -0.0579,-0.485679 0.464046,-0.961181 1.054716,-0.961181 h 6.460587 c 0.59069,0 1.112446,0.475222 1.054716,0.961181 l -0.273368,2.297018 a 0.75849998,0.75849998 0 0 0 0.664042,0.841292 0.75849998,0.75849998 0 0 0 0.841809,-0.664042 l 0.273368,-2.296501 c 0.17854,-1.502788 -1.148518,-2.654618 -2.560567,-2.654618 z m -31.797026,2.562634 a 0.75849998,0.75849998 0 0 0 -0.757576,0.759644 0.75849998,0.75849998 0 0 0 0.757576,0.758093 h 13.546977 a 0.75849998,0.75849998 0 0 0 0.757576,-0.758093 0.75849998,0.75849998 0 0 0 -0.757576,-0.759644 z m 0,9.937378 a 0.75849998,0.75849998 0 0 0 -0.757576,0.758093 0.75849998,0.75849998 0 0 0 0.757576,0.759644 h 7.230567 a 0.75849998,0.75849998 0 0 0 0.759643,-0.759644 0.75849998,0.75849998 0 0 0 -0.759643,-0.758093 z" /></g></svg>
