<?xml version="1.0" encoding="UTF-8" standalone="no"?>
<!-- Created with Inkscape (http://www.inkscape.org/) -->

<svg
   width="268.81668mm"
   height="89.958336mm"
   viewBox="0 0 268.81668 89.958336"
   version="1.1"
   id="svg1"
   xml:space="preserve"
   inkscape:version="1.3.2 (091e20e, 2023-11-25, custom)"
   sodipodi:docname="news.svg"
   xmlns:inkscape="http://www.inkscape.org/namespaces/inkscape"
   xmlns:sodipodi="http://sodipodi.sourceforge.net/DTD/sodipodi-0.dtd"
   xmlns="http://www.w3.org/2000/svg"
   xmlns:svg="http://www.w3.org/2000/svg"><sodipodi:namedview
     id="namedview1"
     pagecolor="#ffffff"
     bordercolor="#000000"
     borderopacity="0.25"
     inkscape:showpageshadow="2"
     inkscape:pageopacity="0.0"
     inkscape:pagecheckerboard="0"
     inkscape:deskcolor="#d1d1d1"
     inkscape:document-units="mm"
     showguides="true"
     inkscape:zoom="0.4894542"
     inkscape:cx="677.28503"
     inkscape:cy="195.1153"
     inkscape:window-width="1920"
     inkscape:window-height="991"
     inkscape:window-x="-9"
     inkscape:window-y="-9"
     inkscape:window-maximized="1"
     inkscape:current-layer="layer1" /><defs
     id="defs1" /><g
     inkscape:label="Camada 1"
     inkscape:groupmode="layer"
     id="layer1"
     transform="translate(53.323124,136.98776)"><rect
       style="fill:#eaeaea;stroke:none;stroke-width:0.600001;stroke-linecap:round;fill-opacity:1"
       id="rect1"
       width="268.81668"
       height="89.958336"
       x="-53.323124"
       y="-136.98776"
       ry="8.7000799e-06" /><g
       id="g28"
       transform="translate(-61.495838,-97.658009)"><path
         style="color:#000000;fill:#c8c8c8;fill-opacity:1;stroke-linecap:round;stroke-linejoin:round;-inkscape-stroke:none;paint-order:stroke fill markers"
         d="m 117.67188,-17.158203 c -3.51135,0 -6.36133,2.849985 -6.36133,6.361328 v 32.892578 c 0,3.511343 2.84998,6.361328 6.36133,6.361328 h 50.18164 a 0.74849999,0.74849999 0 0 0 0.74804,-0.748047 0.74849999,0.74849999 0 0 0 -0.74804,-0.748047 h -50.18164 c -2.70788,0 -4.86329,-2.157357 -4.86329,-4.865234 v -32.892578 c 0,-2.707877 2.15541,-4.865234 4.86329,-4.865234 h 39.38085 c 2.70788,0 4.86329,2.157357 4.86329,4.865234 v 9.93359375 a 0.74849999,0.74849999 0 0 0 0.75,0.74804688 0.74849999,0.74849999 0 0 0 0.74804,-0.74804688 V -10.796875 c 0,-3.511343 -2.84998,-6.361328 -6.36133,-6.361328 z"
         id="rect18" /><path
         style="color:#000000;fill:#c8c8c8;fill-opacity:1;stroke-linecap:round;stroke-linejoin:round;-inkscape-stroke:none;paint-order:stroke fill markers"
         d="m 162.66602,-10.931641 a 0.74849999,0.74849999 0 0 0 -0.75,0.75 0.74849999,0.74849999 0 0 0 0.75,0.7480472 h 5.21875 c 2.48938,0 4.46875,1.9793595 4.46875,4.4687501 V 22.490234 c 0,2.489391 -1.97945,4.470703 -4.46875,4.470703 -2.4893,0 -4.47071,-1.9814 -4.47071,-4.470703 V -4.9648437 a 0.74849999,0.74849999 0 0 0 -0.75,-0.7480469 0.74849999,0.74849999 0 0 0 -0.74804,0.7480469 V 22.490234 c 0,3.292836 2.67591,5.966797 5.96875,5.966797 3.29283,0 5.96679,-2.674049 5.96679,-5.966797 V -4.9648437 c 0,-3.2927477 -2.67405,-5.9667973 -5.96679,-5.9667973 z"
         id="rect19" /><path
         style="color:#000000;fill:#c8c8c8;fill-opacity:1;stroke-linecap:round;stroke-linejoin:round;-inkscape-stroke:none;paint-order:stroke fill markers"
         d="m 141.22266,-9.7207031 c -2.01666,0 -3.66407,1.6474015 -3.66407,3.6640625 V -0.28125 c 0,2.016661 1.64741,3.6640625 3.66407,3.6640625 h 11.18945 c 2.01666,0 3.66406,-1.6474015 3.66406,-3.6640625 v -5.7753906 c 0,-2.016661 -1.6474,-3.6640625 -3.66406,-3.6640625 z m 0,1.4980468 h 11.18945 c 1.21322,0 2.16797,0.9527979 2.16797,2.1660157 V -0.28125 c 0,1.21321779 -0.95475,2.1660156 -2.16797,2.1660156 h -11.18945 c -1.21322,0 -2.16797,-0.95279781 -2.16797,-2.1660156 v -5.7753906 c 0,-1.2132178 0.95475,-2.1660157 2.16797,-2.1660157 z"
         id="rect20" /><path
         style="color:#000000;fill:#c8c8c8;fill-opacity:1;stroke-linecap:round;stroke-linejoin:round;-inkscape-stroke:none;paint-order:stroke fill markers"
         d="m 119.71875,19.578125 a 0.74849999,0.74849999 0 0 0 -0.75,0.75 0.74849999,0.74849999 0 0 0 0.75,0.748047 h 35.56445 a 0.74849999,0.74849999 0 0 0 0.75,-0.748047 0.74849999,0.74849999 0 0 0 -0.75,-0.75 z"
         id="path25" /><path
         style="color:#000000;fill:#c8c8c8;fill-opacity:1;stroke-linecap:round;stroke-linejoin:round;-inkscape-stroke:none;paint-order:stroke fill markers"
         d="m 119.71875,13.707031 a 0.74849999,0.74849999 0 0 0 -0.75,0.75 0.74849999,0.74849999 0 0 0 0.75,0.748047 h 35.56445 a 0.74849999,0.74849999 0 0 0 0.75,-0.748047 0.74849999,0.74849999 0 0 0 -0.75,-0.75 z"
         id="path25-5" /><path
         style="color:#000000;fill:#c8c8c8;fill-opacity:1;stroke-linecap:round;stroke-linejoin:round;-inkscape-stroke:none;paint-order:stroke fill markers"
         d="m 119.71875,7.8359375 a 0.74849999,0.74849999 0 0 0 -0.75,0.7480469 0.74849999,0.74849999 0 0 0 0.75,0.75 h 35.56445 a 0.74849999,0.74849999 0 0 0 0.75,-0.75 0.74849999,0.74849999 0 0 0 -0.75,-0.7480469 z"
         id="path25-51" /><path
         style="color:#000000;fill:#c8c8c8;fill-opacity:1;stroke-linecap:round;stroke-linejoin:round;-inkscape-stroke:none;paint-order:stroke fill markers"
         d="m 119.71875,-9.7773438 a 0.74849999,0.74849999 0 0 0 -0.75,0.7480469 0.74849999,0.74849999 0 0 0 0.75,0.7480469 h 15.36914 a 0.74849999,0.74849999 0 0 0 0.74805,-0.7480469 0.74849999,0.74849999 0 0 0 -0.74805,-0.7480469 z"
         id="path26" /><path
         style="color:#000000;fill:#c8c8c8;fill-opacity:1;stroke-linecap:round;stroke-linejoin:round;-inkscape-stroke:none;paint-order:stroke fill markers"
         d="m 119.71875,1.9648437 a 0.74849999,0.74849999 0 0 0 -0.75,0.7480469 0.74849999,0.74849999 0 0 0 0.75,0.75 h 15.36914 a 0.74849999,0.74849999 0 0 0 0.74805,-0.75 0.74849999,0.74849999 0 0 0 -0.74805,-0.7480469 z"
         id="path27" /><path
         style="color:#000000;fill:#c8c8c8;fill-opacity:1;stroke-linecap:round;stroke-linejoin:round;-inkscape-stroke:none;paint-order:stroke fill markers"
         d="m 119.71875,-3.90625 a 0.74849999,0.74849999 0 0 0 -0.75,0.7480469 0.74849999,0.74849999 0 0 0 0.75,0.75 h 15.36914 a 0.74849999,0.74849999 0 0 0 0.74805,-0.75 0.74849999,0.74849999 0 0 0 -0.74805,-0.7480469 z"
         id="path27-0" /></g></g></svg>
