<?xml version="1.0" encoding="UTF-8" standalone="no"?>
<!-- Created with Inkscape (http://www.inkscape.org/) -->

<svg
   width="19.511581mm"
   height="27.916409mm"
   viewBox="0 0 19.511581 27.916409"
   version="1.1"
   id="svg1"
   xml:space="preserve"
   inkscape:version="1.3.2 (091e20e, 2023-11-25, custom)"
   sodipodi:docname="notfound.svg"
   xmlns:inkscape="http://www.inkscape.org/namespaces/inkscape"
   xmlns:sodipodi="http://sodipodi.sourceforge.net/DTD/sodipodi-0.dtd"
   xmlns="http://www.w3.org/2000/svg"
   xmlns:svg="http://www.w3.org/2000/svg"><sodipodi:namedview
     id="namedview1"
     pagecolor="#ffffff"
     bordercolor="#000000"
     borderopacity="0.25"
     inkscape:showpageshadow="2"
     inkscape:pageopacity="0.0"
     inkscape:pagecheckerboard="0"
     inkscape:deskcolor="#d1d1d1"
     inkscape:document-units="mm"
     inkscape:zoom="2.768771"
     inkscape:cx="109.25425"
     inkscape:cy="99.50263"
     inkscape:window-width="1920"
     inkscape:window-height="991"
     inkscape:window-x="-9"
     inkscape:window-y="-9"
     inkscape:window-maximized="1"
     inkscape:current-layer="layer1" /><defs
     id="defs1" /><g
     inkscape:label="Camada 1"
     inkscape:groupmode="layer"
     id="layer1"
     transform="translate(-95.250034,-134.67288)"><path
       style="color:#000000;fill:#357a7e;-inkscape-stroke:none;fill-opacity:1"
       d="m 105.00585,140.23956 c -0.66279,-8e-5 -1.30642,0.26544 -1.77539,0.73438 -0.46973,0.46973 -0.73446,1.1128 -0.73437,1.77539 4e-5,0.66267 0.26534,1.30644 0.73437,1.77539 0.46881,0.4687 1.11238,0.73445 1.77539,0.73437 0.66256,-5e-5 1.30451,-0.26543 1.77344,-0.73437 0.46904,-0.46903 0.73432,-1.11284 0.73438,-1.77539 8e-5,-0.66091 -0.25996,-1.30478 -0.73047,-1.77539 -0.46971,-0.46978 -1.11489,-0.73432 -1.77735,-0.73438 z m 0,0.59961 c 0.50144,5e-5 0.99716,0.20414 1.35157,0.5586 0.35446,0.35453 0.5567,0.8504 0.55664,1.35156 -5e-5,0.50114 -0.20447,0.99744 -0.5586,1.35156 -0.35419,0.3542 -0.84847,0.55855 -1.34961,0.5586 -0.50137,6e-5 -0.99751,-0.20463 -1.35156,-0.5586 -0.3541,-0.35404 -0.5566,-0.85029 -0.55664,-1.35156 -7e-5,-0.50143 0.20405,-0.99702 0.5586,-1.35156 0.35416,-0.35415 0.84837,-0.55866 1.3496,-0.5586 z m 0,4.9668 c -1.8738,5e-5 -3.49384,0.55986 -4.25,1.50391 l 0.0137,-0.0176 -0.25195,0.27148 -1.203124,1.28711 -1.060547,-0.99023 c -0.121058,-0.11303 -0.281472,-0.1692 -0.435547,-0.16602 h -1.941406 l -0.02539,0.004 c 0,0 -0.187278,0.0118 -0.382813,0.13477 -0.04888,0.0307 -0.104094,0.0705 -0.152344,0.14257 -0.04825,0.0721 -0.0801,0.18825 -0.06055,0.29297 0.0391,0.20946 0.178645,0.30316 0.339844,0.39649 0.477103,0.27622 1.142935,0.80583 1.15625,0.8164 l 1.917969,1.78907 0.302734,0.28125 c 0.246807,0.23048 0.642701,0.21588 0.873047,-0.0312 l 0.664067,-0.71094 0.26953,-0.28906 0.57422,-0.61524 v 5.01758 2.58203 4.37695 c -1.9e-4,0.38775 0.31928,0.70722 0.70703,0.70703 h 1.24609 c 0.38775,1.9e-4 0.70917,-0.31928 0.70899,-0.70703 v -4.66015 c 0,-0.27825 0.22901,-0.50977 0.50585,-0.50977 h 0.47852 0.0137 0.47656 c 0.27685,0 0.50586,0.23152 0.50586,0.50977 v 4.66015 c -1.9e-4,0.38775 0.32124,0.70722 0.70899,0.70703 h 1.24609 c 0.38775,2e-4 0.70722,-0.31928 0.70703,-0.70703 v -4.67578 -2.2832 -5.01758 l 0.57227,0.61524 0.27148,0.28906 0.66211,0.71094 c 0.23064,0.24745 0.6279,0.262 0.875,0.0312 l 0.30274,-0.28125 1.90625,-1.78125 0.004,-0.002 c 0.004,-0.003 0.68374,-0.54419 1.16406,-0.82227 0.1612,-0.0933 0.30074,-0.18703 0.33984,-0.39648 0.0195,-0.10473 -0.0143,-0.22086 -0.0625,-0.29297 -0.0483,-0.0721 -0.1015,-0.11185 -0.15039,-0.14258 -0.19553,-0.12293 -0.38476,-0.13477 -0.38476,-0.13477 l -0.0234,-0.004 h -1.94336 c -0.15416,-0.003 -0.31195,0.0524 -0.4336,0.16602 l -1.0625,0.99219 -1.20117,-1.28907 -0.23633,-0.25195 c -0.75576,-0.94493 -2.3771,-1.50587 -4.25194,-1.50581 z m 0,0.59961 c 1.74775,-6e-5 3.23084,0.58864 3.78321,1.2793 l 0.006,0.01 0.25976,0.27734 1.35352,1.45117 0.25781,0.27539 1.5,-1.39844 c 0.005,-0.004 0.008,-0.006 0.0137,-0.006 h 0.004 1.72071 c -0.47978,0.31436 -1.03321,0.72852 -1.03321,0.72852 l -0.008,0.006 -1.93164,1.80274 -0.30273,0.28125 c -0.01,0.009 -0.0162,0.01 -0.0254,0 l -0.66407,-0.71094 -0.26953,-0.29102 -1.61132,-1.72656 v 6.53906 2.28321 4.67578 c 3e-5,0.0633 -0.0442,0.10745 -0.10743,0.10742 h -1.24609 c -0.0633,3e-5 -0.10941,-0.0442 -0.10938,-0.10742 v -4.66016 c 0,-0.607 -0.49758,-1.10937 -1.10547,-1.10937 h -0.47656 -0.0137 -0.47851 c -0.60789,0 -1.10547,0.50237 -1.10547,1.10937 v 4.66016 c 3e-5,0.0633 -0.0442,0.10745 -0.10742,0.10742 h -1.24805 c -0.0633,3e-5 -0.10745,-0.0442 -0.10742,-0.10742 v -4.37696 -2.58203 -6.54101 l -1.61133,1.72851 -0.27148,0.29102 -0.664067,0.71094 c -0.0095,0.0102 -0.01511,0.01 -0.02539,0 l -0.302734,-0.28125 -1.929687,-1.80274 -0.0098,-0.006 c 0,0 -0.551511,-0.41422 -1.03125,-0.72852 h 1.720703 0.0039 c 0.0059,-1.2e-4 0.0066,0.001 0.01172,0.006 l 1.501953,1.40039 0.257813,-0.27734 1.353519,-1.45117 0.25976,-0.2793 0.008,-0.008 c 0.55288,-0.69025 2.03448,-1.27924 3.78125,-1.27929 z"
       id="path12" /><path
       id="path4"
       style="color:#000000;fill:#357a7e;stroke-linecap:round;-inkscape-stroke:none;fill-opacity:1"
       d="m 104.96476,134.67375 c -0.23079,0.009 -0.45584,0.0814 -0.6382,0.22479 -0.18237,0.1434 -0.32226,0.38078 -0.31264,0.64854 a 0.30000001,0.30000001 0 0 0 0.31264,0.28888 0.30000001,0.30000001 0 0 0 0.2868,-0.31058 c -0.002,-0.0633 0.0186,-0.10237 0.0842,-0.154 0.0657,-0.0516 0.1783,-0.0935 0.28887,-0.0977 0.11058,-0.004 0.21161,0.0259 0.27906,0.0801 0.0674,0.0542 0.12108,0.13055 0.13126,0.30644 0.012,0.20787 -0.091,0.49833 -0.51212,0.77153 -0.0791,0.0513 -0.19291,0.1159 -0.29094,0.24598 -0.098,0.13009 -0.15193,0.31272 -0.15193,0.5178 v 0.59945 a 0.30000001,0.30000001 0 0 0 0.29869,0.30075 0.30000001,0.30000001 0 0 0 0.30076,-0.30075 v -0.59945 c 0,-0.11487 0.0161,-0.13677 0.031,-0.15658 0.0149,-0.0198 0.055,-0.0509 0.13901,-0.10542 0.5551,-0.36014 0.81111,-0.85668 0.78497,-1.30845 -0.0182,-0.31409 -0.15484,-0.57924 -0.35554,-0.74052 -0.2007,-0.16127 -0.44513,-0.21954 -0.67593,-0.21084 z m -0.21807,3.67523 a 0.29451314,0.29451314 0 0 0 -0.29456,0.29455 0.29451314,0.29451314 0 0 0 0.29456,0.29404 0.29451314,0.29451314 0 0 0 0.29455,-0.29404 0.29451314,0.29451314 0 0 0 -0.29455,-0.29455 z" /></g></svg>
