<?xml version="1.0" encoding="UTF-8" standalone="no"?>
<!-- Created with Inkscape (http://www.inkscape.org/) -->

<svg
   width="43.071659mm"
   height="23.794542mm"
   viewBox="0 0 43.071659 23.794542"
   version="1.1"
   id="svg1"
   sodipodi:docname="footerlogo.svg"
   inkscape:version="1.3.2 (091e20e, 2023-11-25, custom)"
   xmlns:inkscape="http://www.inkscape.org/namespaces/inkscape"
   xmlns:sodipodi="http://sodipodi.sourceforge.net/DTD/sodipodi-0.dtd"
   xmlns="http://www.w3.org/2000/svg"
   xmlns:svg="http://www.w3.org/2000/svg">
  <sodipodi:namedview
     id="namedview1"
     pagecolor="#ffffff"
     bordercolor="#000000"
     borderopacity="0.25"
     inkscape:showpageshadow="2"
     inkscape:pageopacity="0.0"
     inkscape:pagecheckerboard="0"
     inkscape:deskcolor="#d1d1d1"
     inkscape:document-units="mm"
     inkscape:zoom="2.768771"
     inkscape:cx="108.53191"
     inkscape:cy="40.270574"
     inkscape:window-width="1920"
     inkscape:window-height="991"
     inkscape:window-x="-9"
     inkscape:window-y="-9"
     inkscape:window-maximized="1"
     inkscape:current-layer="layer1" />
  <defs
     id="defs1">
    <clipPath
       clipPathUnits="userSpaceOnUse"
       id="clipPath7">
      <path
         d="M 0,153.071 H 272.126 V 0 H 0 Z"
         transform="translate(-78.591802,-86.482702)"
         id="path7" />
    </clipPath>
    <linearGradient
       x1="0"
       y1="0"
       x2="1"
       y2="0"
       gradientUnits="userSpaceOnUse"
       gradientTransform="matrix(5.3463903,0.60560353,-0.60560353,5.3463903,-37.419851,52.049801)"
       spreadMethod="pad"
       id="linearGradient9">
      <stop
         style="stop-opacity:1;stop-color:#f5d262 icc-color(Coated-FOGRA39-ISO-12647-2:2004, 0.05596924, 0.16778564, 0.7016449, 0.00149536);"
         offset="0"
         id="stop7" />
      <stop
         style="stop-opacity:1;stop-color:#f5d262 icc-color(Coated-FOGRA39-ISO-12647-2:2004, 0.05596924, 0.16778564, 0.7016449, 0.00149536);"
         offset="0.00000001"
         id="stop8" />
      <stop
         style="stop-opacity:1;stop-color:#b08c31 icc-color(Coated-FOGRA39-ISO-12647-2:2004, 0.12268066, 0.30999756, 0.82810974, 0.29998779);"
         offset="1"
         id="stop9" />
    </linearGradient>
    <linearGradient
       x1="0"
       y1="0"
       x2="1"
       y2="0"
       gradientUnits="userSpaceOnUse"
       gradientTransform="matrix(5.3805802,0,0,5.3805802,-37.450012,54.485058)"
       spreadMethod="pad"
       id="linearGradient12">
      <stop
         style="stop-opacity:1;stop-color:#f5d262 icc-color(Coated-FOGRA39-ISO-12647-2:2004, 0.05596924, 0.16778564, 0.7016449, 0.00149536);"
         offset="0"
         id="stop10" />
      <stop
         style="stop-opacity:1;stop-color:#f5d262 icc-color(Coated-FOGRA39-ISO-12647-2:2004, 0.05596924, 0.16778564, 0.7016449, 0.00149536);"
         offset="0.00000001"
         id="stop11" />
      <stop
         style="stop-opacity:1;stop-color:#b08c31 icc-color(Coated-FOGRA39-ISO-12647-2:2004, 0.12268066, 0.30999756, 0.82810974, 0.29998779);"
         offset="1"
         id="stop12" />
    </linearGradient>
    <linearGradient
       x1="0"
       y1="0"
       x2="1"
       y2="0"
       gradientUnits="userSpaceOnUse"
       gradientTransform="matrix(10.129776,6.7923378,-6.7923378,10.129776,-39.945908,37.780099)"
       spreadMethod="pad"
       id="linearGradient15">
      <stop
         style="stop-opacity:1;stop-color:#f5d262 icc-color(Coated-FOGRA39-ISO-12647-2:2004, 0.05596924, 0.16778564, 0.7016449, 0.00149536);"
         offset="0"
         id="stop13" />
      <stop
         style="stop-opacity:1;stop-color:#f5d262 icc-color(Coated-FOGRA39-ISO-12647-2:2004, 0.05596924, 0.16778564, 0.7016449, 0.00149536);"
         offset="0.00000001"
         id="stop14" />
      <stop
         style="stop-opacity:1;stop-color:#b08c31 icc-color(Coated-FOGRA39-ISO-12647-2:2004, 0.12268066, 0.30999756, 0.82810974, 0.29998779);"
         offset="1"
         id="stop15" />
    </linearGradient>
    <linearGradient
       x1="0"
       y1="0"
       x2="1"
       y2="0"
       gradientUnits="userSpaceOnUse"
       gradientTransform="matrix(10.170553,6.6330047,-6.6330047,10.170553,-38.277249,35.390113)"
       spreadMethod="pad"
       id="linearGradient18">
      <stop
         style="stop-opacity:1;stop-color:#f5d262 icc-color(Coated-FOGRA39-ISO-12647-2:2004, 0.05596924, 0.16778564, 0.7016449, 0.00149536);"
         offset="0"
         id="stop16" />
      <stop
         style="stop-opacity:1;stop-color:#f5d262 icc-color(Coated-FOGRA39-ISO-12647-2:2004, 0.05596924, 0.16778564, 0.7016449, 0.00149536);"
         offset="0.00000001"
         id="stop17" />
      <stop
         style="stop-opacity:1;stop-color:#b08c31 icc-color(Coated-FOGRA39-ISO-12647-2:2004, 0.12268066, 0.30999756, 0.82810974, 0.29998779);"
         offset="1"
         id="stop18" />
    </linearGradient>
    <linearGradient
       x1="0"
       y1="0"
       x2="1"
       y2="0"
       gradientUnits="userSpaceOnUse"
       gradientTransform="matrix(29.917754,0,0,29.917754,-29.757603,49.919193)"
       spreadMethod="pad"
       id="linearGradient21">
      <stop
         style="stop-opacity:1;stop-color:#f5d262 icc-color(Coated-FOGRA39-ISO-12647-2:2004, 0.05596924, 0.16778564, 0.7016449, 0.00149536);"
         offset="0"
         id="stop19" />
      <stop
         style="stop-opacity:1;stop-color:#f5d262 icc-color(Coated-FOGRA39-ISO-12647-2:2004, 0.05596924, 0.16778564, 0.7016449, 0.00149536);"
         offset="0.00000001"
         id="stop20" />
      <stop
         style="stop-opacity:1;stop-color:#b08c31 icc-color(Coated-FOGRA39-ISO-12647-2:2004, 0.12268066, 0.30999756, 0.82810974, 0.29998779);"
         offset="1"
         id="stop21" />
    </linearGradient>
    <linearGradient
       x1="0"
       y1="0"
       x2="1"
       y2="0"
       gradientUnits="userSpaceOnUse"
       gradientTransform="matrix(29.551479,0,0,29.551479,-29.68437,49.948172)"
       spreadMethod="pad"
       id="linearGradient24">
      <stop
         style="stop-opacity:1;stop-color:#f5d262 icc-color(Coated-FOGRA39-ISO-12647-2:2004, 0.05596924, 0.16778564, 0.7016449, 0.00149536);"
         offset="0"
         id="stop22" />
      <stop
         style="stop-opacity:1;stop-color:#f5d262 icc-color(Coated-FOGRA39-ISO-12647-2:2004, 0.05596924, 0.16778564, 0.7016449, 0.00149536);"
         offset="0.00000001"
         id="stop23" />
      <stop
         style="stop-opacity:1;stop-color:#b08c31 icc-color(Coated-FOGRA39-ISO-12647-2:2004, 0.12268066, 0.30999756, 0.82810974, 0.29998779);"
         offset="1"
         id="stop24" />
    </linearGradient>
    <linearGradient
       x1="0"
       y1="0"
       x2="1"
       y2="0"
       gradientUnits="userSpaceOnUse"
       gradientTransform="matrix(29.517528,0,0,29.517528,-29.769008,49.919128)"
       spreadMethod="pad"
       id="linearGradient27">
      <stop
         style="stop-opacity:1;stop-color:#f5d262 icc-color(Coated-FOGRA39-ISO-12647-2:2004, 0.05596924, 0.16778564, 0.7016449, 0.00149536);"
         offset="0"
         id="stop25" />
      <stop
         style="stop-opacity:1;stop-color:#f5d262 icc-color(Coated-FOGRA39-ISO-12647-2:2004, 0.05596924, 0.16778564, 0.7016449, 0.00149536);"
         offset="0.00000001"
         id="stop26" />
      <stop
         style="stop-opacity:1;stop-color:#b08c31 icc-color(Coated-FOGRA39-ISO-12647-2:2004, 0.12268066, 0.30999756, 0.82810974, 0.29998779);"
         offset="1"
         id="stop27" />
    </linearGradient>
    <linearGradient
       x1="0"
       y1="0"
       x2="1"
       y2="0"
       gradientUnits="userSpaceOnUse"
       gradientTransform="matrix(29.906888,0,0,29.906888,-29.854469,49.919108)"
       spreadMethod="pad"
       id="linearGradient30">
      <stop
         style="stop-opacity:1;stop-color:#f5d262 icc-color(Coated-FOGRA39-ISO-12647-2:2004, 0.05596924, 0.16778564, 0.7016449, 0.00149536);"
         offset="0"
         id="stop28" />
      <stop
         style="stop-opacity:1;stop-color:#f5d262 icc-color(Coated-FOGRA39-ISO-12647-2:2004, 0.05596924, 0.16778564, 0.7016449, 0.00149536);"
         offset="0.00000001"
         id="stop29" />
      <stop
         style="stop-opacity:1;stop-color:#b08c31 icc-color(Coated-FOGRA39-ISO-12647-2:2004, 0.12268066, 0.30999756, 0.82810974, 0.29998779);"
         offset="1"
         id="stop30" />
    </linearGradient>
    <linearGradient
       x1="0"
       y1="0"
       x2="1"
       y2="0"
       gradientUnits="userSpaceOnUse"
       gradientTransform="matrix(29.796667,0,0,29.796667,-29.750812,49.919108)"
       spreadMethod="pad"
       id="linearGradient33">
      <stop
         style="stop-opacity:1;stop-color:#f5d262 icc-color(Coated-FOGRA39-ISO-12647-2:2004, 0.05596924, 0.16778564, 0.7016449, 0.00149536);"
         offset="0"
         id="stop31" />
      <stop
         style="stop-opacity:1;stop-color:#f5d262 icc-color(Coated-FOGRA39-ISO-12647-2:2004, 0.05596924, 0.16778564, 0.7016449, 0.00149536);"
         offset="0.00000001"
         id="stop32" />
      <stop
         style="stop-opacity:1;stop-color:#b08c31 icc-color(Coated-FOGRA39-ISO-12647-2:2004, 0.12268066, 0.30999756, 0.82810974, 0.29998779);"
         offset="1"
         id="stop33" />
    </linearGradient>
    <linearGradient
       x1="0"
       y1="0"
       x2="1"
       y2="0"
       gradientUnits="userSpaceOnUse"
       gradientTransform="matrix(29.589525,0,0,29.589525,-29.720417,49.919108)"
       spreadMethod="pad"
       id="linearGradient36">
      <stop
         style="stop-opacity:1;stop-color:#f5d262 icc-color(Coated-FOGRA39-ISO-12647-2:2004, 0.05596924, 0.16778564, 0.7016449, 0.00149536);"
         offset="0"
         id="stop34" />
      <stop
         style="stop-opacity:1;stop-color:#f5d262 icc-color(Coated-FOGRA39-ISO-12647-2:2004, 0.05596924, 0.16778564, 0.7016449, 0.00149536);"
         offset="0.00000001"
         id="stop35" />
      <stop
         style="stop-opacity:1;stop-color:#b08c31 icc-color(Coated-FOGRA39-ISO-12647-2:2004, 0.12268066, 0.30999756, 0.82810974, 0.29998779);"
         offset="1"
         id="stop36" />
    </linearGradient>
    <linearGradient
       x1="0"
       y1="0"
       x2="1"
       y2="0"
       gradientUnits="userSpaceOnUse"
       gradientTransform="matrix(29.783427,0,0,29.783427,-29.823728,49.919108)"
       spreadMethod="pad"
       id="linearGradient39">
      <stop
         style="stop-opacity:1;stop-color:#f5d262 icc-color(Coated-FOGRA39-ISO-12647-2:2004, 0.05596924, 0.16778564, 0.7016449, 0.00149536);"
         offset="0"
         id="stop37" />
      <stop
         style="stop-opacity:1;stop-color:#f5d262 icc-color(Coated-FOGRA39-ISO-12647-2:2004, 0.05596924, 0.16778564, 0.7016449, 0.00149536);"
         offset="0.00000001"
         id="stop38" />
      <stop
         style="stop-opacity:1;stop-color:#b08c31 icc-color(Coated-FOGRA39-ISO-12647-2:2004, 0.12268066, 0.30999756, 0.82810974, 0.29998779);"
         offset="1"
         id="stop39" />
    </linearGradient>
    <linearGradient
       x1="0"
       y1="0"
       x2="1"
       y2="0"
       gradientUnits="userSpaceOnUse"
       gradientTransform="matrix(31.496854,0,0,31.496854,-29.932831,49.921537)"
       spreadMethod="pad"
       id="linearGradient43">
      <stop
         style="stop-opacity:1;stop-color:#f5d262 icc-color(Coated-FOGRA39-ISO-12647-2:2004, 0.05596924, 0.16778564, 0.7016449, 0.00149536);"
         offset="0"
         id="stop40" />
      <stop
         style="stop-opacity:1;stop-color:#f5d262 icc-color(Coated-FOGRA39-ISO-12647-2:2004, 0.05596924, 0.16778564, 0.7016449, 0.00149536);"
         offset="0.00000001"
         id="stop41" />
      <stop
         style="stop-opacity:1;stop-color:#b08c31 icc-color(Coated-FOGRA39-ISO-12647-2:2004, 0.12268066, 0.30999756, 0.82810974, 0.29998779);"
         offset="0.94829"
         id="stop42" />
      <stop
         style="stop-opacity:1;stop-color:#b08c31 icc-color(Coated-FOGRA39-ISO-12647-2:2004, 0.12268066, 0.30999756, 0.82810974, 0.29998779);"
         offset="1"
         id="stop43" />
    </linearGradient>
    <linearGradient
       x1="0"
       y1="0"
       x2="1"
       y2="0"
       gradientUnits="userSpaceOnUse"
       gradientTransform="matrix(29.858178,0,0,29.858178,-29.809222,49.919108)"
       spreadMethod="pad"
       id="linearGradient46">
      <stop
         style="stop-opacity:1;stop-color:#f5d262 icc-color(Coated-FOGRA39-ISO-12647-2:2004, 0.05596924, 0.16778564, 0.7016449, 0.00149536);"
         offset="0"
         id="stop44" />
      <stop
         style="stop-opacity:1;stop-color:#f5d262 icc-color(Coated-FOGRA39-ISO-12647-2:2004, 0.05596924, 0.16778564, 0.7016449, 0.00149536);"
         offset="0.00000001"
         id="stop45" />
      <stop
         style="stop-opacity:1;stop-color:#b08c31 icc-color(Coated-FOGRA39-ISO-12647-2:2004, 0.12268066, 0.30999756, 0.82810974, 0.29998779);"
         offset="1"
         id="stop46" />
    </linearGradient>
    <clipPath
       clipPathUnits="userSpaceOnUse"
       id="clipPath48">
      <path
         d="M 0,153.071 H 272.126 V 0 H 0 Z"
         transform="translate(-115.4634,-46.331604)"
         id="path48" />
    </clipPath>
    <clipPath
       clipPathUnits="userSpaceOnUse"
       id="clipPath50">
      <path
         d="M 0,153.071 H 272.126 V 0 H 0 Z"
         transform="translate(-119.0762,-45.469299)"
         id="path50" />
    </clipPath>
    <clipPath
       clipPathUnits="userSpaceOnUse"
       id="clipPath52">
      <path
         d="M 0,153.071 H 272.126 V 0 H 0 Z"
         transform="translate(-120.84521,-47.967301)"
         id="path52" />
    </clipPath>
    <clipPath
       clipPathUnits="userSpaceOnUse"
       id="clipPath54">
      <path
         d="M 0,153.071 H 272.126 V 0 H 0 Z"
         transform="translate(-125.5635,-44.007399)"
         id="path54" />
    </clipPath>
    <clipPath
       clipPathUnits="userSpaceOnUse"
       id="clipPath56">
      <path
         d="M 0,153.071 H 272.126 V 0 H 0 Z"
         transform="translate(-128.5869,-48.226299)"
         id="path56" />
    </clipPath>
    <clipPath
       clipPathUnits="userSpaceOnUse"
       id="clipPath58">
      <path
         d="M 0,153.071 H 272.126 V 0 H 0 Z"
         transform="translate(-127.919,-43.716301)"
         id="path58" />
    </clipPath>
    <clipPath
       clipPathUnits="userSpaceOnUse"
       id="clipPath60">
      <path
         d="M 0,153.071 H 272.126 V 0 H 0 Z"
         transform="translate(-134.73641,-43.615801)"
         id="path60" />
    </clipPath>
    <clipPath
       clipPathUnits="userSpaceOnUse"
       id="clipPath62">
      <path
         d="M 0,153.071 H 272.126 V 0 H 0 Z"
         transform="translate(-136.6485,-43.716301)"
         id="path62" />
    </clipPath>
    <clipPath
       clipPathUnits="userSpaceOnUse"
       id="clipPath64">
      <path
         d="M 0,153.071 H 272.126 V 0 H 0 Z"
         transform="translate(-144.0567,-45.647004)"
         id="path64" />
    </clipPath>
    <clipPath
       clipPathUnits="userSpaceOnUse"
       id="clipPath66">
      <path
         d="M 0,153.071 H 272.126 V 0 H 0 Z"
         transform="translate(-148.01471,-44.933101)"
         id="path66" />
    </clipPath>
    <clipPath
       clipPathUnits="userSpaceOnUse"
       id="clipPath68">
      <path
         d="M 0,153.071 H 272.126 V 0 H 0 Z"
         transform="translate(-159.6573,-44.073804)"
         id="path68" />
    </clipPath>
    <clipPath
       clipPathUnits="userSpaceOnUse"
       id="clipPath70">
      <path
         d="M 0,153.071 H 272.126 V 0 H 0 Z"
         transform="translate(-161.39261,-45.167499)"
         id="path70" />
    </clipPath>
    <clipPath
       clipPathUnits="userSpaceOnUse"
       id="clipPath72">
      <path
         d="M 0,153.071 H 272.126 V 0 H 0 Z"
         transform="translate(-166.8833,-47.511301)"
         id="path72" />
    </clipPath>
    <clipPath
       clipPathUnits="userSpaceOnUse"
       id="clipPath74">
      <path
         d="M 0,153.071 H 272.126 V 0 H 0 Z"
         transform="translate(-172.46981,-43.656804)"
         id="path74" />
    </clipPath>
    <clipPath
       clipPathUnits="userSpaceOnUse"
       id="clipPath76">
      <path
         d="M 0,153.071 H 272.126 V 0 H 0 Z"
         transform="translate(-177.7007,-43.449699)"
         id="path76" />
    </clipPath>
    <clipPath
       clipPathUnits="userSpaceOnUse"
       id="clipPath78">
      <path
         d="M 0,153.071 H 272.126 V 0 H 0 Z"
         transform="translate(-179.96441,-48.872604)"
         id="path78" />
    </clipPath>
    <clipPath
       clipPathUnits="userSpaceOnUse"
       id="clipPath80">
      <path
         d="M 0,153.071 H 272.126 V 0 H 0 Z"
         transform="translate(-182.80571,-43.670401)"
         id="path80" />
    </clipPath>
    <clipPath
       clipPathUnits="userSpaceOnUse"
       id="clipPath82">
      <path
         d="M 0,153.071 H 272.126 V 0 H 0 Z"
         transform="translate(-186.75881,-44.961504)"
         id="path82" />
    </clipPath>
    <clipPath
       clipPathUnits="userSpaceOnUse"
       id="clipPath84">
      <path
         d="M 0,153.071 H 272.126 V 0 H 0 Z"
         transform="translate(-189.65381,-46.551301)"
         id="path84" />
    </clipPath>
    <clipPath
       clipPathUnits="userSpaceOnUse"
       id="clipPath86">
      <path
         d="M 0,153.071 H 272.126 V 0 H 0 Z"
         transform="translate(-192.9312,-45.869701)"
         id="path86" />
    </clipPath>
    <clipPath
       clipPathUnits="userSpaceOnUse"
       id="clipPath88">
      <path
         d="M 0,153.071 H 272.126 V 0 H 0 Z"
         transform="translate(-194.0747,-47.967301)"
         id="path88" />
    </clipPath>
    <clipPath
       clipPathUnits="userSpaceOnUse"
       id="clipPath90">
      <path
         d="M 0,153.071 H 272.126 V 0 H 0 Z"
         transform="translate(-152.45681,-46.428204)"
         id="path90" />
    </clipPath>
  </defs>
  <g
     inkscape:label="Camada 1"
     inkscape:groupmode="layer"
     id="layer1"
     transform="translate(43.047047,-31.398174)">
    <path
       id="path6"
       clip-path="url(#clipPath7)"
       style="fill:#146569;fill-opacity:1;fill-rule:nonzero;stroke:none"
       d="M 19.956901 23.564 C 6.9739137 23.564 -3.5889989 13.001087 -3.5889989 0.018099989 C -3.5889989 -12.338888 5.9790963 -22.502558 18.095084 -23.454557 L 18.095084 -29.776823 C 18.095084 -30.735822 18.871925 -31.512663 19.830924 -31.512663 L 21.65612 -31.512663 L 25.791374 -31.512663 C 26.750373 -31.512663 27.527214 -30.735822 27.527214 -29.776823 C 27.527214 -28.817824 26.750373 -28.040983 25.791374 -28.040983 L 21.65612 -28.040983 L 21.65612 -25.342741 L 21.660514 -25.342741 L 21.660514 -23.466276 C 33.851502 -22.591277 43.5028 -12.392888 43.5028 0.018099989 C 43.5028 13.001087 32.939888 23.564 19.956901 23.564 z M 19.981803 19.982456 C 30.998792 19.982456 39.962273 11.018511 39.962273 0.00052186272 C 39.962273 -10.443468 31.907941 -19.041171 21.683952 -19.908171 L 21.683952 -15.912077 L 21.683952 -15.554655 L 25.621452 -15.554655 C 28.179449 -15.554655 29.347366 -13.884435 29.708366 -12.730436 C 29.756366 -12.627436 29.785581 -12.513717 29.803581 -12.343717 C 29.803581 -12.337717 29.806511 -12.332604 29.806511 -12.327604 C 29.834511 -12.043604 29.832483 -11.60449 29.828483 -10.81149 C 29.825483 -9.9864912 29.819694 -8.8420557 29.819694 -7.8920567 C 29.819694 -7.3340572 30.272437 -6.8827793 30.830436 -6.8827793 C 30.835436 -6.8827793 30.83962 -6.8813144 30.84362 -6.8813144 C 30.84862 -6.8813144 30.851804 -6.8827793 30.856804 -6.8827793 C 31.813803 -6.8827793 32.589714 -6.1068681 32.589714 -5.149869 C 32.589714 -4.2538699 31.907514 -3.5245368 31.035515 -3.4345369 C 30.968515 -3.4205369 30.898971 -3.4125642 30.828972 -3.4125642 L 28.880729 -3.4169588 C 27.66573 -3.5139587 26.409733 -4.503488 26.359733 -6.2074863 C 26.338733 -6.9274855 26.349803 -9.2736052 26.356803 -10.827604 C 26.357803 -11.232603 26.360198 -11.568288 26.361198 -11.778287 C 26.257198 -11.986287 26.019451 -12.082975 25.621452 -12.082975 L 21.683952 -12.082975 L 21.683952 -9.4242833 C 21.683952 -8.4402843 20.886236 -7.6415684 19.901237 -7.6415684 C 18.917238 -7.6415684 18.118522 -8.4402843 18.118522 -9.4242833 L 18.118522 -12.082975 L 14.182486 -12.082975 C 13.784487 -12.082975 13.545275 -11.986287 13.441275 -11.778287 C 13.442275 -11.568288 13.44367 -11.232603 13.44567 -10.827604 C 13.45267 -9.2736052 13.46374 -6.9274855 13.44274 -6.2074863 C 13.39174 -4.503488 12.136743 -3.5139587 10.921744 -3.4169588 L 8.9735017 -3.4125642 C 8.9025018 -3.4125642 8.8339587 -3.4205369 8.7669587 -3.4345369 C 7.8959596 -3.5245368 7.2127594 -4.2538699 7.2127594 -5.149869 C 7.2127594 -6.1068681 7.9886706 -6.8827793 8.9456697 -6.8827793 C 8.9506697 -6.8827793 8.9548533 -6.8813144 8.9588533 -6.8813144 C 8.9638533 -6.8813144 8.9685017 -6.8827793 8.9735017 -6.8827793 C 9.5315012 -6.8827793 9.9837791 -7.3340572 9.9827791 -7.8920567 C 9.9827791 -8.8420557 9.9784549 -9.9864912 9.9754549 -10.81149 C 9.9714549 -11.60449 9.9694276 -12.043604 9.9974275 -12.327604 C 9.9974275 -12.332604 9.9978924 -12.337717 9.9988924 -12.343717 C 10.016892 -12.513717 10.047572 -12.627436 10.095572 -12.730436 C 10.456572 -13.884435 11.624489 -15.554655 14.182486 -15.554655 L 18.118522 -15.554655 L 18.118522 -19.893522 C 7.9705319 -18.951523 -0.00013155266 -10.389468 -0.00013155266 0.00052186272 C -0.00013155266 11.018511 8.9638141 19.982456 19.981803 19.982456 z M 13.782584 16.506382 C 11.351586 16.506382 9.3733347 14.52886 9.3763338 12.048862 L 9.3807283 11.960972 C 9.3846968 11.843986 9.3401604 11.731027 9.2591463 11.64603 C 9.17714 11.56204 9.0641401 11.514194 8.9471345 11.514194 C 8.9091503 11.514194 8.8686249 11.517031 8.8006501 11.522983 C 6.3686512 11.522983 4.3914702 9.1732321 4.3914702 6.283237 C 4.3883521 5.4462378 4.5564509 4.6337066 4.8924468 3.8677096 C 4.9784499 3.6737066 4.9098023 3.4461111 4.7327788 3.3301119 C 3.4797816 2.5141117 2.7308737 1.1347053 2.7288725 -0.36129456 C 2.7229197 -1.7352914 3.3759696 -3.0479921 4.4749663 -3.8739901 C 4.4809191 -3.8779586 4.4880565 -3.8823548 4.4940093 -3.8871736 C 4.6499997 -4.0021751 4.8166618 -4.111048 4.9876617 -4.2050448 C 5.0976742 -4.2660463 5.1765273 -4.371071 5.2015289 -4.4950838 C 5.2276076 -4.6170869 5.1983107 -4.7471185 5.1224273 -4.8481112 C 5.0334195 -4.9641048 4.9507904 -5.0859262 4.8777984 -5.2099276 C 4.2767974 -6.240927 4.228349 -7.4943494 4.750357 -8.5673497 C 5.2713558 -9.6393493 6.2871063 -10.376496 7.4691071 -10.540494 C 7.5911101 -10.557502 7.7013885 -10.625456 7.7694001 -10.729459 C 7.8394158 -10.83247 7.8604413 -10.960025 7.8294587 -11.081022 C 7.4974596 -12.35002 7.8846506 -13.696183 8.8416658 -14.595182 C 9.4896652 -15.204182 10.32881 -15.534051 11.18981 -15.559049 C 10.90581 -15.366038 10.650629 -15.147053 10.426627 -14.913053 C 9.1565367 -14.539243 8.2220368 -13.373294 8.2220368 -11.986295 C 8.221039 -11.680295 8.2686651 -11.374163 8.3626618 -11.075162 C 8.2326651 -10.731164 8.1239423 -10.390955 8.0389314 -10.062955 L 7.9715485 -10.062955 L 7.9627595 -10.062955 C 6.8737605 -10.062955 5.8602501 -9.4761919 5.3172515 -8.5321934 C 4.7722517 -7.5861937 4.7749718 -6.412275 5.3260406 -5.4662753 C 5.5330546 -5.114275 5.803636 -4.8092128 6.1346344 -4.5522127 C 6.2546248 -4.4642254 6.3825589 -4.3926923 6.5125641 -4.3236971 C 6.6045766 -4.0546895 6.7395347 -3.8074166 6.9095368 -3.5854158 C 6.9085361 -3.5864164 6.9074575 -3.5868807 6.9066071 -3.5868807 L 6.7952789 -3.6220369 C 6.7452758 -3.6398952 6.6949242 -3.6607156 6.6019196 -3.6967439 L 6.5462555 -3.7201814 C 6.4942398 -3.7431421 6.44245 -3.7669572 6.3924469 -3.7919588 C 6.3904485 -3.7939601 6.3026187 -3.8363768 6.3016266 -3.837369 C 6.2556203 -3.8623138 6.2089454 -3.8889837 6.1639313 -3.9150057 C 6.1599628 -3.9170041 6.0947143 -3.9579589 6.0906891 -3.958951 C 5.9777002 -4.0209446 5.8415445 -4.0309084 5.7215484 -3.9838533 C 5.39055 -3.8568613 5.0815547 -3.6850178 4.8045562 -3.4770174 C 3.7115575 -2.6600194 3.1239352 -1.3072073 3.267935 0.051791397 C 3.4149396 1.4117879 4.2769369 2.607839 5.5179351 3.1748384 C 5.527006 3.1799408 5.5360819 3.1837225 5.5443023 3.1865572 C 5.5542236 3.1905257 5.5637346 3.1954413 5.5735992 3.1982759 C 5.6886007 3.2512838 5.8052265 3.2964188 5.922232 3.3374361 C 5.958232 3.3493416 5.9944804 3.3597698 6.0364898 3.3696627 C 6.136496 3.3986611 6.233711 3.4267674 6.3397125 3.4487642 C 6.4267077 3.4677563 6.5141387 3.4801246 6.6341461 3.4971041 C 6.6671414 3.5030568 6.7007319 3.5089179 6.7337555 3.5117525 C 6.8687412 3.5256423 7.002911 3.5337252 7.1439118 3.5337252 L 7.1453766 3.5337252 C 7.2933733 3.5317239 7.4427618 3.5214361 7.5877595 3.5044283 L 7.666861 3.4971041 C 7.6818846 3.4951028 7.6958111 3.4937484 7.7108063 3.4897799 C 7.8468125 3.4707877 7.9831319 3.4429532 8.1561189 3.3989595 C 8.2911046 3.3629596 8.4246148 3.3190643 8.5516267 3.2700533 C 8.5555952 3.2680549 8.6130751 3.2460013 8.6160798 3.2451509 C 8.6279853 3.2400486 8.6398783 3.2338565 8.6497712 3.2290377 C 8.7687695 3.1790345 8.8857902 3.1235947 9.0027986 3.0605806 L 9.0862947 3.0107759 C 9.1902977 2.9507665 9.2897092 2.8856914 9.402701 2.8056978 C 9.4047022 2.8047 9.4156978 2.7975215 9.4276033 2.7895845 C 9.4395088 2.7816475 9.4507123 2.7729026 9.4627595 2.7646822 C 9.8537589 2.4696809 10.183742 2.111347 10.44274 1.6953462 C 10.518737 1.5763479 10.677225 1.5383103 10.797232 1.6133149 C 10.855229 1.6493149 10.896495 1.7060003 10.91149 1.7729829 C 10.927364 1.8389734 10.917834 1.9088182 10.880728 1.9678071 C 10.474728 2.6268049 9.8967348 3.1697258 9.2137361 3.5337252 L 9.1507478 3.5674166 C 9.0737589 3.6064213 8.9980564 3.6416776 8.9090486 3.6816744 L 8.8387361 3.713901 C 8.757722 3.7478883 8.673829 3.7787743 8.6058259 3.8017916 L 8.5267243 3.8310885 C 8.4287307 3.8640837 8.330951 3.8905284 8.2249665 3.9175142 C 8.1929634 3.9265851 8.1615539 3.9318809 8.1165681 3.9409517 C 8.0525618 3.9548415 7.9854274 3.970969 7.9144196 3.9819674 L 7.7913727 4.0024752 C 7.7203649 4.0123964 7.6462531 4.0206219 7.5672516 4.0288424 L 7.4676423 4.0376314 C 7.3706408 4.044718 7.2727478 4.0499646 7.1717438 4.050815 C 7.009744 4.0417442 6.8410197 4.0440544 6.6810211 4.0259127 L 6.4261383 3.9878268 C 6.3701258 3.9798898 6.3154546 3.9726547 6.2254547 3.9526705 L 6.0203766 3.8999361 C 5.9703735 3.888881 5.9209372 3.8773465 5.8709625 3.863315 C 5.6639485 3.8003293 5.4305474 3.908952 5.3465484 4.1079439 C 5.0505465 4.8009433 4.9026285 5.5317045 4.9056304 6.2847019 C 4.9066282 7.8147004 5.5211877 9.2566374 6.5491852 10.141636 C 7.3361841 10.818636 8.3010059 11.110879 9.2650056 10.964878 C 9.4249929 10.941917 9.5631018 10.820523 9.6151033 10.667515 L 9.6400057 10.600132 C 9.6410063 10.598133 9.6619783 10.546008 9.6619783 10.543003 C 9.6969862 10.449998 9.7357666 10.35801 9.7747713 10.272007 C 9.792913 10.231018 9.8108205 10.191016 9.8348299 10.14603 C 9.8778314 10.058043 9.9255268 9.9726809 9.9725252 9.8896825 L 10.039908 9.7768895 C 10.095892 9.6858975 10.153621 9.5968104 10.218619 9.5088231 C 10.223721 9.5017365 10.245772 9.4689497 10.250846 9.4619481 C 10.257932 9.4520269 10.265732 9.4426575 10.272818 9.4326512 C 10.385807 9.2836624 10.504571 9.1447755 10.637564 9.0107762 L 10.712271 8.937534 C 11.22827 8.4225333 11.869738 8.0458316 12.588736 7.8418309 C 12.654727 7.8208545 12.726878 7.8253933 12.790885 7.859409 C 12.85387 7.8914121 12.896877 7.9447418 12.916861 8.0117527 C 12.936987 8.0797558 12.929235 8.1524269 12.896353 8.2124363 C 12.862366 8.27443 12.804488 8.3178526 12.723502 8.3398778 C 12.265503 8.476876 11.836298 8.6909448 11.440299 8.9829442 C 11.307297 9.0849346 11.182563 9.1938274 11.075553 9.3008153 L 11.028678 9.3462255 C 11.017622 9.3541625 11.008395 9.3641362 10.999381 9.3740575 C 10.887384 9.4880668 10.782911 9.6098599 10.685904 9.7358739 C 10.66181 9.767877 10.637864 9.8023622 10.625846 9.81937 C 10.573858 9.8913699 10.522835 9.9657535 10.480826 10.031772 L 10.411978 10.147495 C 10.368977 10.218503 10.332953 10.289961 10.288931 10.37894 C 10.268806 10.417945 10.249652 10.457868 10.237662 10.485874 C 10.202654 10.560879 10.172813 10.639412 10.127799 10.755405 L 10.098502 10.831577 C 10.057513 10.948563 10.021685 11.06718 10.007681 11.139194 C 9.9946421 11.170205 9.9861332 11.206754 9.9813143 11.241733 C 9.9123191 11.527732 9.8806377 11.816273 9.8846346 12.094272 C 9.8846346 14.241271 11.631191 15.987827 13.778189 15.987827 C 15.925188 15.987827 17.671744 14.241271 17.671744 12.094272 L 17.671744 6.2847019 C 17.671744 4.5937041 16.297755 3.2187837 14.608756 3.2187837 C 14.465748 3.2187837 14.350943 3.1029868 14.350943 2.9609712 C 14.350943 2.818984 14.465748 2.7031587 14.608756 2.7031587 C 15.472755 2.7031587 16.304507 3.0155298 16.952506 3.5835299 C 17.081511 3.6965187 17.262861 3.7223932 17.416862 3.6523775 C 17.572852 3.5823902 17.671744 3.4268547 17.671744 3.2568697 L 17.671744 -7.9257481 L 17.671744 -8.0517246 C 17.813732 -7.8197091 17.989764 -7.6164179 18.191764 -7.4394199 L 18.191764 12.097202 C 18.191764 14.529198 16.21458 16.506382 13.782584 16.506382 z M 26.003776 16.506382 C 23.571777 16.506382 21.593131 14.527733 21.593131 12.095737 L 21.593131 -7.3866855 C 21.790139 -7.5466728 21.970616 -7.7260031 22.114616 -7.936002 L 22.114616 -7.9272129 L 22.114616 3.2568697 C 22.114616 3.4268632 22.213035 3.5823788 22.368034 3.6523775 C 22.52204 3.7223649 22.704855 3.6965187 22.833854 3.5835299 C 23.481853 3.0155298 24.31507 2.7031587 25.179069 2.7031587 C 25.320064 2.7031587 25.436881 2.8175191 25.436881 2.9595064 C 25.436881 3.1014937 25.320064 3.2187837 25.179069 3.2187837 C 23.489072 3.2187837 22.114616 4.5937041 22.114616 6.2847019 L 22.114616 12.094272 C 22.114616 14.241271 23.860172 15.987827 26.008171 15.987827 C 28.154168 15.987827 29.901725 14.241271 29.901725 12.094272 C 29.906828 11.816279 29.872992 11.527732 29.805046 11.241733 C 29.799943 11.206726 29.790868 11.170177 29.778679 11.139194 C 29.762805 11.067194 29.728847 10.948577 29.687858 10.831577 L 29.658561 10.755405 C 29.614568 10.639412 29.584698 10.560879 29.548698 10.485874 C 29.537643 10.457811 29.517441 10.417945 29.497429 10.37894 C 29.452443 10.289933 29.416835 10.218474 29.375846 10.147495 L 29.304069 10.031772 C 29.26206 9.9657819 29.21253 9.8913699 29.160514 9.81937 C 29.149459 9.8023622 29.125457 9.767877 29.100456 9.7358739 C 29.005467 9.609874 28.898512 9.4880527 28.785514 9.3740575 C 28.776444 9.3641362 28.767689 9.3541625 28.757682 9.3462255 L 28.710807 9.3008153 C 28.6038 9.1938075 28.478073 9.0834783 28.346061 8.9814793 C 27.950062 8.6894799 27.520857 8.476876 27.062858 8.3398778 C 26.982864 8.3177675 26.925487 8.2744583 26.891471 8.2124363 C 26.857484 8.1524269 26.847993 8.0797558 26.868034 8.0117527 C 26.88901 7.9447418 26.934474 7.8914121 26.995475 7.859409 C 27.060474 7.8254216 27.131633 7.8208545 27.197624 7.8418309 C 27.916625 8.0458401 28.557623 8.4225333 29.072624 8.937534 L 29.148796 9.0107762 C 29.281797 9.1447698 29.402554 9.2836567 29.513542 9.4326512 C 29.520628 9.4425725 29.528428 9.450477 29.535514 9.4604833 C 29.539483 9.4675699 29.562194 9.5018216 29.566276 9.5088231 C 29.632267 9.5968104 29.690468 9.6844327 29.746452 9.7754247 L 29.813835 9.8896825 C 29.861825 9.9726809 29.906516 10.058043 29.95153 10.14603 C 29.974491 10.191016 29.994061 10.231018 30.013054 10.272007 C 30.051066 10.35801 30.087937 10.450027 30.122917 10.543003 C 30.123917 10.546121 30.143756 10.598119 30.144889 10.600132 L 30.169792 10.667515 C 30.2228 10.820529 30.359897 10.941866 30.51989 10.964878 C 31.484887 11.11089 32.450176 10.818631 33.237175 10.141636 C 34.265175 9.2566374 34.88073 7.8147004 34.88073 6.2847019 C 34.884698 5.5317045 34.734819 4.7994784 34.439812 4.1064791 C 34.354801 3.9074872 34.120932 3.8003236 33.913933 3.863315 C 33.865942 3.8772048 33.815987 3.8890227 33.765983 3.8999361 L 33.560905 3.9526705 C 33.470905 3.9727965 33.416234 3.9782832 33.360222 3.9863619 L 33.105339 4.0244478 C 32.944331 4.0423061 32.777614 4.0417442 32.614616 4.050815 C 32.51461 4.0498144 32.415728 4.0444346 32.318718 4.0376314 L 32.220573 4.0288424 C 32.14058 4.0209054 32.066959 4.0126799 31.994987 4.0024752 L 31.87194 3.9805025 C 31.800933 3.9694474 31.733798 3.9548698 31.669792 3.9409517 C 31.624806 3.9318809 31.592849 3.9265851 31.562858 3.9175142 C 31.455851 3.8905851 31.357632 3.8626189 31.259636 3.8296236 L 31.181999 3.8017916 C 31.113996 3.778831 31.028638 3.7464518 30.947624 3.7124361 L 30.877311 3.6816744 C 30.788304 3.6416776 30.710617 3.6064213 30.635612 3.5674166 L 30.572624 3.5322603 C 29.888625 3.168261 29.311629 2.6268049 28.905632 1.9678071 C 28.86864 1.9088182 28.85841 1.8389734 28.873405 1.7729829 C 28.889279 1.7059719 28.930139 1.6493149 28.989128 1.6133149 C 29.108126 1.5383103 29.269624 1.5763479 29.34362 1.6953462 C 29.602621 2.111347 29.932137 2.4696809 30.322136 2.7646822 C 30.334041 2.7726192 30.346851 2.781364 30.358757 2.7895845 C 30.370662 2.7975215 30.380541 2.8045639 30.383659 2.8056978 C 30.494664 2.8856914 30.596068 2.9507665 30.700065 3.0107759 L 30.783561 3.0605806 C 30.901568 3.1235947 31.016134 3.1790345 31.135124 3.2290377 C 31.146179 3.23414 31.157789 3.240332 31.168815 3.2451509 C 31.172784 3.2461516 31.231729 3.268069 31.234733 3.2700533 C 31.362746 3.3190643 31.495255 3.3614947 31.630241 3.3974947 C 31.804232 3.4414883 31.939556 3.4693229 32.075554 3.488315 C 32.089443 3.4922835 32.104976 3.4951198 32.120964 3.4971041 L 32.197136 3.5044283 C 32.343148 3.5214361 32.49245 3.5302761 32.642448 3.5322603 C 32.783443 3.5322603 32.917593 3.5244609 33.052604 3.5102877 C 33.086592 3.5071696 33.119219 3.5030568 33.152214 3.4971041 C 33.272204 3.4800962 33.358176 3.4677563 33.445183 3.4487642 C 33.55219 3.426654 33.649872 3.3971962 33.74987 3.3681978 C 33.79188 3.3582766 33.827684 3.3493132 33.862663 3.3374361 C 33.980669 3.2964472 34.098754 3.2512838 34.212761 3.1982759 C 34.222682 3.1951578 34.232637 3.1905257 34.243523 3.1865572 C 34.249475 3.1834391 34.258504 3.1781925 34.268425 3.1733736 C 35.509423 2.6063741 36.371426 1.4117879 36.518425 0.051791397 C 36.663417 -1.3072073 36.073802 -2.6614843 34.981804 -3.4784822 C 34.705795 -3.6864883 34.396813 -3.8568528 34.064812 -3.9838533 C 33.943801 -4.0308517 33.807673 -4.0208879 33.695671 -3.958951 C 33.692553 -3.9579504 33.625878 -3.9184831 33.623894 -3.9164705 C 33.577887 -3.8903918 33.532205 -3.8623705 33.486198 -3.837369 C 33.48308 -3.8363683 33.396918 -3.7954079 33.393913 -3.7934236 C 33.345923 -3.7684788 33.290655 -3.7431704 33.23864 -3.7201814 L 33.185905 -3.6967439 C 33.092901 -3.660744 33.040611 -3.6415017 32.989616 -3.6235018 L 32.961784 -3.6132479 C 33.131778 -3.8402461 33.263431 -4.0950385 33.351433 -4.372037 C 33.452431 -4.4290416 33.557729 -4.4822254 33.651726 -4.5522127 C 33.984725 -4.8092015 34.25332 -5.114275 34.460319 -5.4662753 C 35.01132 -6.412275 35.013037 -7.5876585 34.469108 -8.5336583 C 33.925109 -9.4776567 32.912599 -10.062955 31.823601 -10.062955 L 31.814811 -10.062955 L 31.745964 -10.062955 C 31.661973 -10.390955 31.553222 -10.732629 31.422233 -11.076627 C 31.517222 -11.375628 31.564323 -11.680295 31.564323 -11.986295 C 31.564323 -13.337294 30.675411 -14.474362 29.456413 -14.879362 C 29.223405 -15.125352 28.960465 -15.356049 28.662468 -15.559049 C 29.500465 -15.519052 30.312229 -15.188184 30.943229 -14.595182 C 31.901228 -13.696183 32.2889 -12.35002 31.956901 -11.081022 C 31.924898 -10.960011 31.946585 -10.832456 32.015495 -10.729459 C 32.08449 -10.625456 32.194705 -10.557502 32.318718 -10.540494 C 33.498717 -10.37651 34.515004 -9.6393493 35.036003 -8.5673497 C 35.558003 -7.4943494 35.510027 -6.240927 34.910026 -5.2099276 C 34.836014 -5.0859403 34.75192 -4.964119 34.663933 -4.8481112 C 34.587936 -4.7471129 34.558837 -4.618546 34.584831 -4.4965487 C 34.61091 -4.372533 34.688714 -4.2660434 34.798698 -4.2050448 C 34.969712 -4.111048 35.137352 -4.00364 35.292351 -3.8886385 C 35.299437 -3.8835361 35.305772 -3.8779586 35.312859 -3.8739901 C 36.410857 -3.0479921 37.062024 -1.7367562 37.056023 -0.36275941 C 37.054024 1.1332404 36.305581 2.5141117 35.053581 3.3301119 C 34.875594 3.4461055 34.808902 3.6722446 34.893913 3.8662447 C 35.228911 4.6322418 35.397889 5.4462378 35.39489 6.283237 C 35.39489 9.1732321 33.417706 11.522983 30.98571 11.522983 C 30.916715 11.517031 30.877757 11.514194 30.837761 11.514194 C 30.720775 11.514194 30.609667 11.560575 30.528679 11.644565 C 30.446672 11.729576 30.402154 11.842507 30.404167 11.959507 L 30.410026 12.047397 C 30.413144 14.527395 28.434774 16.506382 26.003776 16.506382 z M 34.196648 -23.652311 C 34.059649 -23.652311 33.93444 -23.762052 33.93444 -23.913054 L 33.935905 -23.913054 L 33.935905 -33.699675 C 33.935905 -33.987675 34.16939 -34.22116 34.45739 -34.22116 L 40.41491 -34.22116 C 40.537905 -34.22116 40.634636 -34.111245 40.634636 -33.988249 C 40.634636 -33.865254 40.524749 -33.76835 40.401726 -33.755339 L 34.951042 -33.755339 L 34.703483 -33.755339 C 34.566485 -33.755339 34.45739 -33.644134 34.45739 -33.493132 L 34.45739 -33.191374 L 34.45739 -23.913054 C 34.45739 -23.775063 34.347649 -23.652311 34.196648 -23.652311 z M 42.953484 -23.652311 C 42.803475 -23.652311 42.692742 -23.775035 42.692742 -23.913054 L 42.692742 -33.960417 C 42.692742 -34.110427 42.816486 -34.22116 42.953484 -34.22116 C 43.104485 -34.22116 43.214226 -34.097416 43.214226 -33.960417 L 43.214226 -23.913054 C 43.214226 -23.762052 43.091503 -23.652311 42.953484 -23.652311 z M 47.331902 -23.652311 C 47.194904 -23.652311 47.07116 -23.762052 47.07116 -23.913054 L 47.07116 -33.960417 C 47.07116 -34.097416 47.180901 -34.22116 47.331902 -34.22116 C 47.4689 -34.22116 47.592644 -34.110398 47.592644 -33.960417 L 47.592644 -25.341276 C 47.592644 -25.093273 47.908747 -24.982928 48.046746 -25.188933 L 55.004754 -34.125945 C 55.059746 -34.193948 55.128299 -34.22116 55.211297 -34.22116 L 55.252313 -34.22116 C 55.389311 -34.22116 55.51159 -34.110398 55.51159 -33.960417 L 55.51159 -23.913054 C 55.51159 -23.775063 55.404306 -23.652311 55.252313 -23.652311 C 55.101311 -23.666201 54.99157 -23.775035 54.99157 -23.913054 L 54.99157 -32.532195 C 54.99157 -32.780198 54.675935 -32.889081 54.538934 -32.683074 L 47.579461 -23.748991 C 47.524469 -23.679004 47.456389 -23.652311 47.374383 -23.652311 L 47.331902 -23.652311 z M 59.630731 -23.652311 C 59.49274 -23.652311 59.369989 -23.762052 59.369989 -23.913054 L 59.369989 -33.960417 C 59.369989 -34.097416 59.479758 -34.22116 59.630731 -34.22116 C 59.768721 -34.22116 59.891473 -34.110398 59.891473 -33.960417 L 59.891473 -25.341276 C 59.891473 -25.093273 60.208573 -24.982928 60.345575 -25.188933 L 67.303583 -34.125945 C 67.359595 -34.193948 67.42812 -34.22116 67.510126 -34.22116 L 67.551141 -34.22116 C 67.68814 -34.22116 67.811884 -34.110398 67.811884 -33.960417 L 67.811884 -23.913054 C 67.811884 -23.775063 67.702143 -23.652311 67.551141 -23.652311 C 67.40014 -23.666201 67.290399 -23.775035 67.290399 -23.913054 L 67.290399 -32.532195 C 67.290399 -32.780198 66.974761 -32.889081 66.837762 -32.683074 L 59.876825 -23.748991 C 59.822825 -23.679004 59.753753 -23.652311 59.671746 -23.652311 L 59.630731 -23.652311 z M 71.92956 -23.652311 C 71.778558 -23.652311 71.668817 -23.775035 71.668817 -23.913054 L 71.668817 -33.960417 C 71.668817 -34.110427 71.778586 -34.22116 71.92956 -34.22116 C 72.081553 -34.22116 72.190302 -34.097416 72.190302 -33.960417 L 72.190302 -23.913054 C 72.190302 -23.762052 72.067578 -23.652311 71.92956 -23.652311 z M 76.265497 -23.665495 C 76.142502 -23.665495 76.032587 -23.774389 76.032587 -23.898405 L 76.032587 -33.988249 C 76.032587 -34.111245 76.142502 -34.22116 76.265497 -34.22116 L 82.937861 -34.22116 C 83.061848 -34.22116 83.170771 -34.111245 83.170771 -33.988249 C 83.170771 -33.865254 83.061877 -33.755339 82.937861 -33.755339 L 76.788447 -33.755339 C 76.65244 -33.755339 76.555335 -33.643959 76.542353 -33.520964 L 76.542353 -29.025359 C 76.583342 -29.063371 76.634762 -29.086882 76.691767 -29.086882 L 82.045771 -29.086882 C 82.170779 -29.086882 82.278681 -28.976967 82.278681 -28.853972 C 82.278681 -28.730977 82.170779 -28.621062 82.045771 -28.621062 L 76.691767 -28.621062 C 76.634762 -28.621062 76.58337 -28.645536 76.542353 -28.682585 L 76.542353 -24.36569 C 76.542353 -24.242695 76.652268 -24.13278 76.775263 -24.13278 L 82.719599 -24.13278 C 82.842594 -24.13278 82.952509 -24.022392 82.952509 -23.898405 C 82.952509 -23.774389 82.842623 -23.665495 82.719599 -23.665495 L 76.265497 -23.665495 z M 90.241572 -23.665495 C 89.78757 -23.665495 89.416865 -24.035736 89.416865 -24.488737 L 89.416865 -33.396452 C 89.416865 -33.849451 89.787923 -34.220511 90.226924 -34.206511 L 96.046748 -34.206511 C 96.498749 -34.206511 96.869991 -33.836268 96.869991 -33.383269 C 96.869991 -32.930267 96.498749 -32.560027 96.046748 -32.560027 L 92.189814 -32.560027 C 91.737814 -32.560027 91.366572 -32.189783 91.366572 -31.736784 L 91.366572 -24.488737 C 91.366572 -24.035736 90.994864 -23.665495 90.541865 -23.665495 L 90.241572 -23.665495 z M 99.175655 -23.665495 C 98.639652 -23.665495 98.214717 -24.090433 98.214717 -24.626433 L 98.214717 -29.608366 C 98.214717 -31.159364 98.626582 -32.340359 99.44958 -33.150359 C 100.27358 -33.960355 101.3997 -34.372038 102.84069 -34.372038 C 104.28268 -34.372038 105.42017 -33.960355 106.21716 -33.150359 C 107.04017 -32.340359 107.45349 -31.159364 107.45349 -29.608366 L 107.45349 -24.626433 C 107.45349 -24.090433 107.02855 -23.665495 106.49255 -23.665495 C 105.95754 -23.665495 105.53015 -24.090433 105.53015 -24.626433 L 105.53161 -24.626433 L 105.53161 -29.540984 C 105.53161 -30.638982 105.29887 -31.420032 104.83288 -31.914031 C 104.36488 -32.408029 103.70586 -32.656706 102.85388 -32.656706 C 101.98988 -32.656706 101.3316 -32.408027 100.86462 -31.914031 C 100.3986 -31.420032 100.16442 -30.623982 100.16442 -29.540984 L 100.16442 -24.626433 C 100.16442 -24.090433 99.737477 -23.665495 99.203487 -23.665495 L 99.175655 -23.665495 z M 110.36267 -23.665495 C 109.90969 -23.665495 109.54089 -24.035736 109.54089 -24.488737 C 109.54089 -24.941736 109.90969 -25.311979 110.36267 -25.311979 L 113.89148 -25.311979 C 114.5905 -25.311979 114.97454 -26.122355 114.53454 -26.671354 L 109.62146 -32.66989 C 109.49843 -32.820891 109.42956 -33.000373 109.42956 -33.191374 L 109.42956 -33.383269 C 109.42956 -33.836268 109.80079 -34.206511 110.2528 -34.206511 L 117.61071 -34.206511 C 118.0627 -34.206511 118.43396 -33.836268 118.43396 -33.383269 C 118.43396 -32.930267 118.0627 -32.560027 117.61071 -32.560027 L 113.76696 -32.560027 C 113.06797 -32.560027 112.68244 -31.749651 113.12243 -31.200652 L 118.03552 -25.202116 C 118.15939 -25.051115 118.22741 -24.874095 118.22741 -24.682097 L 118.22741 -24.488737 C 118.22741 -24.035736 117.85765 -23.665495 117.40564 -23.665495 L 110.36267 -23.665495 z M 14.012564 -34.095183 C 13.054566 -34.095183 12.276725 -34.871559 12.276725 -35.829558 C 12.276725 -36.789558 13.054566 -37.565398 14.012564 -37.565398 L 25.792838 -37.565398 C 26.75084 -37.565398 27.528678 -36.789558 27.528678 -35.829558 C 27.528678 -34.871559 26.75084 -34.095183 25.792838 -34.095183 L 14.012564 -34.095183 z M 50.63659 -37.391082 C 50.603168 -37.393144 50.564121 -37.402027 50.531121 -37.435027 L 49.851433 -38.01657 C 49.790434 -38.07757 49.773488 -38.169945 49.807488 -38.250945 C 49.839488 -38.329945 49.912988 -38.381316 49.994988 -38.381316 C 50.015988 -38.381316 50.074641 -38.381765 50.113641 -38.341765 L 50.856316 -37.763152 C 50.931316 -37.703152 50.959558 -37.609382 50.929559 -37.524382 C 50.901559 -37.443382 50.826199 -37.391082 50.736199 -37.391082 L 50.668816 -37.391082 C 50.659566 -37.391082 50.64773 -37.390394 50.63659 -37.391082 z M 101.37292 -37.610808 C 101.21692 -37.610808 101.06917 -37.718804 101.00817 -37.881804 L 99.015987 -43.884734 L 99.190303 -43.884734 C 99.370303 -43.884734 99.521049 -43.765414 99.555049 -43.606414 L 101.54577 -37.610808 L 101.37292 -37.610808 z M 50.129754 -38.447234 C 49.807129 -38.443859 49.46616 -38.503199 49.13366 -38.636199 C 48.85166 -38.763199 48.6068 -38.933078 48.377801 -39.162078 C 48.160801 -39.411078 47.996543 -39.671375 47.888543 -39.941375 C 47.772543 -40.246374 47.715691 -40.562707 47.715691 -40.906707 C 47.715691 -41.253706 47.775543 -41.587574 47.888543 -41.870574 C 48.008543 -42.184574 48.17073 -42.441801 48.38073 -42.652801 C 48.60473 -42.8908 48.85166 -43.062285 49.13366 -43.174285 C 49.41166 -43.300285 49.73002 -43.364715 50.077019 -43.364715 C 50.420019 -43.364715 50.738844 -43.295101 51.021844 -43.161101 C 51.303843 -43.034102 51.548703 -42.863757 51.777703 -42.633758 C 51.994703 -42.384758 52.159961 -42.122925 52.266961 -41.855926 C 52.382961 -41.549926 52.439812 -41.236058 52.439812 -40.892058 C 52.439812 -40.544059 52.379496 -40.209261 52.265496 -39.925261 C 52.144496 -39.622262 51.979308 -39.363683 51.773309 -39.157683 C 51.550309 -38.918683 51.302843 -38.748199 51.021844 -38.636199 C 50.757844 -38.516699 50.452378 -38.450609 50.129754 -38.447234 z M 58.857293 -38.447234 C 58.534794 -38.443859 58.196129 -38.503199 57.864129 -38.636199 C 57.582129 -38.763199 57.33627 -38.933078 57.10827 -39.162078 C 56.89027 -39.411078 56.726012 -39.671375 56.619012 -39.941375 C 56.502012 -40.246374 56.44616 -40.562707 56.44616 -40.906707 C 56.44616 -41.253706 56.506012 -41.587574 56.619012 -41.870574 C 56.739012 -42.184574 56.9012 -42.441336 57.111199 -42.651336 C 57.334199 -42.890336 57.582129 -43.062285 57.864129 -43.174285 C 58.142129 -43.300285 58.459489 -43.364715 58.807489 -43.364715 C 59.139488 -43.364715 59.447848 -43.297101 59.750848 -43.161101 C 60.033848 -43.034102 60.279173 -42.863757 60.508172 -42.633758 C 60.726172 -42.384758 60.89043 -42.122925 60.99743 -41.855926 C 61.11443 -41.549926 61.170282 -41.236058 61.170282 -40.892058 C 61.170282 -40.544059 61.109965 -40.210726 60.995965 -39.926726 C 60.875965 -39.623727 60.709778 -39.364683 60.503778 -39.157683 C 60.279778 -38.918683 60.031848 -38.748199 59.750848 -38.636199 C 59.485848 -38.516699 59.179793 -38.450609 58.857293 -38.447234 z M 64.036981 -38.447234 C 63.684981 -38.447234 63.376481 -38.509734 63.099481 -38.634734 C 62.802481 -38.752734 62.541973 -38.930219 62.328973 -39.156218 C 62.122973 -39.362218 61.961672 -39.60991 61.820672 -39.93991 C 61.707672 -40.22391 61.647821 -40.557242 61.647821 -40.905242 C 61.647821 -41.249242 61.703672 -41.565039 61.820672 -41.872039 C 61.932672 -42.151039 62.102973 -42.413266 62.328973 -42.654265 C 62.555973 -42.881265 62.807016 -43.053215 63.098016 -43.177215 C 63.408016 -43.301215 63.723981 -43.36325 64.036981 -43.36325 C 64.332981 -43.36325 64.637282 -43.309582 64.920282 -43.203582 C 65.181282 -43.103582 65.415942 -42.956593 65.621942 -42.765594 C 65.660942 -42.725594 65.686395 -42.66539 65.686395 -42.60739 L 65.686395 -41.056121 C 65.686395 -40.932121 65.589204 -40.836394 65.465204 -40.836394 L 65.450555 -40.836394 C 65.326555 -40.836394 65.229364 -40.932121 65.229364 -41.056121 L 65.230829 -42.504851 C 65.229829 -42.506851 65.228434 -42.511105 65.226434 -42.515105 C 65.056434 -42.654105 64.91336 -42.736961 64.75036 -42.791961 C 64.30236 -42.950961 63.731543 -42.951339 63.263544 -42.75534 C 63.033544 -42.65234 62.82345 -42.50714 62.64245 -42.32614 C 62.46645 -42.150141 62.336477 -41.945187 62.245477 -41.699187 C 62.149477 -41.437188 62.103387 -41.177242 62.103387 -40.905242 C 62.103387 -40.633242 62.149477 -40.374296 62.245477 -40.111297 C 62.327477 -39.889297 62.45945 -39.683343 62.64245 -39.484343 C 62.83945 -39.288344 63.035544 -39.153074 63.263544 -39.058074 C 63.701543 -38.861074 64.282825 -38.856988 64.751825 -39.019988 C 64.932825 -39.080988 65.111169 -39.192113 65.279169 -39.348113 C 65.366169 -39.435113 65.50011 -39.428464 65.59411 -39.333464 C 65.63911 -39.288465 65.660169 -39.227078 65.654169 -39.162078 C 65.647169 -39.098078 65.612532 -39.037593 65.576532 -39.015593 C 65.383532 -38.837594 65.18 -38.707902 64.932001 -38.606902 C 64.647001 -38.500902 64.345981 -38.447234 64.036981 -38.447234 z M 45.720574 -38.448699 C 45.413449 -38.452699 45.101757 -38.514199 44.796257 -38.636199 C 44.513258 -38.763199 44.269398 -38.933078 44.040398 -39.162078 C 43.824398 -39.411078 43.65914 -39.671375 43.55114 -39.941375 C 43.43514 -40.246374 43.378289 -40.562707 43.378289 -40.906707 C 43.378289 -41.253706 43.43814 -41.587574 43.55114 -41.870574 C 43.67114 -42.184574 43.833328 -42.441336 44.043328 -42.651336 C 44.267327 -42.890336 44.514258 -43.062285 44.796257 -43.174285 C 45.075257 -43.300285 45.393082 -43.364715 45.741082 -43.364715 C 46.023081 -43.364715 46.305172 -43.318695 46.633172 -43.219695 C 46.858171 -43.140695 47.062211 -43.009566 47.298211 -42.787566 C 47.357211 -42.700566 47.371054 -42.564906 47.263054 -42.460906 C 47.163055 -42.392906 47.04755 -42.400555 46.971551 -42.475554 C 46.820551 -42.615554 46.649812 -42.720144 46.439812 -42.805144 C 45.976813 -42.968144 45.415827 -42.959523 44.980828 -42.768523 C 44.742828 -42.662523 44.539312 -42.518718 44.377312 -42.343719 C 44.190312 -42.142719 44.05941 -41.937835 43.97741 -41.713836 C 43.88141 -41.451836 43.833855 -41.19189 43.833855 -40.91989 C 43.833855 -40.647891 43.88141 -40.38748 43.97741 -40.12448 C 44.05941 -39.90148 44.190312 -39.695597 44.377312 -39.494597 C 44.541312 -39.318597 44.743828 -39.175257 44.980828 -39.071257 C 45.415827 -38.876258 45.975278 -38.868637 46.441277 -39.034636 C 46.622277 -39.094636 46.801086 -39.205297 46.970086 -39.361297 C 47.049086 -39.440296 47.183914 -39.429648 47.268914 -39.346648 C 47.312914 -39.303648 47.337761 -39.245586 47.337761 -39.182586 C 47.337761 -39.119586 47.312984 -39.061593 47.265984 -39.015593 C 47.047984 -38.814594 46.840988 -38.684902 46.619988 -38.606902 C 46.329988 -38.498902 46.027699 -38.444699 45.720574 -38.448699 z M 39.407097 -38.470671 C 39.084084 -38.474868 38.804812 -38.543187 38.588249 -38.652312 C 38.36225 -38.764312 38.188581 -38.9235 38.053581 -39.1445 C 37.942581 -39.347499 37.888054 -39.561242 37.888054 -39.780242 C 37.888054 -40.069242 37.94237 -40.280816 38.06237 -40.443816 C 38.19637 -40.628816 38.336753 -40.754324 38.504753 -40.839324 C 38.673753 -40.923324 38.862324 -40.995656 39.064324 -41.054656 C 39.154323 -41.077656 39.240996 -41.099574 39.327995 -41.120574 C 39.437995 -41.147574 39.545515 -41.173535 39.660515 -41.205535 C 39.840515 -41.244535 40.014675 -41.310922 40.174675 -41.376922 C 40.310675 -41.433922 40.433449 -41.527734 40.517449 -41.634734 C 40.604449 -41.758734 40.646355 -41.902723 40.646355 -42.072722 C 40.646355 -42.242722 40.610773 -42.369316 40.524773 -42.506316 C 40.456773 -42.629316 40.330702 -42.735004 40.152703 -42.811004 C 39.985703 -42.895004 39.761155 -42.935515 39.467156 -42.935515 C 39.206156 -42.935515 38.947464 -42.880988 38.683464 -42.769988 C 38.467464 -42.667988 38.312671 -42.567652 38.195671 -42.450652 C 38.150671 -42.406652 38.091749 -42.384594 38.025749 -42.390594 C 37.960749 -42.397594 37.901659 -42.431836 37.883659 -42.463836 C 37.814659 -42.531836 37.813449 -42.643734 37.892448 -42.759734 C 38.030448 -42.910734 38.236261 -43.04775 38.525261 -43.17575 C 38.821261 -43.30275 39.133804 -43.364715 39.481804 -43.364715 C 39.882804 -43.364715 40.179035 -43.298285 40.368035 -43.174285 C 40.599034 -43.075285 40.788816 -42.909675 40.918816 -42.699676 C 41.039816 -42.502676 41.101921 -42.286074 41.101921 -42.058074 C 41.101921 -41.809074 41.045605 -41.593148 40.927605 -41.409148 C 40.793605 -41.223148 40.650757 -41.09764 40.483757 -41.01364 L 40.483757 -41.012176 C 40.311757 -40.927176 40.125652 -40.856308 39.925652 -40.798308 C 39.830652 -40.773308 39.737796 -40.749996 39.648796 -40.727996 C 39.542796 -40.701996 39.439995 -40.676965 39.327995 -40.645965 C 39.139996 -40.605965 38.9633 -40.536578 38.8153 -40.474578 C 38.6793 -40.417578 38.557132 -40.325906 38.468132 -40.210906 C 38.384132 -40.104906 38.34362 -39.962242 38.34362 -39.780242 C 38.34362 -39.617242 38.380808 -39.477972 38.460808 -39.353972 C 38.540808 -39.227972 38.656273 -39.130496 38.837273 -39.040496 C 39.001273 -38.958496 39.227172 -38.915984 39.508171 -38.915984 C 39.704171 -38.915984 39.894066 -38.947804 40.075066 -39.006804 C 40.240066 -39.058804 40.394675 -39.135574 40.549675 -39.245574 C 40.606675 -39.275574 40.668921 -39.281152 40.726921 -39.263152 C 40.781921 -39.244152 40.827828 -39.203894 40.855828 -39.148894 C 40.909827 -39.039894 40.88105 -38.915531 40.78405 -38.851531 C 40.63305 -38.754531 40.448339 -38.667324 40.230339 -38.589324 C 39.93634 -38.502699 39.658329 -38.467407 39.407097 -38.470671 z M 109.89538 -38.48825 C 109.60938 -38.48825 109.34241 -38.549961 109.12341 -38.666961 C 108.89141 -38.78996 108.71388 -38.957726 108.58288 -39.176726 C 108.44988 -39.383726 108.38513 -39.63677 108.38513 -39.945769 C 108.38513 -40.240769 108.44888 -40.490883 108.58288 -40.711883 C 108.74188 -40.958882 108.9162 -41.118394 109.1322 -41.211394 C 109.4082 -41.333394 109.65268 -41.387176 109.92468 -41.387176 C 110.18568 -41.387176 110.42361 -41.335578 110.67761 -41.224578 C 110.89261 -41.123578 111.07425 -40.968109 111.23425 -40.744109 C 111.23625 -40.743109 111.23664 -40.739785 111.23864 -40.736785 C 111.23964 -40.791785 111.24011 -40.844058 111.24011 -40.892058 C 111.24011 -41.548058 111.10223 -42.023649 110.81823 -42.346648 C 110.54223 -42.660648 110.18314 -42.812469 109.71814 -42.812469 C 109.54614 -42.812469 109.4138 -42.796199 109.2948 -42.761199 C 109.2028 -42.738199 109.09959 -42.712914 109.03259 -42.668914 C 108.93859 -42.604914 108.80444 -42.637269 108.72644 -42.758269 C 108.67444 -42.864269 108.71058 -42.988957 108.82458 -43.062957 C 108.95058 -43.124957 109.06898 -43.167723 109.20398 -43.197723 C 109.37598 -43.226722 109.54832 -43.240203 109.73132 -43.240203 C 110.13232 -43.240203 110.46971 -43.147882 110.75671 -42.961883 C 111.04871 -42.785883 111.29051 -42.506359 111.45251 -42.150359 C 111.61651 -41.77836 111.69567 -41.348394 111.69567 -40.836394 C 111.69567 -40.408395 111.62646 -39.989898 111.49646 -39.627898 C 111.37246 -39.283898 111.17494 -39.008542 110.89294 -38.788543 L 110.88855 -38.785613 C 110.61755 -38.590613 110.27338 -38.48825 109.89538 -38.48825 z M 34.072136 -38.501433 C 33.949136 -38.501433 33.837761 -38.614273 33.837761 -38.737273 L 33.837761 -43.087859 C 33.837761 -43.218859 33.940136 -43.323699 34.072136 -43.323699 C 34.197136 -43.323699 34.307976 -43.212859 34.307976 -43.087859 L 34.293327 -41.785613 L 35.487175 -41.785613 C 35.873175 -41.785613 36.204015 -41.721183 36.473015 -41.595183 C 36.745015 -41.465183 36.962011 -41.273894 37.119011 -41.023894 C 37.271011 -40.764895 37.341667 -40.483339 37.341667 -40.13034 C 37.325667 -39.78834 37.250898 -39.512222 37.102898 -39.260222 C 36.947898 -39.013223 36.731831 -38.821863 36.459831 -38.691863 C 36.184831 -38.561863 35.870526 -38.501433 35.472526 -38.501433 L 34.072136 -38.501433 z M 53.577996 -38.501433 C 53.453996 -38.501433 53.356805 -38.598625 53.356805 -38.722625 L 53.356805 -43.101043 C 53.356805 -43.179043 53.393949 -43.252008 53.454949 -43.290008 C 53.483949 -43.307008 53.516699 -43.316375 53.548699 -43.316375 C 53.565699 -43.316375 53.581969 -43.314051 53.599969 -43.309051 L 56.144403 -43.309051 C 56.268402 -43.309051 56.365594 -43.211859 56.365594 -43.087859 C 56.365594 -42.963859 56.268402 -42.866668 56.144403 -42.866668 L 53.812371 -42.866668 L 53.812371 -38.722625 C 53.812371 -38.598625 53.715996 -38.501433 53.577996 -38.501433 z M 68.346552 -38.501433 C 68.250552 -38.501433 68.162079 -38.565988 68.137079 -38.644988 L 66.213739 -43.013152 C 66.183739 -43.088152 66.191712 -43.172273 66.235712 -43.237273 C 66.278712 -43.300273 66.347677 -43.336883 66.424676 -43.336883 C 66.521676 -43.336883 66.609614 -43.273793 66.635614 -43.194793 L 67.152704 -41.990691 L 69.606317 -41.986297 L 70.132196 -43.177215 C 70.149196 -43.268215 70.234274 -43.336883 70.337274 -43.336883 C 70.414274 -43.336883 70.483239 -43.300273 70.526239 -43.237273 C 70.570239 -43.172273 70.580212 -43.090222 70.548212 -43.010222 L 68.627802 -38.650847 C 68.595802 -38.562847 68.509399 -38.501433 68.415399 -38.501433 L 68.346552 -38.501433 z M 97.432491 -38.514617 C 97.114491 -38.514617 96.821373 -38.56875 96.562373 -38.67575 C 96.340374 -38.76375 96.145225 -38.899187 95.985225 -39.074187 C 95.907225 -39.152187 95.900225 -39.266664 95.985225 -39.387664 C 96.072225 -39.473664 96.209561 -39.479734 96.304561 -39.384734 C 96.431561 -39.243734 96.567971 -39.146371 96.724971 -39.087371 C 96.936971 -39.001371 97.170307 -38.958464 97.419307 -38.958464 C 97.761307 -38.958464 98.00642 -39.031515 98.18542 -39.185515 C 98.35242 -39.341515 98.434444 -39.543609 98.434444 -39.806609 C 98.434444 -39.927609 98.418709 -40.023664 98.381709 -40.137664 C 98.358709 -40.239664 98.298647 -40.349015 98.217647 -40.498015 C 98.142647 -40.623015 98.011787 -40.780512 97.836787 -40.956511 L 96.040889 -42.862273 C 96.000889 -42.902273 95.976436 -42.962012 95.976436 -43.019012 L 95.976436 -43.254851 L 98.888545 -43.254851 C 99.012545 -43.254851 99.108272 -43.15766 99.108272 -43.03366 C 99.108272 -42.90966 99.012545 -42.812469 98.888545 -42.812469 L 96.729366 -42.799285 L 98.179561 -41.25534 C 98.358561 -41.07634 98.508409 -40.892882 98.623409 -40.711883 C 98.720408 -40.557883 98.797135 -40.395668 98.843135 -40.241668 C 98.884135 -40.104668 98.903194 -39.962425 98.903194 -39.793425 C 98.903194 -39.521426 98.841088 -39.291808 98.720088 -39.110808 C 98.601088 -38.915808 98.434604 -38.774496 98.198604 -38.665496 C 97.983604 -38.564496 97.73249 -38.514617 97.432491 -38.514617 z M 102.75866 -38.514617 C 102.44066 -38.514617 102.14755 -38.56975 101.88855 -38.67575 C 101.66655 -38.76475 101.4704 -38.900187 101.3114 -39.074187 C 101.2334 -39.151187 101.2274 -39.265664 101.3114 -39.387664 C 101.3984 -39.473664 101.53427 -39.479269 101.62927 -39.383269 C 101.75627 -39.243269 101.89414 -39.145906 102.05114 -39.085906 C 102.26314 -38.999906 102.49648 -38.958464 102.74548 -38.958464 C 103.08848 -38.958464 103.33359 -39.031515 103.51159 -39.185515 C 103.67859 -39.340515 103.75915 -39.542609 103.75915 -39.806609 C 103.75915 -39.927609 103.74442 -40.022664 103.70642 -40.137664 C 103.68442 -40.238664 103.62582 -40.347015 103.54382 -40.498015 C 103.46882 -40.623015 103.33749 -40.781976 103.16149 -40.957976 L 101.3656 -42.862273 C 101.3266 -42.902273 101.30261 -42.961012 101.30261 -43.019012 L 101.30261 -43.254851 L 104.21325 -43.254851 C 104.33725 -43.254851 104.43444 -43.15766 104.43444 -43.03366 C 104.43444 -42.90966 104.33725 -42.812469 104.21325 -42.812469 L 102.05554 -42.79782 L 103.50573 -41.25534 C 103.68273 -41.07834 103.83258 -40.895882 103.94958 -40.711883 C 104.04658 -40.560883 104.12231 -40.397668 104.16931 -40.241668 C 104.21031 -40.105668 104.22937 -39.959425 104.22937 -39.793425 C 104.22937 -39.522426 104.16726 -39.290808 104.04626 -39.110808 C 103.92526 -38.915808 103.76024 -38.773496 103.52624 -38.665496 C 103.30924 -38.564496 103.05766 -38.514617 102.75866 -38.514617 z M 42.228386 -38.516082 C 42.108306 -38.527987 42.018914 -38.627644 42.018914 -38.750457 L 42.018914 -43.101043 C 42.018914 -43.233043 42.121289 -43.336883 42.253289 -43.336883 C 42.385288 -43.336883 42.489128 -43.233043 42.489128 -43.101043 L 42.489128 -38.750457 C 42.489128 -38.627457 42.376288 -38.516082 42.253289 -38.516082 C 42.245039 -38.516082 42.236392 -38.515288 42.228386 -38.516082 z M 115.4823 -38.516082 L 115.453 -38.519011 C 115.338 -38.547011 115.26257 -38.640457 115.26257 -38.750457 L 115.26257 -39.614715 C 115.26257 -39.742714 115.3623 -39.850554 115.4823 -39.850554 C 115.6103 -39.850554 115.70349 -39.750714 115.70349 -39.614715 L 115.70349 -38.957 L 117.94909 -38.935027 L 116.21765 -42.917937 C 116.18765 -42.993937 116.19709 -43.077059 116.24109 -43.142058 C 116.28309 -43.204058 116.35305 -43.240203 116.43005 -43.240203 C 116.52505 -43.240203 116.58362 -43.179918 116.61462 -43.147918 L 118.48083 -38.869109 L 118.50427 -38.516082 L 115.4823 -38.516082 z M 86.917842 -38.529265 C 86.794842 -38.529265 86.684931 -38.642105 86.684931 -38.765105 L 86.684931 -43.019012 C 86.684931 -43.151011 86.786842 -43.254851 86.917842 -43.254851 C 87.040841 -43.254851 87.153681 -43.142011 87.153681 -43.019012 L 87.139033 -41.743133 L 88.305049 -41.743133 C 88.694048 -41.743133 89.008451 -41.681703 89.267451 -41.552703 C 89.558451 -41.406703 89.76994 -41.217992 89.892939 -40.998992 C 90.039939 -40.763992 90.118525 -40.465339 90.118525 -40.13034 C 90.103525 -39.78634 90.025756 -39.506871 89.879756 -39.274871 C 89.733756 -39.040871 89.527802 -38.85916 89.252803 -38.72116 L 89.252803 -38.719695 C 88.993803 -38.590695 88.679865 -38.529265 88.291865 -38.529265 L 86.917842 -38.529265 z M 93.877315 -38.529265 C 93.519315 -38.529265 93.207463 -38.631094 92.954463 -38.828093 C 92.689463 -39.019093 92.480299 -39.30152 92.336299 -39.664519 C 92.192299 -40.006519 92.119502 -40.423242 92.119502 -40.905242 C 92.119502 -41.373241 92.192299 -41.79143 92.336299 -42.147429 C 92.480299 -42.496429 92.687463 -42.775856 92.954463 -42.983855 C 93.229463 -43.180855 93.539315 -43.281219 93.877315 -43.281219 C 94.225314 -43.281219 94.54128 -43.180855 94.816279 -42.983855 C 95.082279 -42.791855 95.289444 -42.510429 95.434444 -42.147429 C 95.577443 -41.80543 95.649776 -41.387241 95.649776 -40.905242 C 95.649776 -40.437242 95.577443 -40.021519 95.434444 -39.664519 C 95.289444 -39.31552 95.083209 -39.035023 94.819209 -38.831023 L 94.816279 -38.828093 C 94.54228 -38.630094 94.225314 -38.529265 93.877315 -38.529265 z M 107.0697 -38.529265 C 106.9927 -38.529265 106.92224 -38.571621 106.90124 -38.618621 L 104.60583 -41.571746 C 104.55583 -41.622746 104.55603 -41.690301 104.55603 -41.715301 L 104.55603 -41.962859 L 106.99939 -41.962859 L 106.99939 -43.03366 C 106.99939 -43.15766 107.0953 -43.254851 107.2323 -43.254851 C 107.3563 -43.254851 107.45495 -43.15766 107.45495 -43.03366 L 107.45495 -41.962859 L 108.16687 -41.962859 C 108.29087 -41.962859 108.38766 -41.867836 108.38366 -41.713836 C 108.35666 -41.602836 108.26587 -41.520476 108.16687 -41.520476 L 107.45495 -41.520476 L 107.45495 -40.603484 C 107.45495 -40.479484 107.35758 -40.382293 107.22058 -40.382293 C 107.09658 -40.382293 106.99939 -40.479484 106.99939 -40.603484 L 106.99939 -41.520476 L 105.20349 -41.520476 L 107.51648 -38.529265 L 107.0697 -38.529265 z M 79.826533 -38.53073 C 79.521283 -38.535105 79.22231 -38.595047 78.96081 -38.705046 C 78.64781 -38.846046 78.412993 -39.008418 78.223993 -39.210418 C 78.007994 -39.426417 77.846876 -39.673277 77.728876 -39.966277 C 77.611876 -40.258277 77.556025 -40.565242 77.556025 -40.905242 C 77.556025 -41.240242 77.613876 -41.555207 77.728876 -41.844207 C 77.835876 -42.110207 77.996994 -42.357066 78.223993 -42.600066 C 78.448993 -42.825066 78.699205 -42.995902 78.965204 -43.106902 C 79.241204 -43.222902 79.547802 -43.281219 79.877802 -43.281219 C 80.149802 -43.281219 80.431849 -43.234269 80.750849 -43.133269 C 80.983849 -43.031269 81.188732 -42.898648 81.380732 -42.721648 C 81.469732 -42.631648 81.469267 -42.499172 81.379267 -42.408172 C 81.290267 -42.322172 81.15579 -42.320172 81.065791 -42.408172 L 81.065791 -42.409637 C 80.916791 -42.558636 80.741419 -42.672762 80.560419 -42.737762 C 80.35342 -42.814761 80.133986 -42.853484 79.890986 -42.853484 C 79.596986 -42.853484 79.36031 -42.808324 79.14831 -42.714324 C 78.89731 -42.596324 78.704118 -42.461773 78.552118 -42.299773 C 78.378119 -42.125773 78.248146 -41.925539 78.155146 -41.684539 C 78.060146 -41.440539 78.011591 -41.18289 78.011591 -40.91989 C 78.011591 -40.655891 78.060216 -40.397636 78.152216 -40.159636 C 78.263216 -39.912637 78.394048 -39.708613 78.555048 -39.535613 C 78.715048 -39.362613 78.902521 -39.233386 79.139521 -39.128386 C 79.61752 -38.943387 80.139885 -38.942019 80.561884 -39.102019 C 80.738884 -39.165019 80.905677 -39.268453 81.049677 -39.396453 C 81.082677 -39.445453 81.133302 -39.476414 81.190302 -39.481414 C 81.253302 -39.493414 81.317084 -39.463496 81.366083 -39.415496 C 81.456083 -39.325496 81.456083 -39.190554 81.366083 -39.100554 C 81.182084 -38.917555 80.960806 -38.773933 80.731806 -38.688933 C 80.443306 -38.577433 80.131782 -38.526355 79.826533 -38.53073 z M 112.68298 -38.542449 C 112.57898 -38.542449 112.49579 -38.628273 112.46179 -38.737273 L 112.25671 -40.659148 C 112.25671 -40.786148 112.3579 -40.893523 112.4779 -40.893523 L 113.20446 -40.893523 C 113.59046 -40.893523 113.90792 -40.933246 114.12292 -41.009246 C 114.32992 -41.083246 114.47112 -41.186652 114.55212 -41.325652 C 114.63912 -41.474652 114.68542 -41.661531 114.68542 -41.851531 C 114.68542 -42.140531 114.59828 -42.368332 114.42028 -42.547332 C 114.24328 -42.723332 113.95907 -42.812469 113.57507 -42.812469 C 113.28807 -42.812469 113.03328 -42.76066 112.81628 -42.65866 C 112.59428 -42.56066 112.43077 -42.438125 112.31677 -42.285125 L 112.22009 -42.157683 L 112.04284 -42.37448 C 111.98284 -42.46548 111.98956 -42.584871 112.05456 -42.649871 C 112.20756 -42.817871 112.41682 -42.965887 112.64782 -43.065887 C 112.94582 -43.190886 113.25489 -43.254851 113.56189 -43.254851 C 113.90289 -43.254851 114.18607 -43.195675 114.42907 -43.074676 C 114.65107 -42.957676 114.83581 -42.77905 114.96081 -42.559051 C 115.08081 -42.349051 115.14099 -42.107488 115.14099 -41.832488 C 115.12499 -41.553488 115.06216 -41.320109 114.94616 -41.119109 C 114.82616 -40.908109 114.62272 -40.737273 114.33972 -40.612273 C 114.07872 -40.496273 113.71048 -40.436492 113.24548 -40.436492 L 112.72839 -40.436492 L 112.88513 -38.984832 L 114.70007 -38.984832 C 114.82407 -38.984832 114.92273 -38.88764 114.92273 -38.76364 C 114.92273 -38.63964 114.82407 -38.542449 114.70007 -38.542449 L 112.68298 -38.542449 z M 82.567255 -38.543914 C 82.444256 -38.543914 82.33288 -38.655289 82.33288 -38.778289 L 82.33288 -43.03366 C 82.33288 -43.16566 82.435256 -43.268035 82.567255 -43.268035 C 82.690255 -43.268035 82.80163 -43.15666 82.80163 -43.03366 L 82.786982 -41.757781 L 83.954463 -41.757781 C 84.099462 -41.757781 84.24683 -41.743879 84.35583 -41.732879 L 85.324091 -43.143523 C 85.362091 -43.219523 85.451916 -43.254851 85.518916 -43.254851 L 85.920283 -43.254851 L 84.789424 -41.609832 C 84.806423 -41.603832 84.821299 -41.597789 84.836299 -41.590789 C 84.851298 -41.585789 84.866217 -41.579886 84.902216 -41.565886 C 85.194216 -41.418887 85.40617 -41.23264 85.52917 -41.01364 C 85.676169 -40.778641 85.753291 -40.479847 85.753291 -40.150847 C 85.753291 -39.811848 85.680169 -39.530054 85.52917 -39.288054 C 85.38317 -39.053055 85.177216 -38.873343 84.902216 -38.734343 C 84.643217 -38.605343 84.327814 -38.543914 83.939814 -38.543914 L 82.567255 -38.543914 z M 93.877315 -38.943816 C 94.136314 -38.943816 94.359467 -39.016472 94.558467 -39.166472 C 94.746467 -39.307472 94.903287 -39.529652 95.024287 -39.825652 C 95.139287 -40.117652 95.194209 -40.466594 95.194209 -40.890593 C 95.194209 -41.313593 95.136287 -41.667352 95.024287 -41.942351 L 95.024287 -41.943816 C 94.909287 -42.238816 94.756467 -42.455461 94.558467 -42.604461 C 94.359467 -42.754461 94.136314 -42.825652 93.877315 -42.825652 C 93.619315 -42.825652 93.396627 -42.754461 93.197627 -42.604461 C 92.998627 -42.454461 92.845342 -42.238351 92.730342 -41.942351 C 92.618342 -41.667352 92.561885 -41.313593 92.561885 -40.890593 C 92.561885 -40.460594 92.615807 -40.121652 92.731807 -39.825652 C 92.845807 -39.530652 92.998627 -39.316472 93.197627 -39.166472 C 93.396627 -39.016472 93.619315 -38.943816 93.877315 -38.943816 z M 109.89538 -38.943816 C 110.16038 -38.943816 110.3747 -38.992765 110.5487 -39.091765 C 110.7207 -39.189765 110.84063 -39.31023 110.92663 -39.46823 C 111.02063 -39.64323 111.0614 -39.785121 111.0614 -39.931121 C 111.0614 -40.117121 111.01763 -40.288465 110.92663 -40.458465 C 110.82363 -40.625464 110.70138 -40.741746 110.54138 -40.821746 C 110.35838 -40.912746 110.1544 -40.957976 109.9364 -40.957976 C 109.6014 -40.957976 109.32973 -40.863726 109.13073 -40.676726 C 108.93573 -40.492726 108.84069 -40.254769 108.84069 -39.945769 C 108.84069 -39.752769 108.88946 -39.56496 108.97546 -39.416961 C 109.06346 -39.265961 109.18574 -39.148863 109.33874 -39.066863 C 109.49074 -38.983863 109.67238 -38.943816 109.89538 -38.943816 z M 50.077019 -38.957 C 50.376019 -38.957 50.623668 -39.003554 50.841668 -39.100554 C 51.066668 -39.188554 51.273789 -39.327781 51.440789 -39.507781 C 51.626789 -39.707781 51.757691 -39.914594 51.840691 -40.140593 C 51.933691 -40.379593 51.984246 -40.654074 51.984246 -40.933074 C 51.984246 -41.205074 51.936691 -41.46502 51.840691 -41.727019 C 51.757691 -41.950019 51.626789 -42.157367 51.440789 -42.358367 C 51.288789 -42.521367 51.097132 -42.653059 50.843133 -42.767058 C 50.367133 -42.950058 49.817019 -42.957058 49.327019 -42.767058 C 49.09802 -42.677059 48.895898 -42.538367 48.727898 -42.358367 C 48.540898 -42.157367 48.409531 -41.950554 48.326531 -41.725554 C 48.233531 -41.485555 48.184441 -41.210074 48.184441 -40.933074 C 48.184441 -40.661074 48.230996 -40.402128 48.327996 -40.139129 C 48.409996 -39.915129 48.540898 -39.707781 48.727898 -39.507781 C 48.878898 -39.344781 49.07702 -39.210554 49.327019 -39.100554 C 49.572019 -39.004554 49.81802 -38.957 50.077019 -38.957 z M 58.807489 -38.957 C 59.072488 -38.957 59.329137 -39.005554 59.572137 -39.100554 C 59.797137 -39.188554 60.004258 -39.327781 60.171258 -39.507781 C 60.358258 -39.707781 60.487161 -39.914594 60.571161 -40.140593 C 60.66416 -40.379593 60.71325 -40.654074 60.71325 -40.933074 C 60.71325 -41.205074 60.66716 -41.46502 60.571161 -41.727019 C 60.489161 -41.951019 60.358258 -42.157367 60.171258 -42.358367 C 60.019258 -42.521367 59.827137 -42.653059 59.572137 -42.767058 C 59.091138 -42.954058 58.554023 -42.958058 58.056024 -42.767058 C 57.826024 -42.677059 57.626367 -42.538367 57.458367 -42.358367 C 57.271368 -42.157367 57.139 -41.951554 57.057 -41.725554 C 56.963 -41.485555 56.91491 -41.210074 56.91491 -40.933074 C 56.91491 -40.661074 56.961 -40.402128 57.057 -40.139129 C 57.14 -39.915129 57.271368 -39.707781 57.458367 -39.507781 C 57.609367 -39.344781 57.806024 -39.211554 58.056024 -39.100554 C 58.302023 -39.004554 58.547489 -38.957 58.807489 -38.957 z M 34.278679 -38.958464 L 35.487175 -38.958464 C 35.954174 -38.958464 36.295144 -39.059476 36.530144 -39.270476 C 36.763143 -39.478476 36.871452 -39.757848 36.871452 -40.150847 C 36.871452 -40.519847 36.755214 -40.815684 36.527214 -41.032683 C 36.293214 -41.241683 35.953174 -41.34323 35.487175 -41.34323 L 34.293327 -41.357879 L 34.278679 -38.958464 z M 82.773798 -38.971648 L 83.954463 -38.971648 C 84.399462 -38.971648 84.730135 -39.070476 84.968134 -39.270476 C 85.196134 -39.471476 85.312373 -39.757016 85.312373 -40.123015 C 85.312373 -40.503015 85.199134 -40.781555 84.968134 -40.975554 C 84.738135 -41.179554 84.388462 -41.289031 83.954463 -41.289031 L 82.788447 -41.289031 L 82.773798 -38.971648 z M 87.111201 -38.971648 L 88.291865 -38.971648 C 88.735865 -38.971648 89.069002 -39.070476 89.307002 -39.270476 C 89.534002 -39.471476 89.64831 -39.758016 89.64831 -40.123015 C 89.64831 -40.513015 89.537466 -40.795738 89.308467 -40.988738 L 89.307002 -40.990203 C 89.077002 -41.194203 88.726865 -41.302215 88.291865 -41.302215 L 87.125849 -41.316863 L 87.111201 -38.971648 z M 68.387567 -39.198699 L 69.423212 -41.549773 L 67.350458 -41.573211 L 68.387567 -39.198699 z M 73.864618 -40.054168 C 73.402619 -40.054168 73.028192 -40.448074 73.028192 -40.933074 C 73.028192 -41.419073 73.402619 -41.81198 73.864618 -41.81198 C 74.326618 -41.81198 74.702509 -41.419073 74.702509 -40.933074 C 74.702509 -40.448074 74.326618 -40.054168 73.864618 -40.054168 z M 14.012564 -40.143523 C 13.054566 -40.143523 12.276725 -40.919363 12.276725 -41.879363 C 12.276725 -42.837362 13.054566 -43.615203 14.012564 -43.615203 L 25.792838 -43.615203 C 26.75084 -43.615203 27.528678 -42.837362 27.528678 -41.879363 C 27.528678 -40.919363 26.75084 -40.143523 25.792838 -40.143523 L 14.012564 -40.143523 z M 82.788447 -41.303679 L 82.800166 -41.315398 L 82.788447 -41.316863 L 82.788447 -41.303679 z "
       transform="matrix(0.35277776,0,0,-0.35277776,-41.780928,39.711029)" />
  </g>
</svg>
