<?xml version="1.0" encoding="UTF-8" standalone="no"?>
<!-- Created with Inkscape (http://www.inkscape.org/) -->

<svg
   width="43.071659mm"
   height="23.794542mm"
   viewBox="0 0 43.071659 23.794542"
   version="1.1"
   id="svg1"
   inkscape:version="1.3.2 (091e20e, 2023-11-25, custom)"
   sodipodi:docname="logo.svg"
   xmlns:inkscape="http://www.inkscape.org/namespaces/inkscape"
   xmlns:sodipodi="http://sodipodi.sourceforge.net/DTD/sodipodi-0.dtd"
   xmlns="http://www.w3.org/2000/svg"
   xmlns:svg="http://www.w3.org/2000/svg">
  <sodipodi:namedview
     id="namedview1"
     pagecolor="#ffffff"
     bordercolor="#000000"
     borderopacity="0.25"
     inkscape:showpageshadow="2"
     inkscape:pageopacity="0.0"
     inkscape:pagecheckerboard="0"
     inkscape:deskcolor="#d1d1d1"
     inkscape:document-units="mm"
     inkscape:zoom="2.768771"
     inkscape:cx="108.53191"
     inkscape:cy="40.270574"
     inkscape:window-width="1920"
     inkscape:window-height="991"
     inkscape:window-x="-9"
     inkscape:window-y="-9"
     inkscape:window-maximized="1"
     inkscape:current-layer="layer1" />
  <defs
     id="defs1">
    <clipPath
       clipPathUnits="userSpaceOnUse"
       id="clipPath7">
      <path
         d="M 0,153.071 H 272.126 V 0 H 0 Z"
         transform="translate(-78.591802,-86.482702)"
         id="path7" />
    </clipPath>
    <linearGradient
       x1="0"
       y1="0"
       x2="1"
       y2="0"
       gradientUnits="userSpaceOnUse"
       gradientTransform="matrix(5.3463903,0.60560353,-0.60560353,5.3463903,-37.419851,52.049801)"
       spreadMethod="pad"
       id="linearGradient9">
      <stop
         style="stop-opacity:1;stop-color:#f5d262 icc-color(Coated-FOGRA39-ISO-12647-2:2004, 0.05596924, 0.16778564, 0.7016449, 0.00149536);"
         offset="0"
         id="stop7" />
      <stop
         style="stop-opacity:1;stop-color:#f5d262 icc-color(Coated-FOGRA39-ISO-12647-2:2004, 0.05596924, 0.16778564, 0.7016449, 0.00149536);"
         offset="0.00000001"
         id="stop8" />
      <stop
         style="stop-opacity:1;stop-color:#b08c31 icc-color(Coated-FOGRA39-ISO-12647-2:2004, 0.12268066, 0.30999756, 0.82810974, 0.29998779);"
         offset="1"
         id="stop9" />
    </linearGradient>
    <linearGradient
       x1="0"
       y1="0"
       x2="1"
       y2="0"
       gradientUnits="userSpaceOnUse"
       gradientTransform="matrix(5.3805802,0,0,5.3805802,-37.450012,54.485058)"
       spreadMethod="pad"
       id="linearGradient12">
      <stop
         style="stop-opacity:1;stop-color:#f5d262 icc-color(Coated-FOGRA39-ISO-12647-2:2004, 0.05596924, 0.16778564, 0.7016449, 0.00149536);"
         offset="0"
         id="stop10" />
      <stop
         style="stop-opacity:1;stop-color:#f5d262 icc-color(Coated-FOGRA39-ISO-12647-2:2004, 0.05596924, 0.16778564, 0.7016449, 0.00149536);"
         offset="0.00000001"
         id="stop11" />
      <stop
         style="stop-opacity:1;stop-color:#b08c31 icc-color(Coated-FOGRA39-ISO-12647-2:2004, 0.12268066, 0.30999756, 0.82810974, 0.29998779);"
         offset="1"
         id="stop12" />
    </linearGradient>
    <linearGradient
       x1="0"
       y1="0"
       x2="1"
       y2="0"
       gradientUnits="userSpaceOnUse"
       gradientTransform="matrix(10.129776,6.7923378,-6.7923378,10.129776,-39.945908,37.780099)"
       spreadMethod="pad"
       id="linearGradient15">
      <stop
         style="stop-opacity:1;stop-color:#f5d262 icc-color(Coated-FOGRA39-ISO-12647-2:2004, 0.05596924, 0.16778564, 0.7016449, 0.00149536);"
         offset="0"
         id="stop13" />
      <stop
         style="stop-opacity:1;stop-color:#f5d262 icc-color(Coated-FOGRA39-ISO-12647-2:2004, 0.05596924, 0.16778564, 0.7016449, 0.00149536);"
         offset="0.00000001"
         id="stop14" />
      <stop
         style="stop-opacity:1;stop-color:#b08c31 icc-color(Coated-FOGRA39-ISO-12647-2:2004, 0.12268066, 0.30999756, 0.82810974, 0.29998779);"
         offset="1"
         id="stop15" />
    </linearGradient>
    <linearGradient
       x1="0"
       y1="0"
       x2="1"
       y2="0"
       gradientUnits="userSpaceOnUse"
       gradientTransform="matrix(10.170553,6.6330047,-6.6330047,10.170553,-38.277249,35.390113)"
       spreadMethod="pad"
       id="linearGradient18">
      <stop
         style="stop-opacity:1;stop-color:#f5d262 icc-color(Coated-FOGRA39-ISO-12647-2:2004, 0.05596924, 0.16778564, 0.7016449, 0.00149536);"
         offset="0"
         id="stop16" />
      <stop
         style="stop-opacity:1;stop-color:#f5d262 icc-color(Coated-FOGRA39-ISO-12647-2:2004, 0.05596924, 0.16778564, 0.7016449, 0.00149536);"
         offset="0.00000001"
         id="stop17" />
      <stop
         style="stop-opacity:1;stop-color:#b08c31 icc-color(Coated-FOGRA39-ISO-12647-2:2004, 0.12268066, 0.30999756, 0.82810974, 0.29998779);"
         offset="1"
         id="stop18" />
    </linearGradient>
    <linearGradient
       x1="0"
       y1="0"
       x2="1"
       y2="0"
       gradientUnits="userSpaceOnUse"
       gradientTransform="matrix(29.917754,0,0,29.917754,-29.757603,49.919193)"
       spreadMethod="pad"
       id="linearGradient21">
      <stop
         style="stop-opacity:1;stop-color:#f5d262 icc-color(Coated-FOGRA39-ISO-12647-2:2004, 0.05596924, 0.16778564, 0.7016449, 0.00149536);"
         offset="0"
         id="stop19" />
      <stop
         style="stop-opacity:1;stop-color:#f5d262 icc-color(Coated-FOGRA39-ISO-12647-2:2004, 0.05596924, 0.16778564, 0.7016449, 0.00149536);"
         offset="0.00000001"
         id="stop20" />
      <stop
         style="stop-opacity:1;stop-color:#b08c31 icc-color(Coated-FOGRA39-ISO-12647-2:2004, 0.12268066, 0.30999756, 0.82810974, 0.29998779);"
         offset="1"
         id="stop21" />
    </linearGradient>
    <linearGradient
       x1="0"
       y1="0"
       x2="1"
       y2="0"
       gradientUnits="userSpaceOnUse"
       gradientTransform="matrix(29.551479,0,0,29.551479,-29.68437,49.948172)"
       spreadMethod="pad"
       id="linearGradient24">
      <stop
         style="stop-opacity:1;stop-color:#f5d262 icc-color(Coated-FOGRA39-ISO-12647-2:2004, 0.05596924, 0.16778564, 0.7016449, 0.00149536);"
         offset="0"
         id="stop22" />
      <stop
         style="stop-opacity:1;stop-color:#f5d262 icc-color(Coated-FOGRA39-ISO-12647-2:2004, 0.05596924, 0.16778564, 0.7016449, 0.00149536);"
         offset="0.00000001"
         id="stop23" />
      <stop
         style="stop-opacity:1;stop-color:#b08c31 icc-color(Coated-FOGRA39-ISO-12647-2:2004, 0.12268066, 0.30999756, 0.82810974, 0.29998779);"
         offset="1"
         id="stop24" />
    </linearGradient>
    <linearGradient
       x1="0"
       y1="0"
       x2="1"
       y2="0"
       gradientUnits="userSpaceOnUse"
       gradientTransform="matrix(29.517528,0,0,29.517528,-29.769008,49.919128)"
       spreadMethod="pad"
       id="linearGradient27">
      <stop
         style="stop-opacity:1;stop-color:#f5d262 icc-color(Coated-FOGRA39-ISO-12647-2:2004, 0.05596924, 0.16778564, 0.7016449, 0.00149536);"
         offset="0"
         id="stop25" />
      <stop
         style="stop-opacity:1;stop-color:#f5d262 icc-color(Coated-FOGRA39-ISO-12647-2:2004, 0.05596924, 0.16778564, 0.7016449, 0.00149536);"
         offset="0.00000001"
         id="stop26" />
      <stop
         style="stop-opacity:1;stop-color:#b08c31 icc-color(Coated-FOGRA39-ISO-12647-2:2004, 0.12268066, 0.30999756, 0.82810974, 0.29998779);"
         offset="1"
         id="stop27" />
    </linearGradient>
    <linearGradient
       x1="0"
       y1="0"
       x2="1"
       y2="0"
       gradientUnits="userSpaceOnUse"
       gradientTransform="matrix(29.906888,0,0,29.906888,-29.854469,49.919108)"
       spreadMethod="pad"
       id="linearGradient30">
      <stop
         style="stop-opacity:1;stop-color:#f5d262 icc-color(Coated-FOGRA39-ISO-12647-2:2004, 0.05596924, 0.16778564, 0.7016449, 0.00149536);"
         offset="0"
         id="stop28" />
      <stop
         style="stop-opacity:1;stop-color:#f5d262 icc-color(Coated-FOGRA39-ISO-12647-2:2004, 0.05596924, 0.16778564, 0.7016449, 0.00149536);"
         offset="0.00000001"
         id="stop29" />
      <stop
         style="stop-opacity:1;stop-color:#b08c31 icc-color(Coated-FOGRA39-ISO-12647-2:2004, 0.12268066, 0.30999756, 0.82810974, 0.29998779);"
         offset="1"
         id="stop30" />
    </linearGradient>
    <linearGradient
       x1="0"
       y1="0"
       x2="1"
       y2="0"
       gradientUnits="userSpaceOnUse"
       gradientTransform="matrix(29.796667,0,0,29.796667,-29.750812,49.919108)"
       spreadMethod="pad"
       id="linearGradient33">
      <stop
         style="stop-opacity:1;stop-color:#f5d262 icc-color(Coated-FOGRA39-ISO-12647-2:2004, 0.05596924, 0.16778564, 0.7016449, 0.00149536);"
         offset="0"
         id="stop31" />
      <stop
         style="stop-opacity:1;stop-color:#f5d262 icc-color(Coated-FOGRA39-ISO-12647-2:2004, 0.05596924, 0.16778564, 0.7016449, 0.00149536);"
         offset="0.00000001"
         id="stop32" />
      <stop
         style="stop-opacity:1;stop-color:#b08c31 icc-color(Coated-FOGRA39-ISO-12647-2:2004, 0.12268066, 0.30999756, 0.82810974, 0.29998779);"
         offset="1"
         id="stop33" />
    </linearGradient>
    <linearGradient
       x1="0"
       y1="0"
       x2="1"
       y2="0"
       gradientUnits="userSpaceOnUse"
       gradientTransform="matrix(29.589525,0,0,29.589525,-29.720417,49.919108)"
       spreadMethod="pad"
       id="linearGradient36">
      <stop
         style="stop-opacity:1;stop-color:#f5d262 icc-color(Coated-FOGRA39-ISO-12647-2:2004, 0.05596924, 0.16778564, 0.7016449, 0.00149536);"
         offset="0"
         id="stop34" />
      <stop
         style="stop-opacity:1;stop-color:#f5d262 icc-color(Coated-FOGRA39-ISO-12647-2:2004, 0.05596924, 0.16778564, 0.7016449, 0.00149536);"
         offset="0.00000001"
         id="stop35" />
      <stop
         style="stop-opacity:1;stop-color:#b08c31 icc-color(Coated-FOGRA39-ISO-12647-2:2004, 0.12268066, 0.30999756, 0.82810974, 0.29998779);"
         offset="1"
         id="stop36" />
    </linearGradient>
    <linearGradient
       x1="0"
       y1="0"
       x2="1"
       y2="0"
       gradientUnits="userSpaceOnUse"
       gradientTransform="matrix(29.783427,0,0,29.783427,-29.823728,49.919108)"
       spreadMethod="pad"
       id="linearGradient39">
      <stop
         style="stop-opacity:1;stop-color:#f5d262 icc-color(Coated-FOGRA39-ISO-12647-2:2004, 0.05596924, 0.16778564, 0.7016449, 0.00149536);"
         offset="0"
         id="stop37" />
      <stop
         style="stop-opacity:1;stop-color:#f5d262 icc-color(Coated-FOGRA39-ISO-12647-2:2004, 0.05596924, 0.16778564, 0.7016449, 0.00149536);"
         offset="0.00000001"
         id="stop38" />
      <stop
         style="stop-opacity:1;stop-color:#b08c31 icc-color(Coated-FOGRA39-ISO-12647-2:2004, 0.12268066, 0.30999756, 0.82810974, 0.29998779);"
         offset="1"
         id="stop39" />
    </linearGradient>
    <linearGradient
       x1="0"
       y1="0"
       x2="1"
       y2="0"
       gradientUnits="userSpaceOnUse"
       gradientTransform="matrix(31.496854,0,0,31.496854,-29.932831,49.921537)"
       spreadMethod="pad"
       id="linearGradient43">
      <stop
         style="stop-opacity:1;stop-color:#f5d262 icc-color(Coated-FOGRA39-ISO-12647-2:2004, 0.05596924, 0.16778564, 0.7016449, 0.00149536);"
         offset="0"
         id="stop40" />
      <stop
         style="stop-opacity:1;stop-color:#f5d262 icc-color(Coated-FOGRA39-ISO-12647-2:2004, 0.05596924, 0.16778564, 0.7016449, 0.00149536);"
         offset="0.00000001"
         id="stop41" />
      <stop
         style="stop-opacity:1;stop-color:#b08c31 icc-color(Coated-FOGRA39-ISO-12647-2:2004, 0.12268066, 0.30999756, 0.82810974, 0.29998779);"
         offset="0.94829"
         id="stop42" />
      <stop
         style="stop-opacity:1;stop-color:#b08c31 icc-color(Coated-FOGRA39-ISO-12647-2:2004, 0.12268066, 0.30999756, 0.82810974, 0.29998779);"
         offset="1"
         id="stop43" />
    </linearGradient>
    <linearGradient
       x1="0"
       y1="0"
       x2="1"
       y2="0"
       gradientUnits="userSpaceOnUse"
       gradientTransform="matrix(29.858178,0,0,29.858178,-29.809222,49.919108)"
       spreadMethod="pad"
       id="linearGradient46">
      <stop
         style="stop-opacity:1;stop-color:#f5d262 icc-color(Coated-FOGRA39-ISO-12647-2:2004, 0.05596924, 0.16778564, 0.7016449, 0.00149536);"
         offset="0"
         id="stop44" />
      <stop
         style="stop-opacity:1;stop-color:#f5d262 icc-color(Coated-FOGRA39-ISO-12647-2:2004, 0.05596924, 0.16778564, 0.7016449, 0.00149536);"
         offset="0.00000001"
         id="stop45" />
      <stop
         style="stop-opacity:1;stop-color:#b08c31 icc-color(Coated-FOGRA39-ISO-12647-2:2004, 0.12268066, 0.30999756, 0.82810974, 0.29998779);"
         offset="1"
         id="stop46" />
    </linearGradient>
    <clipPath
       clipPathUnits="userSpaceOnUse"
       id="clipPath48">
      <path
         d="M 0,153.071 H 272.126 V 0 H 0 Z"
         transform="translate(-115.4634,-46.331604)"
         id="path48" />
    </clipPath>
    <clipPath
       clipPathUnits="userSpaceOnUse"
       id="clipPath50">
      <path
         d="M 0,153.071 H 272.126 V 0 H 0 Z"
         transform="translate(-119.0762,-45.469299)"
         id="path50" />
    </clipPath>
    <clipPath
       clipPathUnits="userSpaceOnUse"
       id="clipPath52">
      <path
         d="M 0,153.071 H 272.126 V 0 H 0 Z"
         transform="translate(-120.84521,-47.967301)"
         id="path52" />
    </clipPath>
    <clipPath
       clipPathUnits="userSpaceOnUse"
       id="clipPath54">
      <path
         d="M 0,153.071 H 272.126 V 0 H 0 Z"
         transform="translate(-125.5635,-44.007399)"
         id="path54" />
    </clipPath>
    <clipPath
       clipPathUnits="userSpaceOnUse"
       id="clipPath56">
      <path
         d="M 0,153.071 H 272.126 V 0 H 0 Z"
         transform="translate(-128.5869,-48.226299)"
         id="path56" />
    </clipPath>
    <clipPath
       clipPathUnits="userSpaceOnUse"
       id="clipPath58">
      <path
         d="M 0,153.071 H 272.126 V 0 H 0 Z"
         transform="translate(-127.919,-43.716301)"
         id="path58" />
    </clipPath>
    <clipPath
       clipPathUnits="userSpaceOnUse"
       id="clipPath60">
      <path
         d="M 0,153.071 H 272.126 V 0 H 0 Z"
         transform="translate(-134.73641,-43.615801)"
         id="path60" />
    </clipPath>
    <clipPath
       clipPathUnits="userSpaceOnUse"
       id="clipPath62">
      <path
         d="M 0,153.071 H 272.126 V 0 H 0 Z"
         transform="translate(-136.6485,-43.716301)"
         id="path62" />
    </clipPath>
    <clipPath
       clipPathUnits="userSpaceOnUse"
       id="clipPath64">
      <path
         d="M 0,153.071 H 272.126 V 0 H 0 Z"
         transform="translate(-144.0567,-45.647004)"
         id="path64" />
    </clipPath>
    <clipPath
       clipPathUnits="userSpaceOnUse"
       id="clipPath66">
      <path
         d="M 0,153.071 H 272.126 V 0 H 0 Z"
         transform="translate(-148.01471,-44.933101)"
         id="path66" />
    </clipPath>
    <clipPath
       clipPathUnits="userSpaceOnUse"
       id="clipPath68">
      <path
         d="M 0,153.071 H 272.126 V 0 H 0 Z"
         transform="translate(-159.6573,-44.073804)"
         id="path68" />
    </clipPath>
    <clipPath
       clipPathUnits="userSpaceOnUse"
       id="clipPath70">
      <path
         d="M 0,153.071 H 272.126 V 0 H 0 Z"
         transform="translate(-161.39261,-45.167499)"
         id="path70" />
    </clipPath>
    <clipPath
       clipPathUnits="userSpaceOnUse"
       id="clipPath72">
      <path
         d="M 0,153.071 H 272.126 V 0 H 0 Z"
         transform="translate(-166.8833,-47.511301)"
         id="path72" />
    </clipPath>
    <clipPath
       clipPathUnits="userSpaceOnUse"
       id="clipPath74">
      <path
         d="M 0,153.071 H 272.126 V 0 H 0 Z"
         transform="translate(-172.46981,-43.656804)"
         id="path74" />
    </clipPath>
    <clipPath
       clipPathUnits="userSpaceOnUse"
       id="clipPath76">
      <path
         d="M 0,153.071 H 272.126 V 0 H 0 Z"
         transform="translate(-177.7007,-43.449699)"
         id="path76" />
    </clipPath>
    <clipPath
       clipPathUnits="userSpaceOnUse"
       id="clipPath78">
      <path
         d="M 0,153.071 H 272.126 V 0 H 0 Z"
         transform="translate(-179.96441,-48.872604)"
         id="path78" />
    </clipPath>
    <clipPath
       clipPathUnits="userSpaceOnUse"
       id="clipPath80">
      <path
         d="M 0,153.071 H 272.126 V 0 H 0 Z"
         transform="translate(-182.80571,-43.670401)"
         id="path80" />
    </clipPath>
    <clipPath
       clipPathUnits="userSpaceOnUse"
       id="clipPath82">
      <path
         d="M 0,153.071 H 272.126 V 0 H 0 Z"
         transform="translate(-186.75881,-44.961504)"
         id="path82" />
    </clipPath>
    <clipPath
       clipPathUnits="userSpaceOnUse"
       id="clipPath84">
      <path
         d="M 0,153.071 H 272.126 V 0 H 0 Z"
         transform="translate(-189.65381,-46.551301)"
         id="path84" />
    </clipPath>
    <clipPath
       clipPathUnits="userSpaceOnUse"
       id="clipPath86">
      <path
         d="M 0,153.071 H 272.126 V 0 H 0 Z"
         transform="translate(-192.9312,-45.869701)"
         id="path86" />
    </clipPath>
    <clipPath
       clipPathUnits="userSpaceOnUse"
       id="clipPath88">
      <path
         d="M 0,153.071 H 272.126 V 0 H 0 Z"
         transform="translate(-194.0747,-47.967301)"
         id="path88" />
    </clipPath>
    <clipPath
       clipPathUnits="userSpaceOnUse"
       id="clipPath90">
      <path
         d="M 0,153.071 H 272.126 V 0 H 0 Z"
         transform="translate(-152.45681,-46.428204)"
         id="path90" />
    </clipPath>
  </defs>
  <g
     inkscape:label="Camada 1"
     inkscape:groupmode="layer"
     id="layer1"
     transform="translate(43.047047,-31.398174)">
    <path
       id="path6"
       d="m 0,0 c 0,11.018 8.964,19.982 19.982,19.982 11.017,0 19.981,-8.964 19.981,-19.982 0,-10.444 -8.055,-19.041 -18.279,-19.908 v 3.996 0 0.358 h 3.937 c 2.558,0 3.726,1.669 4.087,2.823 0.048,0.103 0.078,0.217 0.096,0.387 0,0.006 0.002,0.011 0.002,0.016 v 0 c 0.028,0.284 0.026,0.723 0.022,1.516 -0.003,0.825 -0.009,1.97 -0.009,2.92 0,0.558 0.453,1.009 1.011,1.009 0.005,0 0.009,0.001 0.013,0.001 0.005,0 0.009,-0.001 0.014,-0.001 0.957,0 1.733,0.776 1.733,1.733 0,0.896 -0.683,1.625 -1.555,1.715 -0.067,0.014 -0.136,0.022 -0.206,0.022 l -1.948,-0.004 c -1.215,-0.097 -2.471,-1.086 -2.521,-2.79 -0.021,-0.72 -0.01,-3.067 -0.003,-4.621 0.001,-0.405 0.003,-0.74 0.004,-0.95 -0.104,-0.208 -0.342,-0.305 -0.74,-0.305 h -3.937 v 2.659 c 0,0.984 -0.798,1.782 -1.783,1.782 -0.984,0 -1.782,-0.798 -1.782,-1.782 v -2.659 h -3.937 c -0.398,0 -0.636,0.097 -0.74,0.305 10e-4,0.21 0.002,0.545 0.004,0.95 0.007,1.554 0.018,3.901 -0.003,4.621 -0.051,1.704 -1.306,2.693 -2.521,2.79 l -1.948,0.004 c -0.071,0 -0.14,-0.008 -0.207,-0.022 -0.871,-0.09 -1.554,-0.819 -1.554,-1.715 0,-0.957 0.776,-1.733 1.733,-1.733 0.005,0 0.009,0.001 0.013,0.001 0.005,0 0.009,-0.001 0.014,-0.001 0.558,0 1.011,-0.451 1.01,-1.009 0,-0.95 -0.005,-2.095 -0.008,-2.92 -0.004,-0.793 -0.006,-1.232 0.022,-1.516 v 0 c 0,-0.005 10e-4,-0.01 0.002,-0.016 0.018,-0.17 0.048,-0.284 0.096,-0.387 0.361,-1.154 1.529,-2.823 4.087,-2.823 h 3.937 v -4.34 C 7.971,-18.952 0,-10.39 0,0 m 21.66,-25.343 v 1.877 c 12.191,0.875 21.843,11.073 21.843,23.484 0,12.983 -10.563,23.546 -23.546,23.546 -12.983,0 -23.546,-10.563 -23.546,-23.546 0,-12.357 9.568,-22.521 21.684,-23.473 v -6.322 c 0,-0.959 0.777,-1.736 1.736,-1.736 h 1.825 4.135 c 0.959,0 1.736,0.777 1.736,1.736 0,0.959 -0.777,1.736 -1.736,1.736 h -4.135 v 2.698 z"
       style="fill:#edf3f4;fill-opacity:1;fill-rule:nonzero;stroke:none"
       transform="matrix(0.35277776,0,0,-0.35277776,-41.780928,39.711029)"
       clip-path="url(#clipPath7)" />
    <path
       id="path9"
       d="m -36.837736,51.738883 c -0.337961,0 -0.612423,0.274108 -0.612423,0.612069 v 0 c 0,0.338667 0.274462,0.612422 0.612423,0.612422 v 0 h 4.156074 c 0.337962,0 0.612423,-0.273755 0.612423,-0.612422 v 0 c 0,-0.337961 -0.274461,-0.612069 -0.612423,-0.612069 v 0 z"
       style="fill:url(#linearGradient9);stroke:none;stroke-width:0.352778" />
    <path
       id="path12"
       d="m -36.837736,53.872835 c -0.337961,0 -0.612423,0.273756 -0.612423,0.612423 v 0 c 0,0.337961 0.274462,0.612069 0.612423,0.612069 v 0 h 4.156074 c 0.337962,0 0.612423,-0.274108 0.612423,-0.612069 v 0 c 0,-0.338667 -0.274461,-0.612423 -0.612423,-0.612423 v 0 z"
       style="fill:url(#linearGradient12);stroke:none;stroke-width:0.352778" />
    <path
       id="path15"
       d="m -38.473214,35.460659 0.0018,0.03104 c 0.0014,0.04127 -0.01446,0.08114 -0.04304,0.111125 v 0 c -0.02893,0.02963 -0.06879,0.04621 -0.110067,0.04621 v 0 c -0.0134,0 -0.02752,-0.0011 -0.0515,-0.0032 v 0 c -0.857956,0 -1.55575,0.829028 -1.55575,1.848555 v 0 c -0.0011,0.295275 0.05821,0.582084 0.176742,0.852311 v 0 c 0.03034,0.06844 0.006,0.14852 -0.05645,0.189442 v 0 c -0.44203,0.287867 -0.705908,0.7747 -0.706614,1.302456 v 0 c -0.0021,0.484716 0.227895,0.947561 0.615597,1.238955 v 0 c 0.0021,0.0014 0.0046,0.0032 0.0067,0.0049 v 0 c 0.05503,0.04057 0.113947,0.07867 0.174272,0.11183 v 0 c 0.03881,0.02152 0.06667,0.05891 0.07549,0.102659 v 0 c 0.0092,0.04304 -0.0011,0.08855 -0.02787,0.124178 v 0 c -0.0314,0.04092 -0.06068,0.08396 -0.08643,0.127705 v 0 c -0.21202,0.363714 -0.228953,0.806097 -0.0448,1.184628 v 0 c 0.183797,0.378178 0.542219,0.638175 0.959203,0.69603 v 0 c 0.04304,0.006 0.08184,0.02999 0.105833,0.06668 v 0 c 0.0247,0.03634 0.0321,0.08114 0.02117,0.123825 v 0 c -0.117122,0.447675 0.01975,0.922514 0.357364,1.239661 v 0 c 0.2286,0.214842 0.524227,0.331259 0.827969,0.340078 v 0 c -0.100189,-0.06809 -0.189794,-0.145344 -0.268817,-0.227894 v 0 c -0.44806,-0.131872 -0.777908,-0.543211 -0.777908,-1.032514 v 0 c -3.52e-4,-0.10795 0.01658,-0.215547 0.04974,-0.321028 v 0 c -0.04586,-0.121355 -0.08431,-0.241652 -0.1143,-0.357363 v 0 h -0.02364 -0.0032 c -0.384175,0 -0.741892,-0.206728 -0.93345,-0.53975 v 0 c -0.192264,-0.333728 -0.191205,-0.747889 0.0032,-1.081617 v 0 c 0.07303,-0.124178 0.168275,-0.232128 0.285044,-0.322792 v 0 c 0.04233,-0.03104 0.08784,-0.05609 0.133703,-0.08043 v 0 c 0.03246,-0.0949 0.08008,-0.182033 0.140053,-0.26035 v 0 c -3.53e-4,3.53e-4 -0.0011,3.53e-4 -0.0014,3.53e-4 v 0 l -0.03916,0.0127 c -0.01764,0.0063 -0.03563,0.0134 -0.06844,0.02611 v 0 l -0.0194,0.0081 c -0.01835,0.0081 -0.03669,0.01693 -0.05433,0.02575 v 0 c -7.05e-4,7.06e-4 -0.03175,0.01552 -0.0321,0.01587 v 0 c -0.01623,0.0088 -0.03245,0.01834 -0.04833,0.02752 v 0 c -0.0014,7.05e-4 -0.02469,0.01482 -0.02611,0.01517 v 0 c -0.03986,0.02187 -0.08749,0.0254 -0.129822,0.0088 v 0 c -0.116769,-0.0448 -0.225778,-0.105128 -0.323497,-0.178506 v 0 c -0.385586,-0.288219 -0.593372,-0.765528 -0.542572,-1.244953 v 0 c 0.05186,-0.479777 0.356305,-0.9017 0.794102,-1.101725 v 0 c 0.0032,-0.0018 0.0063,-0.0032 0.0092,-0.0042 v 0 c 0.0035,-0.0014 0.0071,-0.0032 0.01058,-0.0042 v 0 c 0.04057,-0.0187 0.08149,-0.03457 0.122767,-0.04904 v 0 c 0.0127,-0.0042 0.0254,-0.0078 0.04022,-0.01129 v 0 c 0.03528,-0.01023 0.06985,-0.02046 0.107245,-0.02822 v 0 c 0.03069,-0.0067 0.06138,-0.01094 0.103716,-0.01693 v 0 c 0.01164,-0.0021 0.02328,-0.0039 0.03493,-0.0049 v 0 c 0.04762,-0.0049 0.09525,-0.0078 0.144992,-0.0078 v 0 h 3.53e-4 c 0.05221,7.06e-4 0.105128,0.0039 0.15628,0.0099 v 0 l 0.02752,0.0028 c 0.0053,7.06e-4 0.01058,0.0014 0.01587,0.0028 v 0 c 0.04798,0.0067 0.09596,0.01658 0.156986,0.0321 v 0 c 0.04762,0.0127 0.09454,0.02787 0.139347,0.04516 v 0 c 0.0014,7.05e-4 0.02187,0.0085 0.02293,0.0088 v 0 c 0.0042,0.0018 0.0085,0.0039 0.01199,0.0056 v 0 c 0.04198,0.01764 0.0829,0.03739 0.124178,0.05962 v 0 l 0.02963,0.01729 c 0.03669,0.02117 0.07197,0.0441 0.111831,0.07232 v 0 c 7.06e-4,3.52e-4 0.0046,0.0032 0.0088,0.006 v 0 c 0.0042,0.0028 0.0081,0.0056 0.01235,0.0085 v 0 c 0.137936,0.10407 0.254,0.230717 0.345369,0.377473 v 0 c 0.02681,0.04198 0.0829,0.05539 0.125236,0.02893 v 0 c 0.02046,-0.0127 0.03528,-0.03281 0.04057,-0.05644 v 0 c 0.0056,-0.02328 0.0018,-0.04798 -0.01129,-0.06879 v 0 c -0.143228,-0.23248 -0.346781,-0.423686 -0.587728,-0.552097 v 0 l -0.02223,-0.01199 c -0.02716,-0.01376 -0.05397,-0.02646 -0.08537,-0.04057 v 0 l -0.02505,-0.01094 c -0.02858,-0.01199 -0.05821,-0.02328 -0.0822,-0.0314 v 0 l -0.02752,-0.0099 c -0.03457,-0.01164 -0.06915,-0.02117 -0.106539,-0.03069 v 0 c -0.01129,-0.0032 -0.02258,-0.0053 -0.03845,-0.0085 v 0 c -0.02258,-0.0049 -0.04621,-0.01023 -0.07126,-0.01411 v 0 l -0.04339,-0.0074 c -0.02505,-0.0035 -0.05115,-0.0063 -0.07902,-0.0092 v 0 l -0.03493,-0.0032 c -0.03422,-0.0025 -0.06879,-0.0046 -0.104422,-0.0049 v 0 c -0.05715,0.0032 -0.11677,0.0028 -0.173214,0.0092 v 0 l -0.08996,0.01341 c -0.01976,0.0028 -0.03916,0.0053 -0.07091,0.01235 v 0 l -0.07232,0.01834 c -0.01764,0.0039 -0.03493,0.0081 -0.05256,0.01305 v 0 c -0.07303,0.02222 -0.155575,-0.01588 -0.185208,-0.08608 v 0 c -0.104423,-0.244475 -0.156634,-0.502709 -0.155575,-0.76835 v 0 c 3.52e-4,-0.53975 0.217311,-1.048103 0.579966,-1.360311 v 0 c 0.277636,-0.238831 0.618067,-0.342195 0.958145,-0.290689 v 0 c 0.05644,0.0081 0.105127,0.05115 0.123472,0.105128 v 0 l 0.0088,0.02364 c 3.53e-4,7.05e-4 0.0078,0.01905 0.0078,0.02011 v 0 c 0.01235,0.03281 0.02575,0.06526 0.03951,0.0956 v 0 c 0.0064,0.01446 0.01305,0.02858 0.02152,0.04445 v 0 c 0.01517,0.03104 0.03175,0.06138 0.04833,0.09066 v 0 l 0.02364,0.03986 c 0.01975,0.0321 0.04057,0.06315 0.0635,0.09419 v 0 c 0.0018,0.0025 0.0095,0.01446 0.01129,0.01693 v 0 c 0.0025,0.0035 0.0049,0.0067 0.0074,0.01023 v 0 c 0.03986,0.05256 0.0822,0.1016 0.129117,0.148872 v 0 l 0.02611,0.02575 c 0.182033,0.181681 0.408517,0.314325 0.662164,0.386292 v 0 c 0.02328,0.0074 0.04833,0.006 0.07091,-0.006 v 0 c 0.02222,-0.01129 0.03775,-0.03034 0.0448,-0.05398 v 0 c 0.0071,-0.02399 0.0042,-0.04939 -0.0074,-0.07056 v 0 c -0.01199,-0.02187 -0.03246,-0.03739 -0.06103,-0.04516 v 0 c -0.161572,-0.04833 -0.312914,-0.123472 -0.452614,-0.226483 v 0 c -0.04692,-0.03598 -0.09066,-0.07444 -0.128411,-0.112183 v 0 l -0.01658,-0.01623 c -0.0039,-0.0028 -0.0074,-0.0064 -0.01058,-0.0099 v 0 c -0.03951,-0.04022 -0.07655,-0.08325 -0.110772,-0.127705 v 0 c -0.0085,-0.01129 -0.01693,-0.02328 -0.02117,-0.02928 v 0 c -0.01834,-0.0254 -0.03598,-0.0515 -0.0508,-0.07479 v 0 l -0.02434,-0.04092 c -0.01517,-0.02505 -0.02822,-0.05045 -0.04375,-0.08184 v 0 c -0.0071,-0.01376 -0.01376,-0.02752 -0.01799,-0.0374 v 0 c -0.01235,-0.02646 -0.02293,-0.05433 -0.03881,-0.09525 v 0 l -0.01023,-0.02681 c -0.01446,-0.04127 -0.02681,-0.08325 -0.03175,-0.108655 v 0 c -0.0046,-0.01094 -0.0078,-0.02364 -0.0095,-0.03598 v 0 c -0.02434,-0.100894 -0.03528,-0.202847 -0.03387,-0.300919 v 0 c 0,-0.757414 0.61595,-1.373717 1.373364,-1.373717 v 0 c 0.757414,0 1.373716,0.616303 1.373716,1.373717 v 0 2.049639 c 0,0.596547 -0.485069,1.081616 -1.080911,1.081616 v 0 c -0.05045,0 -0.09102,0.04092 -0.09102,0.09102 v 0 c 0,0.05009 0.04057,0.09066 0.09102,0.09066 v 0 c 0.3048,0 0.598311,-0.110067 0.826911,-0.310445 v 0 c 0.04551,-0.03986 0.109714,-0.04904 0.164042,-0.02434 v 0 c 0.05503,0.02469 0.08996,0.07938 0.08996,0.139347 v 0 3.945466 0.0441 c 0.05009,-0.08185 0.112184,-0.153459 0.183445,-0.2159 v 0 -6.891867 c 0,-0.857955 -0.697795,-1.55575 -1.55575,-1.55575 v 0 c -0.857603,0 -1.555397,0.697795 -1.554339,1.572684"
       style="fill:url(#linearGradient15);stroke:none;stroke-width:0.352778" />
    <path
       id="path18"
       d="m -34.163328,35.443725 v 6.873169 c 0.0695,0.05644 0.132997,0.119945 0.183797,0.194028 v 0 -0.0035 -3.945466 c 0,-0.05997 0.03493,-0.114653 0.08961,-0.139347 v 0 c 0.05433,-0.02469 0.118886,-0.01552 0.164394,0.02434 v 0 c 0.2286,0.200378 0.522464,0.310445 0.827264,0.310445 v 0 c 0.04974,0 0.09066,-0.04057 0.09066,-0.09066 v 0 c 0,-0.05009 -0.04092,-0.09102 -0.09066,-0.09102 v 0 c -0.596194,0 -1.081264,-0.485069 -1.081264,-1.081616 v 0 -2.049639 c 0,-0.757414 0.61595,-1.373717 1.373717,-1.373717 v 0 c 0.757061,0 1.373364,0.616303 1.373364,1.373717 v 0 c 0.0018,0.09807 -0.0099,0.200025 -0.03387,0.300919 v 0 c -0.0018,0.01235 -0.0049,0.02505 -0.0092,0.03598 v 0 c -0.0056,0.0254 -0.01764,0.06738 -0.0321,0.108655 v 0 l -0.01058,0.02681 c -0.01552,0.04092 -0.02611,0.06879 -0.03881,0.09525 v 0 c -0.0039,0.0099 -0.01058,0.02364 -0.01764,0.0374 v 0 c -0.01587,0.0314 -0.02893,0.0568 -0.04339,0.08184 v 0 l -0.02505,0.04092 c -0.01482,0.02328 -0.0321,0.04939 -0.05045,0.07479 v 0 c -0.0039,0.006 -0.0127,0.01799 -0.02152,0.02928 v 0 c -0.03351,0.04445 -0.07091,0.08749 -0.110773,0.127705 v 0 c -0.0032,0.0035 -0.0067,0.0071 -0.01023,0.0099 v 0 l -0.01658,0.01623 c -0.03775,0.03775 -0.08184,0.0762 -0.128411,0.112183 v 0 c -0.1397,0.103011 -0.291042,0.178153 -0.452614,0.226483 v 0 c -0.02822,0.0078 -0.04868,0.02328 -0.06068,0.04516 v 0 c -0.01199,0.02117 -0.01517,0.04657 -0.0081,0.07056 v 0 c 0.0074,0.02364 0.02328,0.04269 0.0448,0.05398 v 0 c 0.02293,0.01199 0.04798,0.0134 0.07126,0.006 v 0 c 0.253648,-0.07197 0.480131,-0.204611 0.661812,-0.386292 v 0 l 0.02646,-0.02575 c 0.04692,-0.04727 0.08961,-0.09631 0.128764,-0.148872 v 0 h 3.53e-4 c 0.0025,-0.0035 0.0049,-0.0067 0.0074,-0.01023 v 0 c 0.0014,-0.0025 0.0095,-0.01446 0.01094,-0.01693 v 0 c 0.02328,-0.03104 0.0441,-0.06209 0.06385,-0.09419 v 0 l 0.02328,-0.03986 c 0.01693,-0.02928 0.03316,-0.05962 0.04904,-0.09066 v 0 c 0.0081,-0.01587 0.01482,-0.02999 0.02152,-0.04445 v 0 c 0.01341,-0.03034 0.02646,-0.0628 0.0388,-0.0956 v 0 c 3.53e-4,-0.0011 0.0074,-0.0194 0.0078,-0.02011 v 0 l 0.0088,-0.02364 c 0.0187,-0.05398 0.06703,-0.09701 0.123472,-0.105128 v 0 c 0.34043,-0.05151 0.680861,0.05186 0.958497,0.290689 v 0 c 0.362656,0.312208 0.579614,0.820561 0.579614,1.360311 v 0 c 0.0014,0.265641 -0.05115,0.523875 -0.155222,0.76835 v 0 c -0.02999,0.0702 -0.112536,0.108302 -0.185561,0.08608 v 0 c -0.01693,-0.0049 -0.03457,-0.0092 -0.05221,-0.01305 v 0 l -0.07232,-0.01834 c -0.03175,-0.0071 -0.05115,-0.0095 -0.07091,-0.01235 v 0 l -0.08996,-0.01341 c -0.0568,-0.0063 -0.115711,-0.006 -0.173213,-0.0092 v 0 c -0.03528,3.53e-4 -0.0702,0.0025 -0.104423,0.0049 v 0 l -0.03457,0.0032 c -0.02822,0.0028 -0.05398,0.0056 -0.07937,0.0092 v 0 l -0.04339,0.0074 c -0.02505,0.0039 -0.04868,0.0092 -0.07126,0.01411 v 0 c -0.01587,0.0032 -0.02752,0.0053 -0.0381,0.0085 v 0 c -0.03775,0.0095 -0.07232,0.01905 -0.106891,0.03069 v 0 l -0.02716,0.0099 c -0.02399,0.0081 -0.05397,0.0194 -0.08255,0.0314 v 0 l -0.02505,0.01094 c -0.0314,0.01411 -0.05856,0.02681 -0.08502,0.04057 v 0 l -0.02222,0.01199 c -0.2413,0.128411 -0.444853,0.319617 -0.58808,0.552097 v 0 c -0.01305,0.02081 -0.01693,0.04551 -0.01164,0.06879 v 0 c 0.0056,0.02364 0.02011,0.04374 0.04092,0.05644 v 0 c 0.04198,0.02646 0.09878,0.01305 0.124884,-0.02893 v 0 c 0.09137,-0.146756 0.207786,-0.273403 0.345369,-0.377473 v 0 c 0.0042,-0.0028 0.0085,-0.0056 0.0127,-0.0085 v 0 c 0.0042,-0.0028 0.0081,-0.0056 0.0092,-0.006 v 0 c 0.03916,-0.02822 0.07479,-0.05115 0.111478,-0.07232 v 0 l 0.02928,-0.01729 c 0.04163,-0.02223 0.0822,-0.04198 0.124177,-0.05962 v 0 c 0.0039,-0.0018 0.0081,-0.0039 0.01199,-0.0056 v 0 c 0.0014,-3.53e-4 0.02187,-0.0081 0.02293,-0.0088 v 0 c 0.04516,-0.01729 0.09208,-0.03246 0.1397,-0.04516 v 0 c 0.06138,-0.01552 0.109009,-0.0254 0.156986,-0.0321 v 0 c 0.0049,-0.0014 0.01023,-0.0021 0.01587,-0.0028 v 0 l 0.02716,-0.0028 c 0.05151,-0.006 0.10407,-0.0092 0.156986,-0.0099 v 0 c 0.04974,0 0.09701,0.0028 0.144639,0.0078 v 0 c 0.01199,0.0011 0.02364,0.0028 0.03528,0.0049 v 0 c 0.04233,0.006 0.07267,0.01023 0.103364,0.01693 v 0 c 0.03775,0.0078 0.07232,0.01799 0.107597,0.02822 v 0 c 0.01482,0.0035 0.02752,0.0071 0.03986,0.01129 v 0 c 0.04163,0.01446 0.0829,0.03034 0.123119,0.04904 v 0 c 0.0035,0.0011 0.0071,0.0028 0.01094,0.0042 v 0 c 0.0021,0.0011 0.0053,0.0025 0.0088,0.0042 v 0 c 0.437797,0.200025 0.741892,0.621948 0.79375,1.101725 v 0 c 0.05115,0.479425 -0.156986,0.956734 -0.542219,1.244953 v 0 c -0.09737,0.07338 -0.206375,0.133703 -0.323498,0.178506 v 0 c -0.04269,0.01658 -0.09031,0.01305 -0.129822,-0.0088 v 0 c -0.0011,-3.53e-4 -0.02505,-0.01446 -0.02575,-0.01517 v 0 c -0.01623,-0.0092 -0.0321,-0.0187 -0.04833,-0.02752 v 0 c -0.0011,-3.53e-4 -0.03175,-0.01517 -0.03281,-0.01587 v 0 c -0.01693,-0.0088 -0.03598,-0.01764 -0.05433,-0.02575 v 0 l -0.01905,-0.0081 c -0.03281,-0.0127 -0.0508,-0.01976 -0.06879,-0.02611 v 0 l -0.0099,-0.0032 c 0.05997,0.08008 0.106539,0.169686 0.137584,0.267405 v 0 c 0.03563,0.02011 0.07232,0.03881 0.10548,0.0635 v 0 c 0.117475,0.09066 0.212372,0.198614 0.285397,0.322792 v 0 c 0.194381,0.333728 0.195086,0.747889 0.0032,1.081617 v 0 c -0.191911,0.333022 -0.549275,0.53975 -0.93345,0.53975 v 0 h -0.0032 -0.02399 c -0.02963,0.115711 -0.06809,0.236008 -0.1143,0.357363 v 0 c 0.03351,0.105481 0.05009,0.213078 0.05009,0.321028 v 0 c 0,0.476603 -0.313267,0.878064 -0.743303,1.020939 v 0 c -0.0822,0.08678 -0.174978,0.167922 -0.280105,0.239536 v 0 c 0.295627,-0.01411 0.58173,-0.13088 0.804333,-0.340078 v 0 c 0.337961,-0.317147 0.474839,-0.791986 0.357717,-1.239661 v 0 c -0.01129,-0.04269 -0.0035,-0.08749 0.02081,-0.123825 v 0 c 0.02434,-0.03669 0.06279,-0.06068 0.106539,-0.06668 v 0 c 0.416278,-0.05785 0.775053,-0.317852 0.95885,-0.69603 v 0 c 0.18415,-0.378531 0.167217,-0.820914 -0.04445,-1.184628 v 0 c -0.02611,-0.04374 -0.05574,-0.08678 -0.08678,-0.127705 v 0 c -0.02681,-0.03563 -0.03704,-0.08114 -0.02787,-0.124178 v 0 c 0.0092,-0.04375 0.03669,-0.08114 0.07549,-0.102659 v 0 c 0.06033,-0.03316 0.119239,-0.07126 0.173919,-0.11183 v 0 c 0.0025,-0.0018 0.0049,-0.0035 0.0074,-0.0049 v 0 c 0.38735,-0.291394 0.617008,-0.754239 0.614891,-1.238955 v 0 c -7.05e-4,-0.527756 -0.264583,-1.014589 -0.706261,-1.302456 v 0 c -0.06279,-0.04092 -0.08643,-0.121003 -0.05644,-0.189442 v 0 c 0.11818,-0.270227 0.1778,-0.557036 0.176742,-0.852311 v 0 c 0,-1.019527 -0.697795,-1.848555 -1.55575,-1.848555 v 0 c -0.02434,0.0021 -0.03775,0.0032 -0.05186,0.0032 v 0 c -0.04127,0 -0.08079,-0.01658 -0.109361,-0.04621 v 0 c -0.02893,-0.02999 -0.04445,-0.06985 -0.04374,-0.111125 v 0 l 0.0021,-0.03104 c 0.0011,-0.874889 -0.697088,-1.572684 -1.554691,-1.572684 v 0 c -0.857956,0 -1.55575,0.697795 -1.55575,1.55575"
       style="fill:url(#linearGradient18);stroke:none;stroke-width:0.352778" />
    <path
       id="path21"
       d="m -9.94584,48.059763 c -0.160162,0 -0.291042,0.130528 -0.291042,0.290337 v 0 3.142544 c 0,0.159808 0.13088,0.290689 0.28575,0.28575 v 0 h 2.053519 c 0.159456,0 0.290336,-0.130528 0.290336,-0.290336 v 0 c 0,-0.159809 -0.13088,-0.290689 -0.290336,-0.290689 v 0 h -1.361016 c -0.159456,0 -0.290336,-0.130528 -0.290336,-0.290336 v 0 -2.556933 c 0,-0.159809 -0.130881,-0.290337 -0.290689,-0.290337 v 0 z"
       style="fill:url(#linearGradient21);stroke:none;stroke-width:0.352778" />
    <path
       id="path24"
       d="m -4.55187,48.398783 v 1.73355 c 0,0.38735 -0.0822,0.663222 -0.24659,0.837494 v 0 c -0.1651,0.174272 -0.39723,0.261761 -0.69779,0.261761 v 0 c -0.3048,0 -0.53729,-0.08749 -0.70203,-0.261761 v 0 c -0.1644,-0.174272 -0.24695,-0.455436 -0.24695,-0.837494 v 0 -1.73355 c 0,-0.189089 -0.15028,-0.33902 -0.33866,-0.33902 v 0 h -0.01 c -0.18909,0 -0.339021,0.149931 -0.339021,0.33902 v 0 1.757539 c 0,0.547158 0.145345,0.963789 0.435681,1.249539 v 0 c 0.29069,0.285749 0.68792,0.430741 1.19627,0.430741 v 0 c 0.5087,0 0.91017,-0.144992 1.19133,-0.430741 v 0 c 0.29034,-0.28575 0.43568,-0.702381 0.43568,-1.249539 v 0 -1.757539 c 0,-0.189089 -0.14993,-0.33902 -0.33902,-0.33902 v 0 c -0.18874,0 -0.33902,0.149931 -0.33902,0.33902"
       style="fill:url(#linearGradient24);stroke:none;stroke-width:0.352778" />
    <path
       id="path27"
       d="m -2.84725,48.059763 c -0.1598,0 -0.29033,0.130528 -0.29033,0.290337 v 0 c 0,0.159808 0.13053,0.290688 0.29033,0.290688 v 0 h 1.2446 c 0.2466,0 0.38241,0.28575 0.22719,0.479425 v 0 l -1.73355,2.115961 c -0.0434,0.05327 -0.0674,0.116417 -0.0674,0.183798 v 0 0.06809 c 0,0.159808 0.13088,0.290336 0.29034,0.290336 v 0 h 2.59574 C -0.13088,51.778398 0,51.64787 0,51.488062 v 0 c 0,-0.159809 -0.13088,-0.290689 -0.29033,-0.290689 v 0 h -1.35608 c -0.24659,0 -0.38276,-0.28575 -0.22754,-0.479425 v 0 l 1.73355,-2.115961 c 0.0437,-0.05327 0.0677,-0.116064 0.0677,-0.183797 v 0 -0.06809 c 0,-0.159809 -0.13088,-0.290337 -0.29034,-0.290337 v 0 z"
       style="fill:url(#linearGradient27);stroke:none;stroke-width:0.352778" />
    <path
       id="path30"
       d="m -26.719717,48.1469 v 3.54471 c 0,0.05292 0.04339,0.09172 0.09172,0.09172 v 0 c 0.05327,0 0.09208,-0.04339 0.09208,-0.09172 v 0 -3.54471 c 0,-0.05327 -0.04339,-0.09208 -0.09208,-0.09208 v 0 c -0.05292,0 -0.09172,0.04339 -0.09172,0.09208"
       style="fill:url(#linearGradient30);stroke:none;stroke-width:0.352778" />
    <path
       id="path33"
       d="m -22.381256,48.1469 v 3.040591 c 0,0.08749 -0.111125,0.126295 -0.159456,0.05362 v 0 l -2.455333,-3.152069 c -0.0194,-0.02469 -0.04339,-0.03422 -0.07232,-0.03422 v 0 h -0.01482 c -0.04833,0 -0.09207,0.03881 -0.09207,0.09208 v 0 3.54471 c 0,0.04833 0.0388,0.09172 0.09207,0.09172 v 0 c 0.04833,0 0.09208,-0.03881 0.09208,-0.09172 v 0 -3.040944 c 0,-0.08749 0.111125,-0.126294 0.159808,-0.05362 v 0 l 2.45498,3.152775 c 0.0194,0.02399 0.04339,0.03351 0.07267,0.03351 v 0 h 0.01446 c 0.04833,0 0.09172,-0.03881 0.09172,-0.09172 v 0 -3.54471 c 0,-0.04868 -0.0381,-0.09208 -0.09172,-0.09208 v 0 c -0.05327,0.0049 -0.09207,0.04339 -0.09207,0.09208"
       style="fill:url(#linearGradient33);stroke:none;stroke-width:0.352778" />
    <path
       id="path36"
       d="m -18.042443,48.1469 v 3.040591 c 0,0.08749 -0.111478,0.126295 -0.159808,0.05362 v 0 l -2.455333,-3.152069 c -0.01905,-0.02469 -0.04339,-0.03422 -0.07232,-0.03422 v 0 h -0.01446 c -0.04868,0 -0.09207,0.03881 -0.09207,0.09208 v 0 3.54471 c 0,0.04833 0.03881,0.09172 0.09207,0.09172 v 0 c 0.04868,0 0.09207,-0.03881 0.09207,-0.09172 v 0 -3.040944 c 0,-0.08749 0.111478,-0.126294 0.159809,-0.05362 v 0 l 2.454627,3.152775 c 0.01976,0.02399 0.0441,0.03351 0.07303,0.03351 v 0 h 0.01446 c 0.04833,0 0.09208,-0.03881 0.09208,-0.09172 v 0 -3.54471 c 0,-0.04868 -0.03881,-0.09208 -0.09208,-0.09208 v 0 c -0.05327,0.0049 -0.09207,0.04339 -0.09207,0.09208"
       style="fill:url(#linearGradient36);stroke:none;stroke-width:0.352778" />
    <path
       id="path39"
       d="m -16.497982,48.1469 v 3.54471 c 0,0.05292 0.03881,0.09172 0.09207,0.09172 v 0 c 0.05362,0 0.09208,-0.04339 0.09208,-0.09172 v 0 -3.54471 c 0,-0.05327 -0.04339,-0.09208 -0.09208,-0.09208 v 0 c -0.05327,0 -0.09207,0.04339 -0.09207,0.09208"
       style="fill:url(#linearGradient39);stroke:none;stroke-width:0.352778" />
    <path
       id="path43"
       d="m -14.87591,48.059763 c -0.04339,0 -0.0822,0.03845 -0.0822,0.0822 v 0 3.559174 c 0,0.04339 0.03881,0.0822 0.0822,0.0822 v 0 h 2.353734 c 0.04374,0 0.0822,-0.03881 0.0822,-0.0822 v 0 c 0,-0.04339 -0.03845,-0.0822 -0.0822,-0.0822 v 0 h -2.169584 c -0.04798,0 -0.0822,-0.03881 -0.08678,-0.0822 v 0 -1.586442 c 0.01446,0.01341 0.03281,0.02187 0.05292,0.02187 v 0 h 1.888419 c 0.0441,0 0.08255,-0.03881 0.08255,-0.0822 v 0 c 0,-0.04339 -0.03845,-0.0822 -0.08255,-0.0822 v 0 h -1.888419 c -0.02011,0 -0.03845,0.0088 -0.05292,0.02187 v 0 -1.522941 c 0,-0.04339 0.03881,-0.0822 0.0822,-0.0822 v 0 h 2.096911 c 0.04339,0 0.0822,-0.03881 0.0822,-0.08255 v 0 c 0,-0.04375 -0.0388,-0.0822 -0.0822,-0.0822 v 0 z"
       style="fill:url(#linearGradient43);stroke:none;stroke-width:0.352778" />
    <path
       id="path46"
       d="m -29.809345,48.1469 v 3.452635 c 0,0.1016 0.08255,0.183798 0.18415,0.183798 v 0 h 2.101497 c 0.04339,0 0.07761,-0.03881 0.07761,-0.0822 v 0 c 0,-0.04339 -0.0388,-0.07761 -0.0822,-0.0822 v 0 h -1.922639 -0.08714 c -0.04833,0 -0.08714,-0.03881 -0.08714,-0.09208 v 0 -0.106891 -3.273072 c 0,-0.04868 -0.03881,-0.09208 -0.09208,-0.09208 v 0 c -0.04833,0 -0.09207,0.03881 -0.09207,0.09208"
       style="fill:url(#linearGradient46);stroke:none;stroke-width:0.352778" />
    <path
       id="path47"
       d="m 0,0 c 0,-0.369 -0.116,-0.665 -0.344,-0.882 -0.234,-0.209 -0.575,-0.31 -1.041,-0.31 l -1.193,-0.015 -0.015,2.4 h 1.208 c 0.467,0 0.808,-0.101 1.043,-0.312 C -0.109,0.673 0,0.393 0,0 m -0.412,1.459 v 0 c -0.275,0.13 -0.589,0.19 -0.987,0.19 h -1.4 c -0.123,0 -0.235,-0.112 -0.235,-0.235 v -4.351 c 0,-0.131 0.103,-0.235 0.235,-0.235 0.125,0 0.235,0.11 0.235,0.235 l -0.015,1.302 h 1.194 c 0.386,0 0.718,0.065 0.987,0.191 0.272,0.13 0.488,0.321 0.645,0.571 C 0.399,-0.614 0.47,-0.332 0.47,0.021 0.454,0.363 0.379,0.639 0.231,0.891 0.076,1.138 -0.14,1.329 -0.412,1.459"
       style="fill:#edf3f4;fill-opacity:1;fill-rule:nonzero;stroke:none"
       transform="matrix(0.35277776,0,0,-0.35277776,-28.773448,53.875444)"
       clip-path="url(#clipPath48)" />
    <path
       id="path49"
       d="m 0,0 v 0.001 c -0.172,0.085 -0.359,0.156 -0.559,0.214 -0.095,0.025 -0.187,0.048 -0.276,0.07 -0.106,0.026 -0.209,0.051 -0.321,0.082 -0.188,0.04 -0.365,0.11 -0.513,0.172 -0.136,0.057 -0.259,0.149 -0.348,0.264 -0.084,0.106 -0.124,0.248 -0.124,0.43 0,0.163 0.038,0.303 0.118,0.427 0.08,0.126 0.195,0.223 0.376,0.313 0.164,0.082 0.39,0.124 0.671,0.124 0.196,0 0.386,-0.031 0.567,-0.09 C -0.244,1.955 -0.09,1.878 0.065,1.768 0.122,1.738 0.185,1.732 0.243,1.75 0.298,1.769 0.343,1.809 0.371,1.864 0.425,1.973 0.396,2.098 0.299,2.162 0.148,2.259 -0.036,2.346 -0.254,2.424 -0.926,2.622 -1.511,2.555 -1.896,2.361 -2.122,2.249 -2.296,2.09 -2.431,1.869 -2.542,1.666 -2.597,1.452 -2.597,1.233 c 0,-0.289 0.055,-0.5 0.175,-0.663 0.134,-0.185 0.275,-0.311 0.443,-0.396 0.169,-0.084 0.357,-0.156 0.559,-0.215 0.09,-0.023 0.177,-0.045 0.264,-0.066 0.11,-0.027 0.217,-0.053 0.332,-0.085 0.18,-0.039 0.354,-0.106 0.514,-0.172 0.136,-0.057 0.259,-0.151 0.343,-0.258 0.087,-0.124 0.129,-0.267 0.129,-0.437 0,-0.17 -0.036,-0.297 -0.122,-0.434 -0.068,-0.123 -0.194,-0.229 -0.372,-0.305 -0.167,-0.084 -0.391,-0.124 -0.685,-0.124 -0.261,0 -0.52,0.055 -0.784,0.166 -0.216,0.102 -0.37,0.202 -0.487,0.319 -0.045,0.044 -0.105,0.066 -0.171,0.06 -0.065,-0.007 -0.124,-0.041 -0.142,-0.073 -0.069,-0.068 -0.07,-0.181 0.009,-0.297 0.138,-0.151 0.344,-0.287 0.633,-0.415 0.296,-0.127 0.608,-0.189 0.956,-0.189 0.401,0 0.697,0.066 0.886,0.19 0.231,0.099 0.422,0.264 0.552,0.474 0.121,0.197 0.183,0.414 0.183,0.642 0,0.249 -0.057,0.465 -0.175,0.649 C 0.309,-0.21 0.167,-0.084 0,0"
       style="fill:#edf3f4;fill-opacity:1;fill-rule:nonzero;stroke:none"
       transform="matrix(0.35277776,0,0,-0.35277776,-27.498931,54.179646)"
       clip-path="url(#clipPath50)" />
    <path
       id="path51"
       d="m 0,0 c -0.132,0 -0.235,-0.104 -0.235,-0.235 v -4.351 c 0,-0.132 0.103,-0.235 0.235,-0.235 0.132,0 0.235,0.103 0.235,0.235 v 4.351 C 0.235,-0.112 0.123,0 0,0"
       style="fill:#edf3f4;fill-opacity:1;fill-rule:nonzero;stroke:none"
       transform="matrix(0.35277776,0,0,-0.35277776,-26.874867,53.298406)"
       clip-path="url(#clipPath52)" />
    <path
       id="path53"
       d="m 0,0 c -0.151,-0.14 -0.322,-0.245 -0.532,-0.33 -0.463,-0.163 -1.024,-0.154 -1.459,0.037 -0.238,0.106 -0.442,0.249 -0.604,0.424 -0.187,0.201 -0.318,0.407 -0.4,0.631 -0.096,0.262 -0.143,0.522 -0.143,0.794 0,0.272 0.047,0.532 0.143,0.795 0.082,0.223 0.213,0.429 0.4,0.63 0.164,0.176 0.367,0.319 0.604,0.423 0.435,0.195 0.995,0.203 1.461,0.037 C -0.349,3.381 -0.17,3.27 -0.001,3.114 0.078,3.035 0.212,3.045 0.297,3.128 0.341,3.171 0.366,3.229 0.366,3.292 0.366,3.355 0.341,3.414 0.294,3.46 0.076,3.661 -0.13,3.791 -0.351,3.869 -0.931,4.085 -1.564,4.083 -2.175,3.839 -2.458,3.712 -2.703,3.542 -2.932,3.313 -3.148,3.064 -3.313,2.804 -3.421,2.534 -3.537,2.229 -3.594,1.913 -3.594,1.569 c 0,-0.347 0.06,-0.681 0.173,-0.964 0.12,-0.314 0.282,-0.571 0.492,-0.781 0.224,-0.239 0.472,-0.411 0.754,-0.523 0.279,-0.126 0.596,-0.19 0.944,-0.19 0.282,0 0.564,0.046 0.892,0.145 0.225,0.079 0.43,0.21 0.666,0.432 C 0.386,-0.225 0.4,-0.09 0.292,0.014 0.192,0.082 0.076,0.075 0,0"
       style="fill:#edf3f4;fill-opacity:1;fill-rule:nonzero;stroke:none"
       transform="matrix(0.35277776,0,0,-0.35277776,-25.210357,54.695372)"
       clip-path="url(#clipPath54)" />
    <path
       id="path55"
       d="m 0,0 z m 0,-0.125 c 0.021,0 0.079,0 0.118,0.04 L 0.861,0.493 C 0.936,0.553 0.965,0.647 0.935,0.732 0.907,0.813 0.831,0.866 0.741,0.866 H 0.673 c -0.037,0 -0.093,0 -0.137,-0.044 L -0.143,0.24 C -0.204,0.179 -0.222,0.087 -0.188,0.006 -0.156,-0.073 -0.082,-0.125 0,-0.125"
       style="fill:#edf3f4;fill-opacity:1;fill-rule:nonzero;stroke:none"
       transform="matrix(0.35277776,0,0,-0.35277776,-24.143769,53.207038)"
       clip-path="url(#clipPath56)" />
    <path
       id="path57"
       d="M 0,0 C -0.229,0.09 -0.431,0.228 -0.599,0.408 -0.786,0.609 -0.917,0.816 -1,1.041 c -0.093,0.24 -0.143,0.515 -0.143,0.792 0,0.272 0.047,0.532 0.144,0.795 0.082,0.224 0.213,0.43 0.4,0.63 C -0.448,3.421 -0.25,3.556 0,3.666 0.245,3.762 0.491,3.809 0.75,3.809 1.049,3.809 1.297,3.763 1.515,3.666 1.74,3.578 1.947,3.438 2.114,3.258 2.3,3.058 2.431,2.852 2.514,2.626 2.607,2.387 2.657,2.112 2.657,1.833 2.657,1.561 2.61,1.301 2.514,1.039 2.431,0.816 2.3,0.609 2.114,0.408 1.962,0.245 1.77,0.114 1.516,0 1.04,-0.183 0.49,-0.19 0,0 M 2.446,3.608 C 2.223,3.847 1.975,4.018 1.694,4.13 1.166,4.369 0.472,4.396 -0.193,4.13 -0.475,4.003 -0.721,3.833 -0.95,3.604 -1.167,3.355 -1.331,3.095 -1.439,2.825 -1.555,2.52 -1.612,2.204 -1.612,1.86 c 0,-0.347 0.06,-0.681 0.173,-0.964 0.12,-0.314 0.282,-0.571 0.492,-0.782 0.224,-0.238 0.472,-0.41 0.754,-0.522 0.278,-0.126 0.596,-0.19 0.943,-0.19 0.343,0 0.661,0.069 0.944,0.203 0.282,0.127 0.528,0.297 0.757,0.527 0.217,0.249 0.382,0.511 0.489,0.778 0.116,0.306 0.173,0.621 0.173,0.965 0,0.348 -0.06,0.682 -0.174,0.966 C 2.818,3.144 2.652,3.402 2.446,3.608"
       style="fill:#edf3f4;fill-opacity:1;fill-rule:nonzero;stroke:none"
       transform="matrix(0.35277776,0,0,-0.35277776,-24.379388,54.798065)"
       clip-path="url(#clipPath58)" />
    <path
       id="path59"
       d="m 0,0 h -2.332 v 4.144 c 0,0.124 -0.097,0.221 -0.235,0.221 -0.124,0 -0.221,-0.097 -0.221,-0.221 v -4.378 c 0,-0.078 0.038,-0.151 0.099,-0.189 0.029,-0.017 0.061,-0.027 0.093,-0.027 0.017,0 0.034,0.003 0.052,0.008 H 0 c 0.124,0 0.221,0.097 0.221,0.221 C 0.221,-0.097 0.124,0 0,0"
       style="fill:#edf3f4;fill-opacity:1;fill-rule:nonzero;stroke:none"
       transform="matrix(0.35277776,0,0,-0.35277776,-21.97436,54.833519)"
       clip-path="url(#clipPath60)" />
    <path
       id="path61"
       d="m 0,0 c -0.23,0.09 -0.431,0.228 -0.599,0.408 -0.187,0.201 -0.318,0.407 -0.4,0.633 -0.094,0.24 -0.143,0.515 -0.143,0.792 0,0.272 0.047,0.532 0.143,0.795 0.083,0.224 0.213,0.43 0.4,0.63 C -0.448,3.421 -0.25,3.555 0,3.666 0.246,3.762 0.491,3.809 0.751,3.809 1.016,3.809 1.273,3.761 1.516,3.666 1.741,3.578 1.947,3.438 2.114,3.258 2.301,3.058 2.431,2.852 2.515,2.626 2.608,2.387 2.657,2.112 2.657,1.833 2.657,1.561 2.61,1.301 2.514,1.039 2.432,0.815 2.301,0.609 2.114,0.408 1.962,0.245 1.771,0.114 1.516,0 1.035,-0.187 0.498,-0.191 0,0 M 2.447,3.608 C 2.223,3.847 1.975,4.018 1.694,4.13 1.164,4.369 0.471,4.396 -0.193,4.13 -0.475,4.003 -0.721,3.833 -0.949,3.604 -1.167,3.355 -1.331,3.095 -1.438,2.825 -1.555,2.52 -1.611,2.204 -1.611,1.86 c 0,-0.347 0.06,-0.681 0.173,-0.964 0.12,-0.314 0.282,-0.571 0.492,-0.781 0.223,-0.239 0.471,-0.411 0.753,-0.523 0.278,-0.126 0.596,-0.19 0.944,-0.19 0.332,0 0.64,0.067 0.943,0.203 0.283,0.127 0.528,0.297 0.757,0.527 0.218,0.249 0.382,0.511 0.489,0.778 0.117,0.306 0.173,0.621 0.173,0.965 0,0.348 -0.06,0.681 -0.174,0.965 -0.12,0.303 -0.286,0.561 -0.492,0.768"
       style="fill:#edf3f4;fill-opacity:1;fill-rule:nonzero;stroke:none"
       transform="matrix(0.35277776,0,0,-0.35277776,-21.299815,54.798065)"
       clip-path="url(#clipPath62)" />
    <path
       id="path63"
       d="m 0,0 h -0.014 c -0.124,0 -0.221,-0.097 -0.221,-0.221 l 10e-4,-1.448 c -10e-4,-0.002 -0.002,-0.006 -0.004,-0.01 -0.17,-0.139 -0.313,-0.222 -0.476,-0.277 -0.448,-0.159 -1.019,-0.159 -1.487,0.037 -0.23,0.103 -0.44,0.247 -0.621,0.428 -0.176,0.176 -0.306,0.381 -0.397,0.627 -0.096,0.262 -0.143,0.522 -0.143,0.794 0,0.272 0.047,0.532 0.143,0.795 0.082,0.222 0.214,0.428 0.397,0.627 0.197,0.196 0.393,0.331 0.621,0.426 0.438,0.197 1.019,0.201 1.488,0.038 0.181,-0.061 0.36,-0.172 0.528,-0.328 C -0.098,1.401 0.035,1.407 0.129,1.502 0.174,1.547 0.196,1.609 0.19,1.674 0.183,1.738 0.148,1.798 0.112,1.82 -0.081,1.998 -0.285,2.128 -0.533,2.229 -0.818,2.335 -1.119,2.389 -1.428,2.389 -1.78,2.389 -2.089,2.326 -2.366,2.201 -2.663,2.083 -2.923,1.906 -3.136,1.68 -3.342,1.474 -3.503,1.226 -3.644,0.896 -3.757,0.612 -3.817,0.278 -3.817,-0.07 c 0,-0.344 0.056,-0.659 0.173,-0.966 0.112,-0.279 0.282,-0.542 0.508,-0.783 0.227,-0.227 0.478,-0.398 0.769,-0.522 0.31,-0.124 0.626,-0.187 0.939,-0.187 0.296,0 0.6,0.054 0.883,0.16 0.261,0.1 0.496,0.247 0.702,0.438 0.039,0.04 0.064,0.101 0.064,0.159 v 1.55 C 0.221,-0.097 0.124,0 0,0"
       style="fill:#edf3f4;fill-opacity:1;fill-rule:nonzero;stroke:none"
       transform="matrix(0.35277776,0,0,-0.35277776,-18.686367,54.116956)"
       clip-path="url(#clipPath64)" />
    <path
       id="path65"
       d="m 0,0 -2.073,-0.023 1.038,2.374 z m -0.795,2.899 c -0.032,0.088 -0.118,0.149 -0.212,0.149 h -0.069 c -0.096,0 -0.185,-0.065 -0.21,-0.144 l -1.923,-4.368 c -0.03,-0.075 -0.022,-0.159 0.022,-0.224 0.043,-0.063 0.112,-0.099 0.189,-0.099 0.097,0 0.185,0.063 0.211,0.142 l 0.517,1.204 2.453,0.004 0.527,-1.19 c 0.017,-0.091 0.102,-0.16 0.205,-0.16 0.077,0 0.146,0.036 0.189,0.099 0.044,0.065 0.053,0.148 0.021,0.228 z"
       style="fill:#edf3f4;fill-opacity:1;fill-rule:nonzero;stroke:none"
       transform="matrix(0.35277776,0,0,-0.35277776,-17.290071,54.368805)"
       clip-path="url(#clipPath66)" />
    <path
       id="path67"
       d="m 0,0 v -0.001 c -0.149,-0.149 -0.324,-0.263 -0.505,-0.328 -0.207,-0.077 -0.426,-0.115 -0.669,-0.115 -0.294,0 -0.531,0.045 -0.743,0.139 -0.251,0.118 -0.445,0.252 -0.597,0.414 -0.174,0.174 -0.304,0.375 -0.397,0.616 -0.095,0.244 -0.143,0.501 -0.143,0.764 0,0.264 0.048,0.522 0.14,0.76 0.111,0.247 0.243,0.451 0.404,0.624 0.16,0.173 0.347,0.303 0.584,0.408 0.478,0.185 1.001,0.186 1.423,0.026 C -0.326,3.244 -0.16,3.141 -0.016,3.013 0.017,2.964 0.068,2.933 0.125,2.928 0.188,2.916 0.251,2.945 0.3,2.993 0.39,3.083 0.39,3.218 0.3,3.308 0.116,3.491 -0.104,3.635 -0.333,3.72 -0.91,3.943 -1.581,3.924 -2.104,3.704 -2.417,3.563 -2.652,3.4 -2.841,3.198 -3.057,2.982 -3.218,2.735 -3.336,2.442 -3.453,2.15 -3.509,1.843 -3.509,1.503 c 0,-0.335 0.058,-0.65 0.173,-0.939 0.107,-0.266 0.268,-0.512 0.495,-0.755 0.225,-0.225 0.474,-0.396 0.74,-0.507 0.276,-0.116 0.583,-0.175 0.913,-0.175 0.272,0 0.554,0.047 0.873,0.148 0.233,0.102 0.438,0.235 0.63,0.412 C 0.404,-0.223 0.404,-0.091 0.314,0 0.225,0.086 0.09,0.088 0,0"
       style="fill:#edf3f4;fill-opacity:1;fill-rule:nonzero;stroke:none"
       transform="matrix(0.35277776,0,0,-0.35277776,-13.182822,54.671946)"
       clip-path="url(#clipPath68)" />
    <path
       id="path69"
       d="m 0,0 -0.012,-0.002 v 0.014 z m -0.012,0.026 -0.015,2.318 h 1.18 C 1.598,2.344 1.93,2.245 2.168,2.045 2.396,1.844 2.511,1.558 2.511,1.192 2.511,0.812 2.399,0.533 2.168,0.339 1.938,0.135 1.587,0.026 1.153,0.026 Z m 2.048,-0.302 c 0.015,0.005 0.03,0.011 0.066,0.025 0.292,0.147 0.503,0.334 0.626,0.553 0.147,0.235 0.225,0.533 0.225,0.862 0,0.339 -0.074,0.621 -0.225,0.863 C 2.582,2.262 2.376,2.442 2.101,2.581 1.842,2.71 1.527,2.772 1.139,2.772 h -1.372 c -0.123,0 -0.235,-0.112 -0.235,-0.235 v -4.255 c 0,-0.132 0.103,-0.235 0.235,-0.235 0.123,0 0.234,0.112 0.234,0.235 l -0.015,1.275 h 1.167 c 0.145,0 0.293,0.015 0.402,0.026 l 0.969,-1.411 c 0.038,-0.076 0.127,-0.111 0.194,-0.111 h 0.401 l -1.131,1.644 c 0.017,0.006 0.033,0.012 0.048,0.019"
       style="fill:#edf3f4;fill-opacity:1;fill-rule:nonzero;stroke:none"
       transform="matrix(0.35277776,0,0,-0.35277776,-12.570645,54.286114)"
       clip-path="url(#clipPath70)" />
    <path
       id="path71"
       d="m 0,0 c 0.444,0 0.777,-0.099 1.015,-0.299 0.227,-0.201 0.342,-0.487 0.342,-0.852 0,-0.39 -0.111,-0.673 -0.34,-0.866 L 1.015,-2.019 C 0.785,-2.223 0.435,-2.331 0,-2.331 L -1.166,-2.346 -1.181,0 Z M 0.962,0.25 0.961,0.251 C 0.702,0.38 0.388,0.442 0,0.442 h -1.373 c -0.123,0 -0.234,-0.112 -0.234,-0.235 v -4.255 c 0,-0.132 0.103,-0.235 0.234,-0.235 0.123,0 0.235,0.112 0.235,0.235 l -0.015,1.276 h 1.167 c 0.389,0 0.703,0.062 0.962,0.191 0.291,0.146 0.503,0.334 0.626,0.553 0.147,0.235 0.225,0.534 0.225,0.869 C 1.812,-0.815 1.734,-0.535 1.588,-0.303 1.442,-0.069 1.237,0.112 0.962,0.25"
       style="fill:#edf3f4;fill-opacity:1;fill-rule:nonzero;stroke:none"
       transform="matrix(0.35277776,0,0,-0.35277776,-10.633649,53.459273)"
       clip-path="url(#clipPath72)" />
    <path
       id="path73"
       d="m 0,0 c -0.258,0 -0.481,0.072 -0.68,0.222 -0.199,0.15 -0.352,0.365 -0.467,0.661 -0.112,0.275 -0.169,0.629 -0.169,1.052 0,0.43 0.054,0.769 0.17,1.065 0.114,0.295 0.267,0.51 0.466,0.66 C -0.481,3.81 -0.258,3.882 0,3.882 0.259,3.882 0.481,3.81 0.68,3.66 0.868,3.519 1.025,3.296 1.146,3 1.261,2.708 1.316,2.359 1.316,1.935 1.316,1.512 1.259,1.158 1.147,0.883 L 1.146,0.882 C 1.031,0.587 0.878,0.371 0.68,0.222 0.481,0.072 0.259,0 0,0 M 0.941,3.995 0.938,3.998 C 0.664,4.196 0.348,4.297 0,4.297 -0.358,4.297 -0.671,4.195 -0.924,3.998 -1.189,3.807 -1.398,3.525 -1.542,3.162 -1.686,2.82 -1.758,2.402 -1.758,1.92 c 0,-0.468 0.072,-0.885 0.216,-1.241 0.144,-0.349 0.351,-0.629 0.618,-0.837 0.275,-0.197 0.586,-0.298 0.924,-0.298 0.348,0 0.663,0.101 0.938,0.298 C 1.204,0.034 1.412,0.316 1.557,0.679 1.7,1.021 1.772,1.438 1.772,1.92 1.772,2.388 1.7,2.805 1.557,3.162 1.412,3.511 1.205,3.791 0.941,3.995"
       style="fill:#edf3f4;fill-opacity:1;fill-rule:nonzero;stroke:none"
       transform="matrix(0.35277776,0,0,-0.35277776,-8.662855,54.819054)"
       clip-path="url(#clipPath74)" />
    <path
       id="path75"
       d="m 0,0 c 0,0.124 -0.097,0.221 -0.221,0.221 l -2.158,0.013 1.45,1.544 c 0.179,0.179 0.328,0.362 0.443,0.543 0.097,0.154 0.174,0.316 0.22,0.47 0.041,0.137 0.06,0.279 0.06,0.448 0,0.272 -0.062,0.502 -0.183,0.683 -0.119,0.195 -0.285,0.337 -0.521,0.446 -0.215,0.101 -0.466,0.15 -0.766,0.15 -0.318,0 -0.611,-0.054 -0.87,-0.161 -0.222,-0.088 -0.417,-0.223 -0.577,-0.398 -0.078,-0.078 -0.085,-0.193 0,-0.314 0.087,-0.086 0.223,-0.091 0.318,0.004 0.127,0.141 0.264,0.238 0.421,0.297 0.212,0.086 0.446,0.129 0.695,0.129 0.342,0 0.587,-0.073 0.766,-0.227 0.167,-0.156 0.248,-0.359 0.248,-0.622 0,-0.121 -0.015,-0.216 -0.052,-0.33 C -0.75,2.794 -0.81,2.684 -0.891,2.535 -0.966,2.41 -1.097,2.252 -1.272,2.076 L -3.068,0.171 c -0.04,-0.04 -0.064,-0.1 -0.064,-0.157 v -0.236 h 2.911 C -0.097,-0.222 0,-0.124 0,0"
       style="fill:#edf3f4;fill-opacity:1;fill-rule:nonzero;stroke:none"
       transform="matrix(0.35277776,0,0,-0.35277776,-6.817511,54.892116)"
       clip-path="url(#clipPath76)" />
    <path
       id="path77"
       d="m 0,0 c -0.156,0 -0.303,-0.109 -0.364,-0.272 l -1.992,-6.003 h 0.173 c 0.18,0 0.332,0.119 0.366,0.278 L 0.173,0 Z"
       style="fill:#edf3f4;fill-opacity:1;fill-rule:nonzero;stroke:none"
       transform="matrix(0.35277776,0,0,-0.35277776,-6.01893,52.979036)"
       clip-path="url(#clipPath78)" />
    <path
       id="path79"
       d="m 0,0 -2.159,0.014 1.451,1.543 c 0.177,0.177 0.326,0.36 0.443,0.544 0.097,0.151 0.173,0.313 0.22,0.469 0.041,0.136 0.06,0.283 0.06,0.449 0,0.271 -0.062,0.502 -0.183,0.682 -0.121,0.195 -0.286,0.338 -0.52,0.446 -0.217,0.101 -0.468,0.15 -0.767,0.15 -0.318,0 -0.611,-0.054 -0.87,-0.16 -0.222,-0.089 -0.418,-0.225 -0.577,-0.399 -0.078,-0.077 -0.084,-0.192 0,-0.314 0.087,-0.086 0.223,-0.091 0.318,0.005 0.127,0.14 0.264,0.237 0.421,0.297 0.212,0.086 0.445,0.128 0.694,0.128 0.343,0 0.588,-0.073 0.766,-0.227 0.167,-0.155 0.248,-0.358 0.248,-0.622 0,-0.121 -0.014,-0.216 -0.052,-0.331 C -0.529,2.573 -0.588,2.465 -0.67,2.314 -0.745,2.189 -0.876,2.031 -1.052,1.855 L -2.848,-0.05 C -2.887,-0.09 -2.912,-0.149 -2.912,-0.207 V -0.442 H 0 c 0.124,0 0.221,0.097 0.221,0.221 C 0.221,-0.097 0.124,0 0,0"
       style="fill:#edf3f4;fill-opacity:1;fill-rule:nonzero;stroke:none"
       transform="matrix(0.35277776,0,0,-0.35277776,-5.01658,54.814257)"
       clip-path="url(#clipPath80)" />
    <path
       id="path81"
       d="m 0,0 h -0.712 v 0.918 c 0,0.124 -0.098,0.221 -0.235,0.221 -0.124,0 -0.221,-0.097 -0.221,-0.221 V 0 h -1.796 l 2.313,2.992 h -0.447 c -0.077,0 -0.147,-0.043 -0.168,-0.09 l -2.295,-2.953 c -0.05,-0.051 -0.05,-0.118 -0.05,-0.143 v -0.248 h 2.443 v -1.07 c 0,-0.124 0.097,-0.221 0.234,-0.221 0.124,0 0.222,0.097 0.222,0.221 v 1.07 H 0 c 0.124,0 0.221,0.096 0.217,0.25 C 0.19,-0.081 0.099,0 0,0"
       style="fill:#edf3f4;fill-opacity:1;fill-rule:nonzero;stroke:none"
       transform="matrix(0.35277776,0,0,-0.35277776,-3.62201,54.358785)"
       clip-path="url(#clipPath82)" />
    <path
       id="path83"
       d="m 0,0 c 0,-0.186 -0.044,-0.357 -0.135,-0.527 -0.103,-0.167 -0.226,-0.283 -0.386,-0.363 -0.183,-0.091 -0.386,-0.137 -0.604,-0.137 -0.335,0 -0.607,0.094 -0.806,0.281 -0.195,0.184 -0.29,0.423 -0.29,0.732 0,0.193 0.048,0.38 0.134,0.528 0.088,0.151 0.21,0.268 0.363,0.35 0.152,0.083 0.335,0.123 0.558,0.123 0.265,0 0.478,-0.049 0.652,-0.148 C -0.342,0.741 -0.222,0.621 -0.136,0.463 -0.042,0.288 0,0.146 0,0 m -0.169,1.143 -0.004,0.003 c -0.271,0.195 -0.615,0.297 -0.993,0.297 -0.286,0 -0.553,-0.062 -0.772,-0.179 -0.232,-0.123 -0.41,-0.291 -0.541,-0.51 -0.133,-0.207 -0.198,-0.459 -0.198,-0.768 0,-0.295 0.064,-0.545 0.198,-0.766 0.159,-0.247 0.333,-0.407 0.549,-0.5 0.276,-0.122 0.52,-0.176 0.792,-0.176 0.261,0 0.499,0.052 0.753,0.163 0.215,0.101 0.397,0.257 0.557,0.481 0.002,0.001 0.003,0.003 0.005,0.006 0.001,-0.055 0.001,-0.106 0.001,-0.154 0,-0.656 -0.138,-1.132 -0.422,-1.455 -0.276,-0.314 -0.635,-0.466 -1.1,-0.466 -0.172,0 -0.304,0.016 -0.423,0.051 -0.092,0.023 -0.196,0.049 -0.263,0.093 -0.094,0.064 -0.227,0.031 -0.305,-0.09 -0.052,-0.106 -0.016,-0.231 0.098,-0.305 0.126,-0.062 0.244,-0.104 0.379,-0.134 0.172,-0.029 0.345,-0.043 0.528,-0.043 0.401,0 0.738,0.092 1.025,0.278 0.292,0.176 0.533,0.456 0.695,0.812 0.164,0.372 0.244,0.802 0.244,1.314 0,0.428 -0.069,0.846 -0.199,1.208 -0.124,0.344 -0.322,0.62 -0.604,0.84"
       style="fill:#edf3f4;fill-opacity:1;fill-rule:nonzero;stroke:none"
       transform="matrix(0.35277776,0,0,-0.35277776,-2.60072,53.79794)"
       clip-path="url(#clipPath84)" />
    <path
       id="path85"
       d="m 0,0 c -0.261,0.116 -0.629,0.176 -1.094,0.176 h -0.517 l 0.157,1.452 h 1.815 c 0.124,0 0.222,0.097 0.222,0.221 0,0.124 -0.098,0.221 -0.222,0.221 h -2.018 c -0.104,0 -0.186,-0.085 -0.22,-0.194 l -0.206,-1.922 c 0,-0.127 0.101,-0.234 0.221,-0.234 h 0.727 c 0.386,0 0.704,-0.04 0.919,-0.116 0.207,-0.074 0.347,-0.177 0.428,-0.316 0.087,-0.149 0.134,-0.337 0.134,-0.527 0,-0.289 -0.087,-0.516 -0.265,-0.695 -0.177,-0.176 -0.461,-0.265 -0.845,-0.265 -0.287,0 -0.542,0.052 -0.759,0.154 -0.222,0.098 -0.386,0.22 -0.5,0.373 l -0.096,0.127 -0.177,-0.216 c -0.06,-0.091 -0.054,-0.211 0.011,-0.276 0.153,-0.168 0.363,-0.316 0.594,-0.416 0.298,-0.125 0.606,-0.189 0.913,-0.189 0.341,0 0.625,0.059 0.868,0.18 0.222,0.117 0.406,0.296 0.531,0.516 0.12,0.21 0.181,0.452 0.181,0.727 C 0.786,-0.94 0.723,-0.707 0.607,-0.506 0.487,-0.295 0.283,-0.125 0,0"
       style="fill:#edf3f4;fill-opacity:1;fill-rule:nonzero;stroke:none"
       transform="matrix(0.35277776,0,0,-0.35277776,-1.44453,54.038393)"
       clip-path="url(#clipPath86)" />
    <path
       id="path87"
       d="M 0,0 -0.03,-0.004 C -0.145,-0.032 -0.221,-0.125 -0.221,-0.235 V -1.1 c 0,-0.128 0.101,-0.235 0.221,-0.235 0.128,0 0.221,0.099 0.221,0.235 v 0.658 L 2.466,-0.419 0.735,-4.402 C 0.705,-4.478 0.714,-4.561 0.758,-4.626 0.8,-4.688 0.87,-4.725 0.947,-4.725 c 0.095,0 0.154,0.06 0.185,0.092 L 2.998,-0.354 3.021,0 Z"
       style="fill:#edf3f4;fill-opacity:1;fill-rule:nonzero;stroke:none"
       transform="matrix(0.35277776,0,0,-0.35277776,-1.04113,53.298406)"
       clip-path="url(#clipPath88)" />
    <path
       id="path89"
       d="m 0,0 c -0.462,0 -0.837,-0.393 -0.837,-0.878 0,-0.486 0.375,-0.879 0.837,-0.879 0.462,0 0.837,0.393 0.837,0.879 C 0.837,-0.393 0.462,0 0,0"
       style="fill:#edf3f4;fill-opacity:1;fill-rule:nonzero;stroke:none"
       transform="matrix(0.35277776,0,0,-0.35277776,-15.722997,53.841366)"
       clip-path="url(#clipPath90)" />
  </g>
</svg>
